<?xml version="1.0" encoding="UTF-8" standalone="no"?>
<!-- Created with Inkscape (http://www.inkscape.org/) -->

<svg
   xmlns:dc="http://purl.org/dc/elements/1.1/"
   xmlns:cc="http://creativecommons.org/ns#"
   xmlns:rdf="http://www.w3.org/1999/02/22-rdf-syntax-ns#"
   xmlns:svg="http://www.w3.org/2000/svg"
   xmlns="http://www.w3.org/2000/svg"
   version="1.1"
   width="64"
   height="64"
   id="svg3054"
   viewBox="0 0 64 64">
  <defs
     id="defs3056">
    <clipPath
       id="clipPath3018">
      <path
         d="m 0,65.993 65.993,0 L 65.993,0 0,0 0,65.993 z"
         id="path3020" />
    </clipPath>
    <clipPath
       id="clipPath3177">
      <path
         d="m 0,65.993 65.993,0 L 65.993,0 0,0 0,65.993 z"
         id="path3179" />
    </clipPath>
  </defs>
  <metadata
     id="metadata3059">
    <rdf:RDF>
      <cc:Work
         rdf:about="">
        <dc:format>image/svg+xml</dc:format>
        <dc:type
           rdf:resource="http://purl.org/dc/dcmitype/StillImage" />
        <dc:title></dc:title>
      </cc:Work>
    </rdf:RDF>
  </metadata>
  <g
     id="layer1">
    <g
       transform="matrix(0.96980277,0,0,-0.96980277,-1.9396055e-4,64.000097)"
       id="g3173">
      <g
         clip-path="url(#clipPath3177)"
         id="g3175">
        <g
           transform="translate(65.4932,32.9971)"
           id="g3181">
          <path
             d="m 0,0 c 0,-17.948 -14.549,-32.497 -32.497,-32.497 -17.947,0 -32.496,14.549 -32.496,32.497 0,17.947 14.549,32.496 32.496,32.496 C -14.549,32.496 0,17.947 0,0 z"
             id="path3183"
             style="fill:none;stroke:#9d8852;stroke-width:1;stroke-linecap:butt;stroke-linejoin:miter;stroke-miterlimit:10;stroke-opacity:1;stroke-dasharray:none" />
        </g>
        <g
           transform="translate(28.7754,42.7012)"
           id="g3185">
          <path
             d="M 0,0 C 0.451,0 0.856,-0.063 1.219,-0.192 1.582,-0.32 1.89,-0.498 2.146,-0.724 2.402,-0.953 2.6,-1.219 2.736,-1.525 2.873,-1.83 2.942,-2.161 2.942,-2.518 2.942,-2.826 2.908,-3.101 2.839,-3.336 2.769,-3.572 2.668,-3.778 2.534,-3.953 2.401,-4.13 2.239,-4.278 2.049,-4.399 1.857,-4.521 1.641,-4.621 1.397,-4.703 1.981,-4.888 2.419,-5.169 2.706,-5.546 2.995,-5.925 3.139,-6.399 3.139,-6.97 3.139,-7.456 3.049,-7.886 2.868,-8.259 2.688,-8.633 2.444,-8.946 2.14,-9.202 1.833,-9.455 1.479,-9.646 1.077,-9.777 0.675,-9.908 0.248,-9.974 -0.202,-9.974 c -0.49,0 -0.918,0.057 -1.282,0.169 -0.364,0.113 -0.681,0.28 -0.951,0.5 -0.27,0.22 -0.5,0.49 -0.69,0.808 -0.188,0.321 -0.349,0.69 -0.483,1.107 l 0.735,0.305 c 0.124,0.055 0.253,0.08 0.384,0.08 0.116,0 0.221,-0.025 0.314,-0.073 0.091,-0.05 0.162,-0.122 0.212,-0.217 0.081,-0.156 0.17,-0.311 0.268,-0.466 0.095,-0.152 0.211,-0.288 0.346,-0.408 0.135,-0.118 0.293,-0.215 0.476,-0.29 0.181,-0.073 0.399,-0.11 0.651,-0.11 0.284,0 0.531,0.047 0.742,0.138 0.211,0.091 0.387,0.211 0.529,0.361 0.142,0.148 0.249,0.314 0.318,0.497 0.07,0.181 0.105,0.364 0.105,0.549 0,0.233 -0.026,0.446 -0.075,0.637 -0.048,0.191 -0.152,0.355 -0.31,0.491 -0.157,0.133 -0.383,0.239 -0.677,0.316 -0.296,0.075 -0.69,0.115 -1.186,0.115 l 0,1.194 c 0.41,0 0.75,0.037 1.019,0.108 0.271,0.071 0.485,0.172 0.645,0.3 0.159,0.129 0.272,0.283 0.334,0.463 0.063,0.179 0.094,0.378 0.094,0.592 0,0.464 -0.127,0.814 -0.378,1.051 -0.251,0.236 -0.596,0.353 -1.032,0.353 -0.395,0 -0.724,-0.104 -0.984,-0.315 -0.263,-0.208 -0.444,-0.475 -0.548,-0.802 -0.054,-0.172 -0.128,-0.294 -0.222,-0.37 -0.094,-0.072 -0.218,-0.11 -0.371,-0.11 -0.072,0 -0.149,0.007 -0.229,0.02 l -0.877,0.153 c 0.066,0.468 0.197,0.878 0.39,1.23 0.193,0.355 0.437,0.648 0.726,0.886 0.29,0.235 0.622,0.413 0.998,0.533 C -0.835,-0.059 -0.431,0 0,0"
             id="path3187"
             style="fill:#373535;fill-opacity:1;fill-rule:nonzero;stroke:none" />
        </g>
        <g
           transform="translate(38.1553,37.7148)"
           id="g3189">
          <path
             d="M 0,0 C 0,0.706 -0.051,1.29 -0.155,1.754 -0.259,2.218 -0.396,2.586 -0.569,2.86 -0.743,3.135 -0.942,3.328 -1.168,3.438 -1.393,3.547 -1.627,3.603 -1.869,3.603 -2.106,3.603 -2.338,3.547 -2.561,3.438 -2.783,3.328 -2.98,3.135 -3.151,2.86 -3.322,2.586 -3.458,2.218 -3.56,1.754 -3.66,1.29 -3.711,0.706 -3.711,0 c 0,-0.707 0.051,-1.291 0.151,-1.755 0.102,-0.463 0.238,-0.832 0.409,-1.107 0.171,-0.275 0.368,-0.466 0.59,-0.576 0.223,-0.111 0.455,-0.166 0.692,-0.166 0.242,0 0.476,0.055 0.701,0.166 0.226,0.11 0.425,0.301 0.599,0.576 0.173,0.275 0.31,0.644 0.414,1.107 C -0.051,-1.291 0,-0.707 0,0 M 1.721,0 C 1.721,-0.851 1.63,-1.59 1.448,-2.218 1.265,-2.844 1.014,-3.362 0.691,-3.772 0.37,-4.182 -0.01,-4.486 -0.448,-4.687 c -0.439,-0.199 -0.912,-0.3 -1.421,-0.3 -0.509,0 -0.981,0.101 -1.413,0.3 -0.434,0.201 -0.812,0.505 -1.131,0.915 -0.319,0.41 -0.568,0.928 -0.748,1.554 -0.181,0.628 -0.271,1.367 -0.271,2.218 0,0.854 0.09,1.596 0.271,2.22 0.18,0.625 0.429,1.143 0.748,1.552 0.319,0.409 0.697,0.713 1.131,0.913 0.432,0.202 0.904,0.301 1.413,0.301 0.509,0 0.982,-0.099 1.421,-0.301 C -0.01,4.485 0.37,4.181 0.691,3.772 1.014,3.363 1.265,2.845 1.448,2.22 1.63,1.596 1.721,0.854 1.721,0"
             id="path3191"
             style="fill:#373535;fill-opacity:1;fill-rule:nonzero;stroke:none" />
        </g>
        <g
           transform="translate(29.667,26.9238)"
           id="g3193">
          <path
             d="M 0,0 C 0,0.268 -0.036,0.507 -0.107,0.721 -0.18,0.933 -0.283,1.113 -0.416,1.26 -0.549,1.407 -0.709,1.52 -0.9,1.599 -1.09,1.677 -1.303,1.717 -1.542,1.717 l -0.948,0 0,-3.435 0.948,0 c 0.239,0 0.452,0.039 0.642,0.119 0.191,0.078 0.351,0.19 0.484,0.338 0.133,0.147 0.236,0.326 0.309,0.54 C -0.036,-0.508 0,-0.268 0,0 M 0.928,0 C 0.928,-0.358 0.869,-0.686 0.749,-0.986 0.63,-1.286 0.463,-1.542 0.246,-1.758 0.03,-1.974 -0.229,-2.142 -0.533,-2.261 -0.837,-2.38 -1.174,-2.44 -1.542,-2.44 l -1.862,0 0,4.879 1.862,0 c 0.368,0 0.705,-0.06 1.009,-0.181 C -0.229,2.138 0.03,1.97 0.246,1.756 0.463,1.541 0.63,1.284 0.749,0.985 0.869,0.686 0.928,0.357 0.928,0"
             id="path3195"
             style="fill:#373535;fill-opacity:1;fill-rule:nonzero;stroke:none" />
        </g>
        <g
           transform="translate(32.5586,29.3574)"
           id="g3197">
          <path
             d="m 0,0 c 0.026,-0.002 0.051,-0.01 0.073,-0.021 0.021,-0.008 0.041,-0.024 0.062,-0.042 0.019,-0.02 0.044,-0.045 0.067,-0.077 l 2.562,-3.263 c -0.009,0.08 -0.017,0.156 -0.019,0.232 -0.003,0.076 -0.006,0.147 -0.006,0.211 l 0,2.966 0.799,0 0,-4.88 -0.468,0 c -0.072,0 -0.131,0.011 -0.178,0.034 -0.046,0.023 -0.093,0.064 -0.138,0.121 L 0.202,-1.47 c 0.006,-0.071 0.012,-0.142 0.016,-0.214 0.003,-0.07 0.005,-0.135 0.005,-0.193 l 0,-2.997 -0.799,0 0,4.88 0.475,0 C -0.062,0.006 -0.027,0.004 0,0"
             id="path3199"
             style="fill:#373535;fill-opacity:1;fill-rule:nonzero;stroke:none" />
        </g>
        <path
           d="m 38.779,24.483 -0.91,0 0,4.88 0.91,0 0,-4.88 z"
           id="path3201"
           style="fill:#373535;fill-opacity:1;fill-rule:nonzero;stroke:none" />
        <g
           transform="translate(32.6602,48.3936)"
           id="g3203">
          <path
             d="m 0,0 c 4.303,0 8.179,-1.776 10.997,-4.609 l -2.638,0 0,-0.563 3.685,0 0,3.673 -0.563,0 0,-2.803 C 8.556,-1.315 4.502,0.562 0,0.562 c -8.888,0 -16.119,-7.232 -16.119,-16.119 0,-1.608 0.243,-3.158 0.683,-4.627 l 0.517,0.251 c -0.409,1.391 -0.638,2.856 -0.638,4.376 C -15.557,-6.979 -8.578,0 0,0 z"
             id="path3205"
             style="fill:none;stroke:#333433;stroke-width:0.5;stroke-linecap:butt;stroke-linejoin:miter;stroke-miterlimit:10;stroke-opacity:1;stroke-dasharray:none" />
        </g>
        <g
           transform="translate(46.8965,40.3838)"
           id="g3207">
          <path
             d="m 0,0 -0.474,-0.312 c 1.143,-2.163 1.796,-4.625 1.796,-7.235 0,-8.581 -6.979,-15.559 -15.558,-15.559 -5.395,0 -10.135,2.773 -12.926,6.955 l 2.596,-0.13 0.029,0.563 -3.683,0.185 -0.182,-3.669 0.563,-0.029 0.143,2.871 c 2.882,-4.388 7.828,-7.308 13.46,-7.308 8.889,0 16.121,7.231 16.121,16.121 C 1.885,-4.821 1.198,-2.254 0,0 z"
             id="path3209"
             style="fill:none;stroke:#333433;stroke-width:0.5;stroke-linecap:butt;stroke-linejoin:miter;stroke-miterlimit:10;stroke-opacity:1;stroke-dasharray:none" />
        </g>
      </g>
    </g>
  </g>
</svg>
