<?xml version="1.0" encoding="UTF-8" standalone="no"?>
<!-- Created with Inkscape (http://www.inkscape.org/) -->

<svg
   xmlns:dc="http://purl.org/dc/elements/1.1/"
   xmlns:cc="http://creativecommons.org/ns#"
   xmlns:rdf="http://www.w3.org/1999/02/22-rdf-syntax-ns#"
   xmlns:svg="http://www.w3.org/2000/svg"
   xmlns="http://www.w3.org/2000/svg"
   version="1.1"
   width="64"
   height="64"
   id="svg3054"
   viewBox="0 0 64 64">
  <defs
     id="defs3056">
    <clipPath
       id="clipPath3018">
      <path
         d="m 0,65.993 65.993,0 L 65.993,0 0,0 0,65.993 z"
         id="path3020" />
    </clipPath>
    <clipPath
       id="clipPath3177">
      <path
         d="m 0,65.993 65.993,0 L 65.993,0 0,0 0,65.993 z"
         id="path3179" />
    </clipPath>
    <clipPath
       id="clipPath3335">
      <path
         d="m 0,65.993 65.993,0 L 65.993,0 0,0 0,65.993 z"
         id="path3337" />
    </clipPath>
    <clipPath
       id="clipPath3468">
      <path
         d="m 0,65.993 65.993,0 L 65.993,0 0,0 0,65.993 z"
         id="path3470" />
    </clipPath>
  </defs>
  <metadata
     id="metadata3059">
    <rdf:RDF>
      <cc:Work
         rdf:about="">
        <dc:format>image/svg+xml</dc:format>
        <dc:type
           rdf:resource="http://purl.org/dc/dcmitype/StillImage" />
        <dc:title></dc:title>
      </cc:Work>
    </rdf:RDF>
  </metadata>
  <g
     id="layer1">
    <g
       transform="matrix(0.96980277,0,0,-0.96980277,-1.9396055e-4,64.000097)"
       id="g3464">
      <g
         clip-path="url(#clipPath3468)"
         id="g3466">
        <g
           transform="translate(65.4932,32.9971)"
           id="g3472">
          <path
             d="m 0,0 c 0,-17.948 -14.549,-32.497 -32.497,-32.497 -17.947,0 -32.496,14.549 -32.496,32.497 0,17.947 14.549,32.496 32.496,32.496 C -14.549,32.496 0,17.947 0,0 z"
             id="path3474"
             style="fill:none;stroke:#9d8852;stroke-width:1;stroke-linecap:butt;stroke-linejoin:miter;stroke-miterlimit:10;stroke-opacity:1;stroke-dasharray:none" />
        </g>
        <g
           transform="translate(48.7891,22.7441)"
           id="g3476">
          <path
             d="m 0,0 c -0.977,-0.503 -7.122,-3.583 -12.424,-4.341 -0.591,-0.084 -1.214,-0.127 -1.855,-0.127 -4.398,0 -9.042,1.94 -12.773,3.5 -0.769,0.321 -1.491,0.622 -2.153,0.882 -1.613,0.633 -2.446,1.484 -2.285,2.337 0.128,0.683 0.837,1.143 1.417,1.143 0.075,0 0.15,-0.008 0.22,-0.025 1.184,-0.263 5.435,-0.517 8.541,-0.704 0.884,-0.054 1.659,-0.1 2.208,-0.139 2.48,-0.171 5.927,1.383 6.066,1.445 l 0.147,0.068 0,1.832 -0.248,0.004 c 0,0 -2.829,0.037 -5.012,0.037 -1.275,0 -2.074,-0.014 -2.377,-0.039 -0.982,-0.076 -1.911,0.854 -2.333,2.331 -0.316,1.1 1.091,1.897 1.882,2.25 0.232,0.081 0.407,0.14 0.549,0.19 0.497,-0.011 2.611,-0.055 4.493,-0.055 1.259,0 2.164,0.019 2.687,0.057 0.721,0.051 1.565,0.363 2.462,0.691 1.117,0.412 2.385,0.877 3.565,0.877 0.241,0 0.473,-0.02 0.693,-0.057 C -0.633,11.127 -0.007,8.888 0,8.888 L 0,0 z m 0.498,8.939 c -0.022,0.107 -0.611,2.608 -6.941,3.712 -0.249,0.043 -0.511,0.065 -0.78,0.065 -1.27,0 -2.582,-0.482 -3.739,-0.906 -0.01,-0.004 -0.019,-0.008 -0.03,-0.012 0.134,0.632 0.223,1.281 0.223,1.952 0,5.252 -4.272,9.523 -9.522,9.523 -5.252,0 -9.523,-4.271 -9.523,-9.523 0,-4.028 2.517,-7.473 6.06,-8.861 -0.122,0.209 -0.235,0.438 -0.339,0.692 -3.078,1.438 -5.219,4.555 -5.219,8.169 0,4.976 4.047,9.021 9.021,9.021 4.974,0 9.02,-4.045 9.02,-9.021 0,-0.746 -0.112,-1.464 -0.285,-2.156 -0.636,-0.227 -1.233,-0.411 -1.729,-0.447 -0.476,-0.034 -1.291,-0.051 -2.4,-0.053 0.016,0.083 0.036,0.164 0.042,0.253 0.103,2.403 -1.934,3.184 -3.835,3.613 -0.571,0.132 -1.433,0.323 -1.398,0.928 0.033,0.56 0.552,0.781 1.19,0.781 0.692,0 1.21,-0.235 1.694,-0.766 l 2.004,1.076 c -0.692,1.032 -1.693,1.623 -2.746,1.843 l 0,1.076 -2.402,0 0,-1.105 c -1.469,-0.325 -2.729,-1.224 -2.763,-2.905 -0.036,-2.182 2.401,-2.904 3.677,-3.184 l -0.016,0 c 0.708,-0.163 1.59,-0.473 1.538,-1.225 -0.009,-0.132 -0.061,-0.254 -0.135,-0.362 -0.979,0.015 -1.695,0.03 -1.709,0.031 l -0.043,0 -0.042,-0.013 c -0.033,-0.011 -0.258,-0.086 -0.567,-0.225 -0.337,0.166 -0.694,0.425 -1.046,0.85 l -1.987,-1.239 c 0.307,-0.473 0.667,-0.848 1.054,-1.15 -0.219,-0.377 -0.31,-0.813 -0.169,-1.306 0.475,-1.665 1.509,-2.698 2.699,-2.698 0.053,0 0.106,0.002 0.159,0.006 0.289,0.024 1.074,0.036 2.335,0.036 1.795,0 4.024,-0.024 4.758,-0.035 l 0,-1.01 c -0.686,-0.292 -3.632,-1.476 -5.674,-1.336 -0.553,0.037 -1.329,0.085 -2.216,0.138 -2.913,0.175 -7.316,0.438 -8.462,0.693 -0.105,0.025 -0.216,0.037 -0.328,0.037 -0.892,0 -1.749,-0.697 -1.911,-1.553 -0.099,-0.526 -0.045,-1.861 2.596,-2.897 0.659,-0.258 1.376,-0.558 2.142,-0.878 3.773,-1.577 8.469,-3.538 12.967,-3.538 0.666,0 1.313,0.045 1.925,0.132 5.836,0.835 12.655,4.427 12.724,4.465 l 0.133,0.07 -0.005,9.242 z"
             id="path3478"
             style="fill:#373535;fill-opacity:1;fill-rule:nonzero;stroke:none" />
        </g>
        <g
           transform="translate(48.7891,22.7441)"
           id="g3480">
          <path
             d="m 0,0 c -0.977,-0.503 -7.122,-3.583 -12.424,-4.341 -0.591,-0.084 -1.214,-0.127 -1.855,-0.127 -4.398,0 -9.042,1.94 -12.773,3.5 -0.769,0.321 -1.491,0.622 -2.153,0.882 -1.613,0.633 -2.446,1.484 -2.285,2.337 0.128,0.683 0.837,1.143 1.417,1.143 0.075,0 0.15,-0.008 0.22,-0.025 1.184,-0.263 5.435,-0.517 8.541,-0.704 0.884,-0.054 1.659,-0.1 2.208,-0.139 2.48,-0.171 5.927,1.383 6.066,1.445 l 0.147,0.068 0,1.832 -0.248,0.004 c 0,0 -2.829,0.037 -5.012,0.037 -1.275,0 -2.074,-0.014 -2.377,-0.039 -0.982,-0.076 -1.911,0.854 -2.333,2.331 -0.316,1.1 1.091,1.897 1.882,2.25 0.232,0.081 0.407,0.14 0.549,0.19 0.497,-0.011 2.611,-0.055 4.493,-0.055 1.259,0 2.164,0.019 2.687,0.057 0.721,0.051 1.565,0.363 2.462,0.691 1.117,0.412 2.385,0.877 3.565,0.877 0.241,0 0.473,-0.02 0.693,-0.057 C -0.633,11.127 -0.007,8.888 0,8.888 L 0,0 z m 0.498,8.939 c -0.022,0.107 -0.611,2.608 -6.941,3.712 -0.249,0.043 -0.511,0.065 -0.78,0.065 -1.27,0 -2.582,-0.482 -3.739,-0.906 -0.01,-0.004 -0.019,-0.008 -0.03,-0.012 0.134,0.632 0.223,1.281 0.223,1.952 0,5.252 -4.272,9.523 -9.522,9.523 -5.252,0 -9.523,-4.271 -9.523,-9.523 0,-4.028 2.517,-7.473 6.06,-8.861 -0.122,0.209 -0.235,0.438 -0.339,0.692 -3.078,1.438 -5.219,4.555 -5.219,8.169 0,4.976 4.047,9.021 9.021,9.021 4.974,0 9.02,-4.045 9.02,-9.021 0,-0.746 -0.112,-1.464 -0.285,-2.156 -0.636,-0.227 -1.233,-0.411 -1.729,-0.447 -0.476,-0.034 -1.291,-0.051 -2.4,-0.053 0.016,0.083 0.036,0.164 0.042,0.253 0.103,2.403 -1.934,3.184 -3.835,3.613 -0.571,0.132 -1.433,0.323 -1.398,0.928 0.033,0.56 0.552,0.781 1.19,0.781 0.692,0 1.21,-0.235 1.694,-0.766 l 2.004,1.076 c -0.692,1.032 -1.693,1.623 -2.746,1.843 l 0,1.076 -2.402,0 0,-1.105 c -1.469,-0.325 -2.729,-1.224 -2.763,-2.905 -0.036,-2.182 2.401,-2.904 3.677,-3.184 l -0.016,0 c 0.708,-0.163 1.59,-0.473 1.538,-1.225 -0.009,-0.132 -0.061,-0.254 -0.135,-0.362 -0.979,0.015 -1.695,0.03 -1.709,0.031 l -0.043,0 -0.042,-0.013 c -0.033,-0.011 -0.258,-0.086 -0.567,-0.225 -0.337,0.166 -0.694,0.425 -1.046,0.85 l -1.987,-1.239 c 0.307,-0.473 0.667,-0.848 1.054,-1.15 -0.219,-0.377 -0.31,-0.813 -0.169,-1.306 0.475,-1.665 1.509,-2.698 2.699,-2.698 0.053,0 0.106,0.002 0.159,0.006 0.289,0.024 1.074,0.036 2.335,0.036 1.795,0 4.024,-0.024 4.758,-0.035 l 0,-1.01 c -0.686,-0.292 -3.632,-1.476 -5.674,-1.336 -0.553,0.037 -1.329,0.085 -2.216,0.138 -2.913,0.175 -7.316,0.438 -8.462,0.693 -0.105,0.025 -0.216,0.037 -0.328,0.037 -0.892,0 -1.749,-0.697 -1.911,-1.553 -0.099,-0.526 -0.045,-1.861 2.596,-2.897 0.659,-0.258 1.376,-0.558 2.142,-0.878 3.773,-1.577 8.469,-3.538 12.967,-3.538 0.666,0 1.313,0.045 1.925,0.132 5.836,0.835 12.655,4.427 12.724,4.465 l 0.133,0.07 -0.005,9.242 z"
             id="path3482"
             style="fill:none;stroke:#373535;stroke-width:0.25;stroke-linecap:round;stroke-linejoin:round;stroke-miterlimit:10;stroke-opacity:1;stroke-dasharray:none" />
        </g>
      </g>
    </g>
  </g>
</svg>
