<svg xmlns:svg="http://www.w3.org/2000/svg" xmlns="http://www.w3.org/2000/svg" version="1.1" width="64" height="64" viewBox="0 0 64 64"><defs><clipPath><path d="m0 65.99 65.99 0L65.99 0 0 0 0 65.99z"/></clipPath><clipPath><path d="m0 65.99 65.99 0L65.99 0 0 0 0 65.99z"/></clipPath><clipPath><path d="m0 65.99 65.99 0L65.99 0 0 0 0 65.99z"/></clipPath><clipPath><path d="m0 65.99 65.99 0L65.99 0 0 0 0 65.99z"/></clipPath></defs><g transform="matrix(0.96980277,0,0,-0.96980277,-1.9396055e-4,64.000097)"><g clip-path="url(#clipPath3468)"><g transform="translate(65.4932,32.9971)"><path d="m0 0c0-17.95-14.55-32.5-32.5-32.5-17.95 0-32.5 14.55-32.5 32.5 0 17.95 14.55 32.5 32.5 32.5C-14.55 32.5 0 17.95 0 0z" style="fill:none;stroke-miterlimit:10;stroke:#9d8852"/></g><g transform="translate(48.7891,22.7441)"><path d="m0 0c-0.98-0.5-7.12-3.58-12.42-4.34-0.59-0.08-1.21-0.13-1.85-0.13-4.4 0-9.04 1.94-12.77 3.5-0.77 0.32-1.49 0.62-2.15 0.88-1.61 0.63-2.45 1.48-2.28 2.34 0.13 0.68 0.84 1.14 1.42 1.14 0.08 0 0.15-0.01 0.22-0.02 1.18-0.26 5.44-0.52 8.54-0.7 0.88-0.05 1.66-0.1 2.21-0.14 2.48-0.17 5.93 1.38 6.07 1.45l0.15 0.07 0 1.83-0.25 0c0 0-2.83 0.04-5.01 0.04-1.27 0-2.07-0.01-2.38-0.04-0.98-0.08-1.91 0.85-2.33 2.33-0.32 1.1 1.09 1.9 1.88 2.25 0.23 0.08 0.41 0.14 0.55 0.19 0.5-0.01 2.61-0.05 4.49-0.05 1.26 0 2.16 0.02 2.69 0.06 0.72 0.05 1.57 0.36 2.46 0.69 1.12 0.41 2.38 0.88 3.57 0.88 0.24 0 0.47-0.02 0.69-0.06C-0.63 11.13-0.01 8.89 0 8.89L0 0zm0.5 8.94c-0.02 0.11-0.61 2.61-6.94 3.71-0.25 0.04-0.51 0.07-0.78 0.07-1.27 0-2.58-0.48-3.74-0.91-0.01 0-0.02-0.01-0.03-0.01 0.13 0.63 0.22 1.28 0.22 1.95 0 5.25-4.27 9.52-9.52 9.52-5.25 0-9.52-4.27-9.52-9.52 0-4.03 2.52-7.47 6.06-8.86-0.12 0.21-0.23 0.44-0.34 0.69-3.08 1.44-5.22 4.56-5.22 8.17 0 4.98 4.05 9.02 9.02 9.02 4.97 0 9.02-4.04 9.02-9.02 0-0.75-0.11-1.46-0.28-2.16-0.64-0.23-1.23-0.41-1.73-0.45-0.48-0.03-1.29-0.05-2.4-0.05 0.02 0.08 0.04 0.16 0.04 0.25 0.1 2.4-1.93 3.18-3.83 3.61-0.57 0.13-1.43 0.32-1.4 0.93 0.03 0.56 0.55 0.78 1.19 0.78 0.69 0 1.21-0.23 1.69-0.77l2 1.08c-0.69 1.03-1.69 1.62-2.75 1.84l0 1.08-2.4 0 0-1.1c-1.47-0.32-2.73-1.22-2.76-2.9-0.04-2.18 2.4-2.9 3.68-3.18l-0.02 0c0.71-0.16 1.59-0.47 1.54-1.23-0.01-0.13-0.06-0.25-0.13-0.36-0.98 0.02-1.69 0.03-1.71 0.03l-0.04 0-0.04-0.01c-0.03-0.01-0.26-0.09-0.57-0.22-0.34 0.17-0.69 0.43-1.05 0.85l-1.99-1.24c0.31-0.47 0.67-0.85 1.05-1.15-0.22-0.38-0.31-0.81-0.17-1.31 0.48-1.66 1.51-2.7 2.7-2.7 0.05 0 0.11 0 0.16 0.01 0.29 0.02 1.07 0.04 2.34 0.04 1.8 0 4.02-0.02 4.76-0.04l0-1.01c-0.69-0.29-3.63-1.48-5.67-1.34-0.55 0.04-1.33 0.09-2.22 0.14-2.91 0.18-7.32 0.44-8.46 0.69-0.1 0.03-0.22 0.04-0.33 0.04-0.89 0-1.75-0.7-1.91-1.55-0.1-0.53-0.04-1.86 2.6-2.9 0.66-0.26 1.38-0.56 2.14-0.88 3.77-1.58 8.47-3.54 12.97-3.54 0.67 0 1.31 0.05 1.93 0.13 5.84 0.84 12.66 4.43 12.72 4.47l0.13 0.07 0 9.24z" style="fill-rule:nonzero;fill:#373535"/></g><g transform="translate(48.7891,22.7441)"><path d="m0 0c-0.98-0.5-7.12-3.58-12.42-4.34-0.59-0.08-1.21-0.13-1.85-0.13-4.4 0-9.04 1.94-12.77 3.5-0.77 0.32-1.49 0.62-2.15 0.88-1.61 0.63-2.45 1.48-2.28 2.34 0.13 0.68 0.84 1.14 1.42 1.14 0.08 0 0.15-0.01 0.22-0.02 1.18-0.26 5.44-0.52 8.54-0.7 0.88-0.05 1.66-0.1 2.21-0.14 2.48-0.17 5.93 1.38 6.07 1.45l0.15 0.07 0 1.83-0.25 0c0 0-2.83 0.04-5.01 0.04-1.27 0-2.07-0.01-2.38-0.04-0.98-0.08-1.91 0.85-2.33 2.33-0.32 1.1 1.09 1.9 1.88 2.25 0.23 0.08 0.41 0.14 0.55 0.19 0.5-0.01 2.61-0.05 4.49-0.05 1.26 0 2.16 0.02 2.69 0.06 0.72 0.05 1.57 0.36 2.46 0.69 1.12 0.41 2.38 0.88 3.57 0.88 0.24 0 0.47-0.02 0.69-0.06C-0.63 11.13-0.01 8.89 0 8.89L0 0zm0.5 8.94c-0.02 0.11-0.61 2.61-6.94 3.71-0.25 0.04-0.51 0.07-0.78 0.07-1.27 0-2.58-0.48-3.74-0.91-0.01 0-0.02-0.01-0.03-0.01 0.13 0.63 0.22 1.28 0.22 1.95 0 5.25-4.27 9.52-9.52 9.52-5.25 0-9.52-4.27-9.52-9.52 0-4.03 2.52-7.47 6.06-8.86-0.12 0.21-0.23 0.44-0.34 0.69-3.08 1.44-5.22 4.56-5.22 8.17 0 4.98 4.05 9.02 9.02 9.02 4.97 0 9.02-4.04 9.02-9.02 0-0.75-0.11-1.46-0.28-2.16-0.64-0.23-1.23-0.41-1.73-0.45-0.48-0.03-1.29-0.05-2.4-0.05 0.02 0.08 0.04 0.16 0.04 0.25 0.1 2.4-1.93 3.18-3.83 3.61-0.57 0.13-1.43 0.32-1.4 0.93 0.03 0.56 0.55 0.78 1.19 0.78 0.69 0 1.21-0.23 1.69-0.77l2 1.08c-0.69 1.03-1.69 1.62-2.75 1.84l0 1.08-2.4 0 0-1.1c-1.47-0.32-2.73-1.22-2.76-2.9-0.04-2.18 2.4-2.9 3.68-3.18l-0.02 0c0.71-0.16 1.59-0.47 1.54-1.23-0.01-0.13-0.06-0.25-0.13-0.36-0.98 0.02-1.69 0.03-1.71 0.03l-0.04 0-0.04-0.01c-0.03-0.01-0.26-0.09-0.57-0.22-0.34 0.17-0.69 0.43-1.05 0.85l-1.99-1.24c0.31-0.47 0.67-0.85 1.05-1.15-0.22-0.38-0.31-0.81-0.17-1.31 0.48-1.66 1.51-2.7 2.7-2.7 0.05 0 0.11 0 0.16 0.01 0.29 0.02 1.07 0.04 2.34 0.04 1.8 0 4.02-0.02 4.76-0.04l0-1.01c-0.69-0.29-3.63-1.48-5.67-1.34-0.55 0.04-1.33 0.09-2.22 0.14-2.91 0.18-7.32 0.44-8.46 0.69-0.1 0.03-0.22 0.04-0.33 0.04-0.89 0-1.75-0.7-1.91-1.55-0.1-0.53-0.04-1.86 2.6-2.9 0.66-0.26 1.38-0.56 2.14-0.88 3.77-1.58 8.47-3.54 12.97-3.54 0.67 0 1.31 0.05 1.93 0.13 5.84 0.84 12.66 4.43 12.72 4.47l0.13 0.07 0 9.24z" style="fill:none;stroke-linecap:round;stroke-linejoin:round;stroke-miterlimit:10;stroke-width:0.3;stroke:#373535"/></g></g></g></svg>