<svg xmlns:svg="http://www.w3.org/2000/svg" xmlns="http://www.w3.org/2000/svg" version="1.1" width="64" height="64" viewBox="0 0 64 64"><style>.s0{fill:#373535;}.s1{fill:none;stroke-width:0.5;stroke:#333433;}</style><defs><clipPath><path d="m0 66 66 0L66 0 0 0 0 66z"/></clipPath><clipPath><path d="m0 66 66 0L66 0 0 0 0 66z"/></clipPath></defs><g transform="matrix(0.96980277,0,0,-0.96980277,-1.9396055e-4,64.000097)"><g clip-path="url(#clipPath3177)"><g transform="translate(28.7754,42.7012)"><path d="M0 0C0.5 0 0.9-0.1 1.2-0.2 1.6-0.3 1.9-0.5 2.1-0.7 2.4-1 2.6-1.2 2.7-1.5 2.9-1.8 2.9-2.2 2.9-2.5 2.9-2.8 2.9-3.1 2.8-3.3 2.8-3.6 2.7-3.8 2.5-4 2.4-4.1 2.2-4.3 2-4.4 1.9-4.5 1.6-4.6 1.4-4.7 2-4.9 2.4-5.2 2.7-5.5 3-5.9 3.1-6.4 3.1-7 3.1-7.5 3-7.9 2.9-8.3 2.7-8.6 2.4-8.9 2.1-9.2 1.8-9.5 1.5-9.6 1.1-9.8 0.7-9.9 0.2-10-0.2-10c-0.5 0-0.9 0.1-1.3 0.2-0.4 0.1-0.7 0.3-1 0.5-0.3 0.2-0.5 0.5-0.7 0.8-0.2 0.3-0.3 0.7-0.5 1.1l0.7 0.3c0.1 0.1 0.3 0.1 0.4 0.1 0.1 0 0.2 0 0.3-0.1 0.1 0 0.2-0.1 0.2-0.2 0.1-0.2 0.2-0.3 0.3-0.5 0.1-0.2 0.2-0.3 0.3-0.4 0.1-0.1 0.3-0.2 0.5-0.3 0.2-0.1 0.4-0.1 0.7-0.1 0.3 0 0.5 0 0.7 0.1 0.2 0.1 0.4 0.2 0.5 0.4 0.1 0.1 0.2 0.3 0.3 0.5 0.1 0.2 0.1 0.4 0.1 0.5 0 0.2 0 0.4-0.1 0.6 0 0.2-0.2 0.4-0.3 0.5-0.2 0.1-0.4 0.2-0.7 0.3-0.3 0.1-0.7 0.1-1.2 0.1l0 1.2c0.4 0 0.8 0 1 0.1 0.3 0.1 0.5 0.2 0.6 0.3 0.2 0.1 0.3 0.3 0.3 0.5 0.1 0.2 0.1 0.4 0.1 0.6 0 0.5-0.1 0.8-0.4 1.1-0.3 0.2-0.6 0.4-1 0.4-0.4 0-0.7-0.1-1-0.3-0.3-0.2-0.4-0.5-0.5-0.8-0.1-0.2-0.1-0.3-0.2-0.4-0.1-0.1-0.2-0.1-0.4-0.1-0.1 0-0.1 0-0.2 0l-0.9 0.2c0.1 0.5 0.2 0.9 0.4 1.2 0.2 0.4 0.4 0.6 0.7 0.9 0.3 0.2 0.6 0.4 1 0.5C-0.8-0.1-0.4 0 0 0" fill="#373535"/></g><g transform="translate(38.1553,37.7148)"><path d="M0 0C0 0.7-0.1 1.3-0.2 1.8-0.3 2.2-0.4 2.6-0.6 2.9-0.7 3.1-0.9 3.3-1.2 3.4-1.4 3.5-1.6 3.6-1.9 3.6-2.1 3.6-2.3 3.5-2.6 3.4-2.8 3.3-3 3.1-3.2 2.9-3.3 2.6-3.5 2.2-3.6 1.8-3.7 1.3-3.7 0.7-3.7 0c0-0.7 0.1-1.3 0.2-1.8 0.1-0.5 0.2-0.8 0.4-1.1 0.2-0.3 0.4-0.5 0.6-0.6 0.2-0.1 0.5-0.2 0.7-0.2 0.2 0 0.5 0.1 0.7 0.2 0.2 0.1 0.4 0.3 0.6 0.6 0.2 0.3 0.3 0.6 0.4 1.1C-0.1-1.3 0-0.7 0 0M1.7 0C1.7-0.9 1.6-1.6 1.4-2.2 1.3-2.8 1-3.4 0.7-3.8 0.4-4.2 0-4.5-0.4-4.7c-0.4-0.2-0.9-0.3-1.4-0.3-0.5 0-1 0.1-1.4 0.3-0.4 0.2-0.8 0.5-1.1 0.9-0.3 0.4-0.6 0.9-0.7 1.6-0.2 0.6-0.3 1.4-0.3 2.2 0 0.9 0.1 1.6 0.3 2.2 0.2 0.6 0.4 1.1 0.7 1.6 0.3 0.4 0.7 0.7 1.1 0.9 0.4 0.2 0.9 0.3 1.4 0.3 0.5 0 1-0.1 1.4-0.3C0 4.5 0.4 4.2 0.7 3.8 1 3.4 1.3 2.8 1.4 2.2 1.6 1.6 1.7 0.9 1.7 0" fill="#373535"/></g><g transform="translate(29.667,26.9238)"><path d="M0 0C0 0.3 0 0.5-0.1 0.7-0.2 0.9-0.3 1.1-0.4 1.3-0.5 1.4-0.7 1.5-0.9 1.6-1.1 1.7-1.3 1.7-1.5 1.7l-0.9 0 0-3.4 0.9 0c0.2 0 0.5 0 0.6 0.1 0.2 0.1 0.4 0.2 0.5 0.3 0.1 0.1 0.2 0.3 0.3 0.5C0-0.5 0-0.3 0 0M0.9 0C0.9-0.4 0.9-0.7 0.7-1 0.6-1.3 0.5-1.5 0.2-1.8 0-2-0.2-2.1-0.5-2.3-0.8-2.4-1.2-2.4-1.5-2.4l-1.9 0 0 4.9 1.9 0c0.4 0 0.7-0.1 1-0.2C-0.2 2.1 0 2 0.2 1.8 0.5 1.5 0.6 1.3 0.7 1 0.9 0.7 0.9 0.4 0.9 0" fill="#373535"/></g><g transform="translate(32.5586,29.3574)"><path d="m0 0c0 0 0.1 0 0.1 0 0 0 0 0 0.1 0 0 0 0 0 0.1-0.1l2.6-3.3c0 0.1 0 0.2 0 0.2 0 0.1 0 0.1 0 0.2l0 3 0.8 0 0-4.9-0.5 0c-0.1 0-0.1 0-0.2 0 0 0-0.1 0.1-0.1 0.1L0.2-1.5c0-0.1 0-0.1 0-0.2 0-0.1 0-0.1 0-0.2l0-3-0.8 0 0 4.9 0.5 0C-0.1 0 0 0 0 0" fill="#373535"/></g><path d="m38.8 24.5-0.9 0 0 4.9 0.9 0 0-4.9z" fill="#373535"/><g transform="translate(32.6602,48.3936)"><path d="m0 0c4.3 0 8.2-1.8 11-4.6l-2.6 0 0-0.6 3.7 0 0 3.7-0.6 0 0-2.8C8.6-1.3 4.5 0.6 0 0.6c-8.9 0-16.1-7.2-16.1-16.1 0-1.6 0.2-3.2 0.7-4.6l0.5 0.3c-0.4 1.4-0.6 2.9-0.6 4.4C-15.6-7-8.6 0 0 0z" class="s1"/></g><g transform="translate(46.8965,40.3838)"><path d="m0 0-0.5-0.3c1.1-2.2 1.8-4.6 1.8-7.2 0-8.6-7-15.6-15.6-15.6-5.4 0-10.1 2.8-12.9 7l2.6-0.1 0 0.6-3.7 0.2-0.2-3.7 0.6 0 0.1 2.9c2.9-4.4 7.8-7.3 13.5-7.3 8.9 0 16.1 7.2 16.1 16.1C1.9-4.8 1.2-2.3 0 0z" class="s1"/></g><g transform="matrix(0.60529636,0,0,0.60529636,65.674855,32.988752)"><path d="m0 0c0-29.8-24.2-54-54-54-29.8 0-54 24.2-54 54 0 29.8 24.2 54 54 54C-24.2 54 0 29.8 0 0z" style="fill:none;stroke:#9d8852"/></g></g></g></svg>
