<svg xmlns:svg="http://www.w3.org/2000/svg" xmlns="http://www.w3.org/2000/svg" version="1.1" width="64" height="64" viewBox="0 0 64 64"><style>.s0{fill:none;stroke:#333433;}</style><defs><clipPath><path d="m0 66 66 0L66 0 0 0 0 66z"/></clipPath><clipPath><path d="m0 66 66 0L66 0 0 0 0 66z"/></clipPath><clipPath><path d="m0 66 66 0L66 0 0 0 0 66z"/></clipPath><clipPath><path d="m0 66 66 0L66 0 0 0 0 66z"/></clipPath><clipPath><path d="m0 66 66 0L66 0 0 0 0 66z"/></clipPath></defs><g transform="matrix(0.96980277,0,0,-0.96980277,-1.9396055e-4,64.000097)"><g clip-path="url(#clipPath3581)"><g transform="translate(45.6328,33.5186)"><path d="m0 0-4.4 4-1.3 0 0-7.7 5.7 0L0 0z" class="s0"/></g><g transform="translate(42.5625,40.8809)"><path d="m0 0-5 0 0-9c0-1.1-0.9-2-2-2l-15.2 0 0-4.4c0-1.1 0.9-2 2-2l1.9 0c0 0 0 0.1 0 0.1 0 2.1 1.7 3.8 3.8 3.8 2.1 0 3.8-1.7 3.8-3.8 0 0 0-0.1 0-0.1l5.8 0c0 0 0 0.1 0 0.1 0 2.1 1.7 3.8 3.8 3.8 2.1 0 3.8-1.7 3.8-3.8 0 0 0-0.1 0-0.1l1.6 0c1.1 0 2 0.9 2 2l0 8.7L0 0z" class="s0"/></g><g transform="translate(31.7871,23.5596)"><path d="m0 0c0-2.1-1.7-3.8-3.8-3.8-2.1 0-3.8 1.7-3.8 3.8 0 2.1 1.7 3.8 3.8 3.8C-1.7 3.8 0 2.1 0 0z" class="s0"/></g><g transform="translate(45.0889,23.5596)"><path d="m0 0c0-2.1-1.7-3.8-3.8-3.8-2.1 0-3.8 1.7-3.8 3.8 0 2.1 1.7 3.8 3.8 3.8C-1.7 3.8 0 2.1 0 0z" class="s0"/></g><g transform="translate(37.5615,31.8428)"><path d="m0 0c0-1.1-0.9-2-2-2l-16.1 0c-1.1 0-2 0.9-2 2l0 11.3c0 1.1 0.9 2 2 2l16.1 0C-0.9 13.3 0 12.4 0 11.3L0 0z" class="s0"/></g><g transform="matrix(0.60529636,0,0,0.60529636,65.674855,32.988752)"><path d="m0 0c0-29.8-24.2-54-54-54-29.8 0-54 24.2-54 54 0 29.8 24.2 54 54 54C-24.2 54 0 29.8 0 0z" style="fill:none;stroke:#9d8852"/></g></g></g></svg>
