<?xml version="1.0" encoding="UTF-8" standalone="no"?>
<!-- Created with Inkscape (http://www.inkscape.org/) -->

<svg
   xmlns:dc="http://purl.org/dc/elements/1.1/"
   xmlns:cc="http://creativecommons.org/ns#"
   xmlns:rdf="http://www.w3.org/1999/02/22-rdf-syntax-ns#"
   xmlns:svg="http://www.w3.org/2000/svg"
   xmlns="http://www.w3.org/2000/svg"
   version="1.1"
   width="64"
   height="64"
   id="svg3054"
   viewBox="0 0 64 64">
  <defs
     id="defs3056">
    <clipPath
       id="clipPath3018">
      <path
         d="m 0,65.993 65.993,0 L 65.993,0 0,0 0,65.993 z"
         id="path3020" />
    </clipPath>
    <clipPath
       id="clipPath3177">
      <path
         d="m 0,65.993 65.993,0 L 65.993,0 0,0 0,65.993 z"
         id="path3179" />
    </clipPath>
    <clipPath
       id="clipPath3335">
      <path
         d="m 0,65.993 65.993,0 L 65.993,0 0,0 0,65.993 z"
         id="path3337" />
    </clipPath>
    <clipPath
       id="clipPath3468">
      <path
         d="m 0,65.993 65.993,0 L 65.993,0 0,0 0,65.993 z"
         id="path3470" />
    </clipPath>
    <clipPath
       id="clipPath3581">
      <path
         d="m 0,65.993 65.993,0 L 65.993,0 0,0 0,65.993 z"
         id="path3583" />
    </clipPath>
  </defs>
  <metadata
     id="metadata3059">
    <rdf:RDF>
      <cc:Work
         rdf:about="">
        <dc:format>image/svg+xml</dc:format>
        <dc:type
           rdf:resource="http://purl.org/dc/dcmitype/StillImage" />
        <dc:title></dc:title>
      </cc:Work>
    </rdf:RDF>
  </metadata>
  <g
     id="layer1">
    <g
       transform="matrix(0.96980277,0,0,-0.96980277,-1.9396055e-4,64.000097)"
       id="g3577">
      <g
         clip-path="url(#clipPath3581)"
         id="g3579">
        <g
           transform="translate(65.4932,32.9971)"
           id="g3585">
          <path
             d="m 0,0 c 0,-17.948 -14.549,-32.497 -32.497,-32.497 -17.947,0 -32.496,14.549 -32.496,32.497 0,17.947 14.549,32.496 32.496,32.496 C -14.549,32.496 0,17.947 0,0 z"
             id="path3587"
             style="fill:none;stroke:#9d8852;stroke-width:1;stroke-linecap:butt;stroke-linejoin:miter;stroke-miterlimit:10;stroke-opacity:1;stroke-dasharray:none" />
        </g>
        <g
           transform="translate(45.6328,33.5186)"
           id="g3589">
          <path
             d="m 0,0 -4.371,3.992 -1.317,0 0,-7.677 5.688,0 L 0,0 z"
             id="path3591"
             style="fill:none;stroke:#333433;stroke-width:1;stroke-linecap:butt;stroke-linejoin:miter;stroke-miterlimit:10;stroke-opacity:1;stroke-dasharray:none" />
        </g>
        <g
           transform="translate(42.5625,40.8809)"
           id="g3593">
          <path
             d="m 0,0 -5.001,0 0,-9.038 c 0,-1.108 -0.901,-2.009 -2.01,-2.009 l -15.188,0 0,-4.392 c 0,-1.109 0.901,-2.008 2.01,-2.008 l 1.895,0 c -0.002,0.042 -0.012,0.082 -0.012,0.126 0,2.078 1.684,3.765 3.763,3.765 2.083,0 3.768,-1.687 3.768,-3.765 0,-0.044 -0.013,-0.084 -0.013,-0.126 l 5.799,0 c -0.002,0.042 -0.012,0.082 -0.012,0.126 0,2.078 1.685,3.765 3.763,3.765 2.08,0 3.764,-1.687 3.764,-3.765 0,-0.044 -0.01,-0.084 -0.012,-0.126 l 1.645,0 c 1.108,0 2.007,0.899 2.007,2.008 l 0,8.721 L 0,0 z"
             id="path3595"
             style="fill:none;stroke:#333433;stroke-width:1;stroke-linecap:butt;stroke-linejoin:miter;stroke-miterlimit:10;stroke-opacity:1;stroke-dasharray:none" />
        </g>
        <g
           transform="translate(31.7871,23.5596)"
           id="g3597">
          <path
             d="m 0,0 c 0,-2.079 -1.685,-3.766 -3.768,-3.766 -2.079,0 -3.762,1.687 -3.762,3.766 0,2.078 1.683,3.766 3.762,3.766 C -1.685,3.766 0,2.078 0,0 z"
             id="path3599"
             style="fill:none;stroke:#333433;stroke-width:1;stroke-linecap:butt;stroke-linejoin:miter;stroke-miterlimit:10;stroke-opacity:1;stroke-dasharray:none" />
        </g>
        <g
           transform="translate(45.0889,23.5596)"
           id="g3601">
          <path
             d="m 0,0 c 0,-2.079 -1.685,-3.766 -3.765,-3.766 -2.078,0 -3.762,1.687 -3.762,3.766 0,2.078 1.684,3.766 3.762,3.766 C -1.685,3.766 0,2.078 0,0 z"
             id="path3603"
             style="fill:none;stroke:#333433;stroke-width:1;stroke-linecap:butt;stroke-linejoin:miter;stroke-miterlimit:10;stroke-opacity:1;stroke-dasharray:none" />
        </g>
        <g
           transform="translate(37.5615,31.8428)"
           id="g3605">
          <path
             d="m 0,0 c 0,-1.108 -0.901,-2.009 -2.01,-2.009 l -16.064,0 c -1.112,0 -2.009,0.901 -2.009,2.009 l 0,11.296 c 0,1.107 0.897,2.009 2.009,2.009 l 16.064,0 C -0.901,13.305 0,12.403 0,11.296 L 0,0 z"
             id="path3607"
             style="fill:none;stroke:#333433;stroke-width:1;stroke-linecap:butt;stroke-linejoin:miter;stroke-miterlimit:10;stroke-opacity:1;stroke-dasharray:none" />
        </g>
      </g>
    </g>
  </g>
</svg>
