<svg xmlns:svg="http://www.w3.org/2000/svg" xmlns="http://www.w3.org/2000/svg" version="1.1" width="64" height="64" viewBox="0 0 64 64"><style>.s0{fill:none;stroke:#333433;}</style><defs><clipPath><path d="m0 109 109 0L109 0 0 0 0 109z"/></clipPath></defs><g transform="matrix(0.58701648,0,0,-0.58701648,0,64)"><g clip-path="url(#clipPath16)"><g transform="translate(62.7212,75.4238)"><path d="m0 0c-5.6 0.6-13.5-5.7-14.7-6.7-1.2 1-9 7.3-14.7 6.7-1.4-0.2-15.6-1.5-12.3-17.9 2.5-12.8 17.7-23.4 24.2-27.4 1.6-1.1 2.6-1.7 2.6-1.7 0 0 0.1 0 0.2 0.1 0.1-0.1 0.2-0.1 0.2-0.1 0 0 1 0.6 2.6 1.7 2.9 1.8 7.5 4.9 12 8.9 0.5 0.4 1.1 0.9 1.6 1.3 0 0-0.1 0-0.1 0 5 4.8 9.4 10.6 10.7 17.1C15.6-1.5 1.4-0.2 0 0z" class="s0"/></g><g transform="translate(108.5259,54.5137)"><path d="m0 0c0-29.8-24.2-54-54-54-29.8 0-54 24.2-54 54 0 29.8 24.2 54 54 54C-24.2 54 0 29.8 0 0z" style="fill:none;stroke:#9d8852"/></g><g transform="translate(90.2183,47.916)"><path d="m0 0c0-8.9-7.2-16.1-16.1-16.1-8.9 0-16.1 7.2-16.1 16.1 0 8.9 7.2 16.1 16.1 16.1C-7.2 16.1 0 8.9 0 0" fill="#fff"/></g><g transform="translate(73.9053,61.3076)"><path d="m0 0c-7.4 0-13.4-6-13.4-13.4 0-7.4 6-13.4 13.4-13.4 7.4 0 13.4 6 13.4 13.4C13.4-6 7.4 0 0 0z" class="s0"/></g><g transform="translate(68.418,49.0938)"><path d="m0 0c1.2-0.9 2.4-1.8 3.9-2.9 2.3 2.6 4.7 5.3 7 7.9C11.5 4.5 12.1 4.1 12.6 3.6 10.1 0.1 7.6-3.5 4.6-7.7 2.2-5.4 0.3-3.5-1.7-1.5-1.1-1-0.6-0.5 0 0" fill="#333433"/></g></g></g></svg>
