<?xml version="1.0" encoding="UTF-8" standalone="no"?>
<!-- Created with Inkscape (http://www.inkscape.org/) -->

<svg
   xmlns:dc="http://purl.org/dc/elements/1.1/"
   xmlns:cc="http://creativecommons.org/ns#"
   xmlns:rdf="http://www.w3.org/1999/02/22-rdf-syntax-ns#"
   xmlns:svg="http://www.w3.org/2000/svg"
   xmlns="http://www.w3.org/2000/svg"
   xmlns:sodipodi="http://sodipodi.sourceforge.net/DTD/sodipodi-0.dtd"
   xmlns:inkscape="http://www.inkscape.org/namespaces/inkscape"
   width="64px"
   height="64px"
   id="svg3060"
   version="1.1"
   inkscape:version="0.48.5 r10040"
   sodipodi:docname="cart.svg">
  <defs
     id="defs3062" />
  <sodipodi:namedview
     id="base"
     pagecolor="#ffffff"
     bordercolor="#666666"
     borderopacity="1.0"
     inkscape:pageopacity="0.0"
     inkscape:pageshadow="2"
     inkscape:zoom="5.6568542"
     inkscape:cx="37.264237"
     inkscape:cy="42.299106"
     inkscape:current-layer="layer1"
     showgrid="true"
     inkscape:document-units="px"
     inkscape:grid-bbox="true"
     inkscape:window-width="1920"
     inkscape:window-height="1017"
     inkscape:window-x="0"
     inkscape:window-y="147"
     inkscape:window-maximized="1" />
  <metadata
     id="metadata3065">
    <rdf:RDF>
      <cc:Work
         rdf:about="">
        <dc:format>image/svg+xml</dc:format>
        <dc:type
           rdf:resource="http://purl.org/dc/dcmitype/StillImage" />
        <dc:title />
      </cc:Work>
    </rdf:RDF>
  </metadata>
  <g
     id="layer1"
     inkscape:label="Layer 1"
     inkscape:groupmode="layer">
    <path
       inkscape:connector-curvature="0"
       d="M 55.200001,14.99294 H 46.109144 C 45.958506,14.41784 45.782733,13.83098 45.576673,13.23404 44.538149,10.24543 42.836977,7.06819 40.610261,4.54271 39.492957,3.28081 38.242572,2.17794 36.818672,1.35732 35.401538,0.54019 33.76755,0 32,0 c -1.174178,-5.2e-4 -2.301794,0.24036 -3.332743,0.6422 -1.807345,0.70775 -3.349824,1.88018 -4.70799,3.28326 -2.030967,2.10929 -3.653679,4.77208 -4.8024,7.42375 -0.532634,1.23811 -0.960867,2.46794 -1.26859,3.64386 H 8.7999991 L 3,64 H 61 L 55.200001,14.99294 z M 18.95,22.10909 c -0.278561,0 -0.537627,-0.0641 -0.75851,-0.17338 -0.41438,-0.2048 -0.691491,-0.57108 -0.691491,-0.99025 0,-0.12128 0.02336,-0.23829 0.06622,-0.34819 0.184469,-0.47256 0.734181,-0.81545 1.38378,-0.81545 0.800884,0 1.45,0.52092 1.45,1.16364 0,0.64271 -0.649116,1.16363 -1.45,1.16363 z m 2.237673,-7.11615 c 0.101656,-0.35012 0.214761,-0.70633 0.339783,-1.06654 0.942982,-2.7339 2.551518,-5.70001 4.490167,-7.88764 0.9657,-1.09485 2.011634,-1.99034 3.039844,-2.57965 C 30.092122,2.8663 31.064751,2.58612 32,2.58586 c 0.627851,7.3e-4 1.258761,0.12425 1.927211,0.38322 1.165639,0.44891 2.412961,1.33987 3.565711,2.53944 1.735972,1.79459 3.254928,4.24935 4.306017,6.68807 0.410833,0.94642 0.749972,1.89324 1.011938,2.79635 H 21.187673 z m 24.6239,6.94135 c -0.221368,0.11015 -0.481885,0.1748 -0.761573,0.1748 -0.800883,0 -1.45,-0.52092 -1.45,-1.16363 0,-0.64272 0.649117,-1.16364 1.45,-1.16364 0.648151,0 1.196733,0.34133 1.382333,0.81222 0.04366,0.1108 0.06766,0.22885 0.06766,0.35142 0,0.41813 -0.275822,0.78377 -0.688427,0.98883 z"
       id="path3342"
       style="fill:#ffffff" />
  </g>
</svg>
