<svg xmlns:svg="http://www.w3.org/2000/svg" xmlns="http://www.w3.org/2000/svg" width="64" height="64" version="1.1" viewBox="0 0 64 64"><path d="M55.2 15H46.1C46 14.4 45.8 13.8 45.6 13.2 44.5 10.2 42.8 7.1 40.6 4.5 39.5 3.3 38.2 2.2 36.8 1.4 35.4 0.5 33.8 0 32 0c-1.2 0-2.3 0.2-3.3 0.6-1.8 0.7-3.3 1.9-4.7 3.3-2 2.1-3.7 4.8-4.8 7.4-0.5 1.2-1 2.5-1.3 3.6H8.8L3 64H61L55.2 15zM19 22.1c-0.3 0-0.5-0.1-0.8-0.2-0.4-0.2-0.7-0.6-0.7-1 0-0.1 0-0.2 0.1-0.3 0.2-0.5 0.7-0.8 1.4-0.8 0.8 0 1.5 0.5 1.5 1.2 0 0.6-0.6 1.2-1.4 1.2zm2.2-7.1c0.1-0.4 0.2-0.7 0.3-1.1 0.9-2.7 2.6-5.7 4.5-7.9 1-1.1 2-2 3-2.6C30.1 2.9 31.1 2.6 32 2.6c0.6 0 1.3 0.1 1.9 0.4 1.2 0.4 2.4 1.3 3.6 2.5 1.7 1.8 3.3 4.2 4.3 6.7 0.4 0.9 0.7 1.9 1 2.8H21.2zm24.6 6.9c-0.2 0.1-0.5 0.2-0.8 0.2-0.8 0-1.4-0.5-1.4-1.2 0-0.6 0.6-1.2 1.5-1.2 0.6 0 1.2 0.3 1.4 0.8 0 0.1 0.1 0.2 0.1 0.4 0 0.4-0.3 0.8-0.7 1z" fill="#fff"/></svg>