<?xml version="1.0" encoding="UTF-8" standalone="no"?>
<!-- Created with Inkscape (http://www.inkscape.org/) -->

<svg
   xmlns:dc="http://purl.org/dc/elements/1.1/"
   xmlns:cc="http://creativecommons.org/ns#"
   xmlns:rdf="http://www.w3.org/1999/02/22-rdf-syntax-ns#"
   xmlns:svg="http://www.w3.org/2000/svg"
   xmlns="http://www.w3.org/2000/svg"
   xmlns:sodipodi="http://sodipodi.sourceforge.net/DTD/sodipodi-0.dtd"
   xmlns:inkscape="http://www.inkscape.org/namespaces/inkscape"
   width="64px"
   height="64px"
   id="svg3021"
   version="1.1"
   inkscape:version="0.48.5 r10040"
   sodipodi:docname="categories.svg"
   viewBox="0 0 64 64">
  <defs
     id="defs3023" />
  <sodipodi:namedview
     id="base"
     pagecolor="#ffffff"
     bordercolor="#666666"
     borderopacity="1.0"
     inkscape:pageopacity="0.0"
     inkscape:pageshadow="2"
     inkscape:zoom="5.5"
     inkscape:cx="32"
     inkscape:cy="32"
     inkscape:current-layer="g5"
     showgrid="true"
     inkscape:document-units="px"
     inkscape:grid-bbox="true"
     inkscape:window-width="1920"
     inkscape:window-height="1022"
     inkscape:window-x="0"
     inkscape:window-y="25"
     inkscape:window-maximized="1" />
  <metadata
     id="metadata3026">
    <rdf:RDF>
      <cc:Work
         rdf:about="">
        <dc:format>image/svg+xml</dc:format>
        <dc:type
           rdf:resource="http://purl.org/dc/dcmitype/StillImage" />
        <dc:title></dc:title>
      </cc:Work>
    </rdf:RDF>
  </metadata>
  <g
     id="layer1"
     inkscape:label="Layer 1"
     inkscape:groupmode="layer">
    <g
       transform="matrix(0.16310802,0,0,0.16310802,-0.00108554,0)"
       id="g3">
      <g
         id="g5">
        <g
           id="Layer_5_67_"
           style="fill:#ffffff">
          <path
             inkscape:connector-curvature="0"
             d="M 340.679,0 H 51.699 c -4.828,0 -8.776,3.948 -8.776,8.776 v 374.828 c 0,4.827 3.948,8.774 8.776,8.774 h 288.979 c 4.827,0 8.776,-3.947 8.776,-8.774 V 8.776 C 349.456,3.948 345.506,0 340.679,0 z M 88.312,334.186 c -9.323,0 -16.882,-7.559 -16.882,-16.883 0,-9.324 7.559,-16.883 16.882,-16.883 9.324,0 16.883,7.559 16.883,16.883 0,9.324 -7.559,16.883 -16.883,16.883 z m 0,-80.743 c -9.323,0 -16.882,-7.56 -16.882,-16.884 0,-9.323 7.559,-16.884 16.882,-16.884 9.324,0 16.883,7.561 16.883,16.884 -10e-4,9.327 -7.559,16.884 -16.883,16.884 z m 0,-80.742 c -9.323,0 -16.882,-7.559 -16.882,-16.882 0,-9.325 7.559,-16.884 16.882,-16.884 9.324,0 16.883,7.559 16.883,16.884 -10e-4,9.324 -7.559,16.882 -16.883,16.882 z m 0,-80.742 c -9.323,0 -16.882,-7.558 -16.882,-16.883 0,-9.324 7.559,-16.882 16.882,-16.882 9.324,0 16.883,7.558 16.883,16.882 -10e-4,9.325 -7.559,16.883 -16.883,16.883 z m 225.287,231.165 c 0,1.649 -1.35,3 -3,3 H 139.604 c -1.649,0 -3,-1.351 -3,-3 v -10.888 c 0,-1.648 1.351,-3 3,-3 h 170.995 c 1.65,0 3,1.352 3,3 l 0,10.888 0,0 z m 0,-81 c 0,1.649 -1.35,3 -3,3 H 139.604 c -1.649,0 -3,-1.351 -3,-3 v -10.888 c 0,-1.648 1.351,-3 3,-3 h 170.995 c 1.65,0 3,1.352 3,3 l 0,10.888 0,0 z m 0,-81 c 0,1.649 -1.35,3 -3,3 H 139.604 c -1.649,0 -3,-1.351 -3,-3 v -10.887 c 0,-1.649 1.351,-3 3,-3 h 170.995 c 1.65,0 3,1.351 3,3 l 0,10.887 0,0 z m 0,-81 c 0,1.649 -1.35,3 -3,3 H 139.604 c -1.649,0 -3,-1.351 -3,-3 V 69.237 c 0,-1.649 1.351,-3 3,-3 h 170.995 c 1.65,0 3,1.351 3,3 l 0,10.887 0,0 z"
             id="path8"
             style="fill:#ffffff" />
        </g>
      </g>
    </g>
  </g>
</svg>
