<svg xmlns:svg="http://www.w3.org/2000/svg" xmlns="http://www.w3.org/2000/svg" width="64" height="64" version="1.1" viewBox="0 0 64 64"><style>.s0{fill:#fff;}</style><g transform="matrix(0.16310802,0,0,0.16310802,-0.00108554,0)"><path d="M340.7 0H51.7c-4.8 0-8.8 3.9-8.8 8.8v374.8c0 4.8 3.9 8.8 8.8 8.8h289c4.8 0 8.8-3.9 8.8-8.8V8.8C349.5 3.9 345.5 0 340.7 0zM88.3 334.2c-9.3 0-16.9-7.6-16.9-16.9 0-9.3 7.6-16.9 16.9-16.9 9.3 0 16.9 7.6 16.9 16.9 0 9.3-7.6 16.9-16.9 16.9zm0-80.7c-9.3 0-16.9-7.6-16.9-16.9 0-9.3 7.6-16.9 16.9-16.9 9.3 0 16.9 7.6 16.9 16.9 0 9.3-7.6 16.9-16.9 16.9zm0-80.7c-9.3 0-16.9-7.6-16.9-16.9 0-9.3 7.6-16.9 16.9-16.9 9.3 0 16.9 7.6 16.9 16.9 0 9.3-7.6 16.9-16.9 16.9zm0-80.7c-9.3 0-16.9-7.6-16.9-16.9 0-9.3 7.6-16.9 16.9-16.9 9.3 0 16.9 7.6 16.9 16.9 0 9.3-7.6 16.9-16.9 16.9zm225.3 231.2c0 1.6-1.3 3-3 3H139.6c-1.6 0-3-1.4-3-3v-10.9c0-1.6 1.4-3 3-3h171c1.7 0 3 1.4 3 3l0 10.9 0 0zm0-81c0 1.6-1.3 3-3 3H139.6c-1.6 0-3-1.4-3-3v-10.9c0-1.6 1.4-3 3-3h171c1.7 0 3 1.4 3 3l0 10.9 0 0zm0-81c0 1.6-1.3 3-3 3H139.6c-1.6 0-3-1.4-3-3v-10.9c0-1.6 1.4-3 3-3h171c1.7 0 3 1.4 3 3l0 10.9 0 0zm0-81c0 1.6-1.3 3-3 3H139.6c-1.6 0-3-1.4-3-3V69.2c0-1.6 1.4-3 3-3h171c1.7 0 3 1.4 3 3l0 10.9 0 0z" fill="#fff"/></g></svg>