<svg xmlns:svg="http://www.w3.org/2000/svg" xmlns="http://www.w3.org/2000/svg" version="1.1" width="64" height="64" viewBox="0 0 64 64"><defs><clipPath><path d="m0 109 109 0L109 0 0 0 0 109z"/></clipPath><clipPath><path d="m0 109 109 0L109 0 0 0 0 109z"/></clipPath><clipPath><path d="m0 109 109 0L109 0 0 0 0 109z"/></clipPath><clipPath><path d="m0 109 109 0L109 0 0 0 0 109z"/></clipPath><clipPath><path d="m0 109 109 0L109 0 0 0 0 109z"/></clipPath></defs><g transform="matrix(0.58701648,0,0,-0.58701648,0,64)"><g clip-path="url(#clipPath3121)"><g transform="translate(48.708,36.0889)"><path d="M0 0C0 0.7 0.1 1.3 0.4 1.9 0.6 2.5 1 3 1.4 3.4 1.8 3.9 2.4 4.2 3 4.5 3.6 4.7 4.2 4.8 4.9 4.8 5.5 4.8 6.2 4.7 6.8 4.5 7.4 4.2 7.9 3.9 8.3 3.4 8.7 3 9.1 2.5 9.3 1.9 9.6 1.3 9.7 0.7 9.7 0 9.7-0.7 9.6-1.3 9.3-1.9 9.1-2.5 8.7-3 8.3-3.4 7.9-3.9 7.4-4.2 6.8-4.4 6.2-4.7 5.5-4.8 4.9-4.8c-0.7 0-1.3 0.1-1.9 0.4-0.6 0.2-1.1 0.6-1.6 1C1-3 0.6-2.5 0.4-1.9 0.1-1.3 0-0.7 0 0zm-6.1 37.8c0.7 0.6 1.5 1.3 2.4 1.8 0.9 0.6 1.8 1.1 2.8 1.5 1 0.4 2.1 0.8 3.3 1 1.2 0.2 2.4 0.4 3.8 0.4 1.9 0 3.6-0.3 5.1-0.8 1.5-0.5 2.8-1.2 3.9-2.2 1.1-1 1.9-2.1 2.5-3.4 0.6-1.3 0.9-2.9 0.9-4.5 0-1.6-0.2-3-0.7-4.2-0.5-1.2-1.1-2.2-1.8-3.1C15.5 23.4 14.7 22.7 13.9 22 13 21.4 12.2 20.8 11.5 20.2 10.7 19.6 10.1 19.1 9.5 18.5 9 18 8.7 17.4 8.6 16.7l-0.7-4.7-5.4 0-0.5 5.2C1.8 17.3 1.8 17.4 1.8 17.5l0 0.3c0 0.9 0.2 1.8 0.7 2.5 0.5 0.7 1.1 1.3 1.8 2 0.7 0.6 1.5 1.2 2.3 1.8 0.8 0.6 1.6 1.2 2.3 1.9 0.7 0.7 1.3 1.4 1.8 2.3 0.5 0.9 0.7 1.9 0.7 3 0 0.8-0.1 1.5-0.4 2.1-0.3 0.6-0.7 1.1-1.2 1.6-0.5 0.4-1.1 0.8-1.8 1-0.7 0.2-1.5 0.4-2.3 0.4-1.2 0-2.3-0.1-3.1-0.4-0.8-0.3-1.6-0.6-2.1-0.9-0.6-0.3-1.1-0.6-1.5-0.9-0.4-0.3-0.8-0.4-1.1-0.4-0.8 0-1.3 0.3-1.7 1l-2.1 3.3z" style="fill:none;stroke:#373535"/></g><g transform="translate(108.5259,54.5137)"><path d="m0 0c0-29.8-24.2-54-54-54-29.8 0-54 24.2-54 54 0 29.8 24.2 54 54 54C-24.2 54 0 29.8 0 0z" style="fill:none;stroke:#9d8852"/></g></g></g></svg>