<?xml version="1.0" encoding="UTF-8" standalone="no"?>
<!-- Created with Inkscape (http://www.inkscape.org/) -->

<svg
   xmlns:dc="http://purl.org/dc/elements/1.1/"
   xmlns:cc="http://creativecommons.org/ns#"
   xmlns:rdf="http://www.w3.org/1999/02/22-rdf-syntax-ns#"
   xmlns:svg="http://www.w3.org/2000/svg"
   xmlns="http://www.w3.org/2000/svg"
   xmlns:sodipodi="http://sodipodi.sourceforge.net/DTD/sodipodi-0.dtd"
   xmlns:inkscape="http://www.inkscape.org/namespaces/inkscape"
   width="64px"
   height="64px"
   id="svg3033"
   version="1.1"
   inkscape:version="0.48.5 r10040"
   sodipodi:docname="help.svg"
   viewBox="0 0 64 64">
  <defs
     id="defs3035" />
  <sodipodi:namedview
     id="base"
     pagecolor="#ffffff"
     bordercolor="#666666"
     borderopacity="1.0"
     inkscape:pageopacity="0.0"
     inkscape:pageshadow="2"
     inkscape:zoom="5.5"
     inkscape:cx="32"
     inkscape:cy="32"
     inkscape:current-layer="layer1"
     showgrid="true"
     inkscape:document-units="px"
     inkscape:grid-bbox="true"
     inkscape:window-width="1384"
     inkscape:window-height="784"
     inkscape:window-x="0"
     inkscape:window-y="58"
     inkscape:window-maximized="0" />
  <metadata
     id="metadata3038">
    <rdf:RDF>
      <cc:Work
         rdf:about="">
        <dc:format>image/svg+xml</dc:format>
        <dc:type
           rdf:resource="http://purl.org/dc/dcmitype/StillImage" />
        <dc:title></dc:title>
      </cc:Work>
    </rdf:RDF>
  </metadata>
  <g
     id="layer1"
     inkscape:label="Layer 1"
     inkscape:groupmode="layer">
    <g
       id="g3"
       transform="matrix(1.3913195,0,0,1.3913195,1.739222e-4,1.7256743e-4)"
       style="fill:#ffffff">
      <g
         id="g5"
         style="fill:#ffffff">
        <path
           d="m 39.264,6.736 c -8.982,-8.981 -23.545,-8.982 -32.528,0 -8.982,8.982 -8.981,23.545 0,32.528 8.982,8.98 23.545,8.981 32.528,0 8.981,-8.983 8.98,-23.545 0,-32.528 z M 25.999,33 c 0,1.657 -1.343,3 -3,3 -1.657,0 -3,-1.343 -3,-3 V 21 c 0,-1.657 1.343,-3 3,-3 1.657,0 3,1.343 3,3 V 33 z M 22.946,15.872 c -1.728,0 -2.88,-1.224 -2.844,-2.735 -0.036,-1.584 1.116,-2.771 2.879,-2.771 1.764,0 2.88,1.188 2.917,2.771 -0.001,1.511 -1.152,2.735 -2.952,2.735 z"
           id="path7"
           inkscape:connector-curvature="0"
           style="fill:#ffffff" />
      </g>
    </g>
  </g>
</svg>
