<?xml version="1.0" encoding="UTF-8" standalone="no"?>
<!-- Created with Inkscape (http://www.inkscape.org/) -->

<svg
   xmlns:dc="http://purl.org/dc/elements/1.1/"
   xmlns:cc="http://creativecommons.org/ns#"
   xmlns:rdf="http://www.w3.org/1999/02/22-rdf-syntax-ns#"
   xmlns:svg="http://www.w3.org/2000/svg"
   xmlns="http://www.w3.org/2000/svg"
   xmlns:sodipodi="http://sodipodi.sourceforge.net/DTD/sodipodi-0.dtd"
   xmlns:inkscape="http://www.inkscape.org/namespaces/inkscape"
   width="64px"
   height="64px"
   id="svg3018"
   version="1.1"
   inkscape:version="0.48.5 r10040"
   sodipodi:docname="label.svg"
   viewBox="0 0 64 64">
  <defs
     id="defs3020" />
  <sodipodi:namedview
     id="base"
     pagecolor="#ffffff"
     bordercolor="#666666"
     borderopacity="1.0"
     inkscape:pageopacity="0.0"
     inkscape:pageshadow="2"
     inkscape:zoom="5.5"
     inkscape:cx="32"
     inkscape:cy="32"
     inkscape:current-layer="layer1"
     showgrid="true"
     inkscape:document-units="px"
     inkscape:grid-bbox="true"
     inkscape:window-width="1920"
     inkscape:window-height="1022"
     inkscape:window-x="0"
     inkscape:window-y="25"
     inkscape:window-maximized="1" />
  <metadata
     id="metadata3023">
    <rdf:RDF>
      <cc:Work
         rdf:about="">
        <dc:format>image/svg+xml</dc:format>
        <dc:type
           rdf:resource="http://purl.org/dc/dcmitype/StillImage" />
        <dc:title></dc:title>
      </cc:Work>
    </rdf:RDF>
  </metadata>
  <g
     id="layer1"
     inkscape:label="Layer 1"
     inkscape:groupmode="layer">
    <g
       transform="matrix(0.11636052,0,0,0.11636052,1.8859804,0.22668645)"
       id="g3"
       style="fill:#ffffff">
      <path
         d="M 483.236,0 332.943,0 C 266.40397,0 266.903,15.94 247.42,35.424 L 14.612,268.231 c -40.951987,40.95181 -41.234636,29.61582 0,70.85 L 194.253,518.72 c 42.08186,38.12806 32.43837,38.41046 70.849,0 L 497.91,285.913 c 19.483,-19.484 35.424,-20.11592 35.424,-85.522 l 0,-150.293 C 533.89797,-8.5294269 540.16851,0 483.236,0 z m -66.569,166.667 c -27.614,0 -50,-22.385 -50,-50 0,-27.614 22.386,-50 50,-50 27.614,0 50,22.386 50,50 0,27.614 -22.386,50 -50,50 z"
         id="path5"
         inkscape:connector-curvature="0"
         sodipodi:nodetypes="sscsscscscssssss"
         style="fill:#ffffff" />
    </g>
  </g>
</svg>
