<?xml version="1.0" encoding="UTF-8" standalone="no"?>
<!-- Created with Inkscape (http://www.inkscape.org/) -->

<svg
   xmlns:dc="http://purl.org/dc/elements/1.1/"
   xmlns:cc="http://creativecommons.org/ns#"
   xmlns:rdf="http://www.w3.org/1999/02/22-rdf-syntax-ns#"
   xmlns:svg="http://www.w3.org/2000/svg"
   xmlns="http://www.w3.org/2000/svg"
   xmlns:sodipodi="http://sodipodi.sourceforge.net/DTD/sodipodi-0.dtd"
   xmlns:inkscape="http://www.inkscape.org/namespaces/inkscape"
   id="svg2"
   version="1.1"
   inkscape:version="0.48.5 r10040"
   width="312.5"
   height="100"
   xml:space="preserve"
   sodipodi:docname="logo_modago_outlines.eps"
   viewBox="0 0 312.5 100"
   ><metadata
     id="metadata8"><rdf:RDF><cc:Work
         rdf:about=""><dc:format>image/svg+xml</dc:format><dc:type
           rdf:resource="http://purl.org/dc/dcmitype/StillImage" /><dc:title></dc:title></cc:Work></rdf:RDF></metadata><defs
     id="defs6" /><sodipodi:namedview
     pagecolor="#ffffff"
     bordercolor="#666666"
     borderopacity="1"
     objecttolerance="10"
     gridtolerance="10"
     guidetolerance="10"
     inkscape:pageopacity="0"
     inkscape:pageshadow="2"
     inkscape:window-width="1920"
     inkscape:window-height="1017"
     id="namedview4"
     showgrid="false"
     inkscape:zoom="1.0432"
     inkscape:cx="158.16718"
     inkscape:cy="50"
     inkscape:window-x="0"
     inkscape:window-y="147"
     inkscape:window-maximized="1"
     inkscape:current-layer="g12" /><g
     id="g10"
     inkscape:groupmode="layer"
     inkscape:label="ink_ext_XXXXXX"
     transform="matrix(1.25,0,0,-1.25,0,100)"><g
       id="g12"
       transform="scale(0.1,0.1)"><path
         d="m 262.26149,439.83632 c 1.90663,-4.58976 3.80604,-9.13334 5.71123,-13.62641 1.72621,4.66771 3.54047,9.30222 5.4471,13.88621 1.89941,4.58255 3.98068,8.95293 6.22938,13.10826 l 126.15075,228.66419 c 2.06828,3.98069 4.36316,6.40547 6.87743,7.27291 2.50417,0.85733 6.00422,1.29754 10.50883,1.29754 l 37.11505,0 0,-371.94285 -44.12238,0 0,273.31194 c 0,3.63141 0.0852,7.52693 0.26557,11.67649 0.16887,4.15532 0.42723,8.39436 0.77218,12.71856 L 289.77555,383.63622 c -3.98068,-7.77374 -10.04119,-11.68081 -18.16566,-11.68081 l -7.2729,0 c -8.13601,0 -14.18498,3.90707 -18.17143,11.68081 L 115.87247,616.98111 c 0.52393,-4.50461 0.90641,-8.91252 1.17198,-13.23816 0.25403,-4.32419 0.3897,-8.30343 0.3897,-11.93484 l 0,-273.31194 -44.129598,0 0,371.94285 37.115048,0 c 4.49884,0 7.96137,-0.44021 10.38615,-1.29754 2.41757,-0.86744 4.75719,-3.29222 7.00733,-7.27291 l 128.4846,-228.92399 c 2.06828,-4.1611 4.05285,-8.52426 5.96381,-13.10826"
         style="fill:#ffffff;fill-opacity:1;fill-rule:nonzero;stroke:none"
         id="path16"
         inkscape:connector-curvature="0" /><path
         d="m 847.2922,504.33409 c 0,22.84058 -3.11181,43.35165 -9.34119,61.51731 -6.23082,18.16999 -15.05385,33.51684 -26.47054,46.06653 -11.42246,12.55114 -25.26969,22.19686 -41.53017,28.94007 -16.2648,6.75475 -34.43624,10.12635 -54.50709,10.12635 -19.90198,0 -37.98392,-3.3716 -54.24873,-10.12635 -16.26625,-6.74321 -30.15246,-16.38893 -41.65863,-28.94007 -11.50761,-12.54969 -20.37683,-27.89654 -26.60621,-46.06653 -6.22938,-18.16566 -9.34263,-38.67673 -9.34263,-61.51731 0,-22.83914 3.11325,-43.30401 9.34263,-61.38596 6.22938,-18.08051 15.0986,-33.39416 26.60621,-45.93231 11.50617,-12.55546 25.39238,-22.15789 41.65863,-28.82749 16.26481,-6.6465 34.34675,-9.99068 54.24873,-9.99068 20.07085,0 38.24229,3.34418 54.50709,9.99068 16.26048,6.6696 30.10771,16.27203 41.53017,28.82749 11.41669,12.53815 20.23972,27.8518 26.47054,45.93231 6.22938,18.08195 9.34119,38.54682 9.34119,61.38596 z m 51.65941,0 c 0,-27.85613 -4.41657,-53.42459 -13.24249,-76.69817 -8.82303,-23.27359 -21.28324,-43.30546 -37.37917,-60.09564 -16.08584,-16.7844 -35.42925,-29.79162 -58.00282,-39.05343 -22.58656,-9.26324 -47.54594,-13.88765 -74.88392,-13.88765 -27.34519,0 -52.26416,4.62441 -74.74824,13.88765 -22.49563,9.26181 -41.7943,22.26903 -57.88591,39.05343 -16.09594,16.79018 -28.55614,36.82205 -37.37917,60.09564 -8.82448,23.27358 -13.23239,48.84204 -13.23239,76.69817 0,27.85757 4.40791,53.42604 13.23239,76.69962 8.82303,23.26781 21.28323,43.34443 37.37917,60.21976 16.09161,16.86811 35.39028,29.9706 57.88591,39.319 22.48408,9.34263 47.40305,14.01611 74.74824,14.01611 27.33798,0 52.29736,-4.67348 74.88392,-14.01611 22.57357,-9.3484 41.91698,-22.45089 58.00282,-39.319 16.09593,-16.87533 28.55614,-36.95195 37.37917,-60.21976 8.82592,-23.27358 13.24249,-48.84205 13.24249,-76.69962"
         style="fill:#ffffff;fill-opacity:1;fill-rule:nonzero;stroke:none"
         id="path18"
         inkscape:connector-curvature="0" /><path
         d="m 1241.5532,504.33409 c 0,22.84058 -3.1032,43.25494 -9.3383,61.25751 -6.2352,17.99102 -15.0539,33.21807 -26.4706,45.67828 -11.4311,12.46598 -25.2726,21.97748 -41.5244,28.55181 -16.2662,6.57289 -34.4377,9.86511 -54.5143,9.86511 l -88.5045,0 0,-290.44562 88.5045,0 c 20.0766,0 38.2481,3.28211 54.5143,9.86655 16.2518,6.56856 30.0933,16.03965 41.5244,28.42047 11.4167,12.37072 20.2354,27.54726 26.4706,45.54983 6.2351,18.00256 9.3383,38.41692 9.3383,61.25606 z m 51.6709,0 c 0,-27.85613 -4.431,-53.21098 -13.2497,-76.05012 -8.8331,-22.83914 -21.289,-42.38606 -37.3821,-58.65809 -16.093,-16.25903 -35.4191,-28.84913 -58.0071,-37.7732 -22.5736,-8.90241 -47.5431,-13.35651 -74.8796,-13.35651 l -138.86208,0 0,371.94285 138.86208,0 c 27.3365,0 52.306,-4.45986 74.8796,-13.37383 22.588,-8.91396 41.9141,-21.54303 58.0071,-37.89299 16.0931,-16.34996 28.549,-35.9474 37.3821,-58.78654 8.8187,-22.83914 13.2497,-48.194 13.2497,-76.05157"
         style="fill:#ffffff;fill-opacity:1;fill-rule:nonzero;stroke:none"
         id="path20"
         inkscape:connector-curvature="0" /><path
         d="m 1414.1746,456.57598 138.8621,0 -58.3969,151.3223 c -1.9196,4.49451 -3.7815,9.68614 -5.5856,15.57201 -1.8331,5.88154 -3.695,12.20185 -5.5857,18.94361 -1.7176,-6.74176 -3.4928,-13.10826 -5.3259,-19.07207 -1.8041,-5.97102 -3.666,-11.20884 -5.5856,-15.70191 l -58.3824,-151.06394 z m 243.705,-138.07981 -38.9264,0 c -4.4887,0 -8.1259,1.12724 -10.8826,3.36583 -2.7857,2.25447 -4.8496,5.10215 -6.2352,8.56901 l -34.7841,89.80788 -166.9058,0 -34.7552,-89.80788 c -1.0537,-3.11181 -3.0455,-5.87433 -5.9898,-8.30488 -2.9589,-2.41901 -6.596,-3.62996 -10.8971,-3.62996 l -38.9409,0 148.7344,371.94285 50.8483,0 148.7344,-371.94285"
         style="fill:#ffffff;fill-opacity:1;fill-rule:nonzero;stroke:none"
         id="path22"
         inkscape:connector-curvature="0" /><path
         d="m 1939.6451,324.33153 c -21.2024,-6.6595 -44.4255,-9.99646 -69.6836,-9.99646 -29.949,0 -56.9535,4.64029 -80.9993,13.89776 -24.0458,9.24592 -44.5987,22.22428 -61.6443,38.9293 -17.0601,16.68914 -30.1366,36.72679 -39.3306,60.08409 -9.1651,23.35873 -13.7548,49.0571 -13.7548,77.08787 0,28.37717 4.4598,54.24296 13.3651,77.60747 8.9053,23.36307 21.5922,43.38484 38.0316,60.08986 16.425,16.69347 36.415,29.62131 59.9556,38.80085 23.5406,9.16654 49.838,13.75631 78.9065,13.75631 14.7074,0 28.3757,-1.08249 41.0048,-3.24171 12.6291,-2.17075 24.3055,-5.28256 35.0439,-9.3484 10.7383,-4.06439 20.6684,-8.99767 29.8623,-14.78828 9.1507,-5.80072 17.724,-12.33608 25.6767,-19.59744 l -14.26,-22.84491 c -2.266,-3.46831 -5.1671,-5.67226 -8.6888,-6.61331 -3.5506,-0.95259 -7.5053,-0.13567 -11.8064,2.46375 -4.1712,2.41901 -8.9486,5.35617 -14.3033,8.82303 -5.3547,3.46254 -11.893,6.78795 -19.5859,9.99646 -7.6929,3.19696 -16.7714,5.92484 -27.2644,8.17498 -10.4496,2.24437 -22.8911,3.3716 -37.2377,3.3716 -20.9426,0 -39.879,-3.41634 -56.8236,-10.25625 -16.9735,-6.83269 -31.4067,-16.60832 -43.3574,-29.32832 -11.9508,-12.71279 -21.1159,-28.11593 -27.5098,-46.19788 -6.4083,-18.0805 -9.6125,-38.37218 -9.6125,-60.86781 0,-23.36307 3.3196,-44.25228 10.0022,-62.67629 6.6537,-18.43124 16.1797,-34.09851 28.549,-46.98161 12.3548,-12.90041 27.3798,-22.72078 45.0316,-29.45821 17.6374,-6.74898 37.4543,-10.1379 59.4505,-10.1379 8.6166,0 16.7137,0.52537 24.2334,1.56744 7.5341,1.04353 14.7796,2.46376 21.6787,4.28523 6.9424,1.82147 13.5961,4.05862 19.99,6.75475 6.3939,2.67159 12.8889,5.74443 19.4849,9.20118 l 0,82.02693 -57.8773,0 c -3.3052,0 -5.9465,0.94104 -7.9238,2.852 -2.0062,1.90663 -2.9877,4.23471 -2.9877,7.00878 l 0,28.55614 114.1957,0 0,-142.75329 c -18.691,-13.5095 -38.6233,-23.58389 -59.8113,-30.24771"
         style="fill:#ffffff;fill-opacity:1;fill-rule:nonzero;stroke:none"
         id="path24"
         inkscape:connector-curvature="0" /><path
         d="m 2368.5429,504.33409 c 0,22.84058 -3.0887,43.35165 -9.3238,61.51731 -6.2352,18.16999 -15.0539,33.51684 -26.4994,46.06653 -11.4167,12.55114 -25.2582,22.19686 -41.5244,28.94007 -16.2663,6.75475 -34.4233,10.12635 -54.4855,10.12635 -19.9034,0 -38.0027,-3.3716 -54.2689,-10.12635 -16.2663,-6.74321 -30.1366,-16.38893 -41.6399,-28.94007 -11.5321,-12.54969 -20.3797,-27.89654 -26.6149,-46.06653 -6.2207,-18.16566 -9.3527,-38.67673 -9.3527,-61.51731 0,-22.83914 3.132,-43.30401 9.3527,-61.38596 6.2352,-18.08051 15.0828,-33.39416 26.6149,-45.93231 11.5033,-12.55546 25.3736,-22.15789 41.6399,-28.82749 16.2662,-6.6465 34.3655,-9.99068 54.2689,-9.99068 20.0622,0 38.2192,3.34418 54.4855,9.99068 16.2662,6.6696 30.1077,16.27203 41.5244,28.82749 11.4455,12.53815 20.2642,27.8518 26.4994,45.93231 6.2351,18.08195 9.3238,38.54682 9.3238,61.38596 z m 51.6565,0 c 0,-27.85613 -4.4021,-53.42459 -13.2208,-76.69817 -8.8331,-23.27359 -21.289,-43.30546 -37.3821,-60.09564 -16.1074,-16.7844 -35.4335,-29.79162 -58.0215,-39.05343 -22.5736,-9.26324 -47.5575,-13.88765 -74.8652,-13.88765 -27.351,0 -52.2627,4.62441 -74.7641,13.88765 -22.5014,9.26181 -41.7842,22.26903 -57.8773,39.05343 -16.093,16.79018 -28.5489,36.82205 -37.382,60.09564 -8.8187,23.27358 -13.2497,48.84204 -13.2497,76.69817 0,27.85757 4.431,53.42604 13.2497,76.69962 8.8331,23.26781 21.289,43.34443 37.382,60.21976 16.0931,16.86811 35.3759,29.9706 57.8773,39.319 22.5014,9.34263 47.4131,14.01611 74.7641,14.01611 27.3077,0 52.2916,-4.67348 74.8652,-14.01611 22.588,-9.3484 41.9141,-22.45089 58.0215,-39.319 16.0931,-16.87533 28.549,-36.95195 37.3821,-60.21976 8.8187,-23.27358 13.2208,-48.84205 13.2208,-76.69962"
         style="fill:#ffffff;fill-opacity:1;fill-rule:nonzero;stroke:none"
         id="path26"
         inkscape:connector-curvature="0" /><path
         d="m 156.6348,119.65536 c -6.54547,-1.97302 -13.55425,-2.94294 -21.01334,-2.94294 -9.30222,0 -17.72545,1.43178 -25.2697,4.3242 -7.53703,2.89242 -13.975692,6.9063 -19.314543,12.06473 -5.334522,5.14834 -9.449435,11.30411 -12.336081,18.45433 -2.892419,7.143 -4.335742,14.95138 -4.335742,23.40781 0,8.57045 1.392807,16.4178 4.176977,23.57812 2.785613,7.14878 6.737431,13.29445 11.868443,18.45288 5.12524,5.14834 11.337306,9.13479 18.639076,11.98103 7.3061,2.83035 15.50417,4.25636 24.60432,4.25636 4.62296,0 8.94716,-0.36517 12.96681,-1.09837 4.02543,-0.75053 7.75209,-1.74787 11.1973,-3.04541 3.43944,-1.27879 6.58588,-2.84624 9.42057,-4.69658 2.83613,-1.8258 5.43555,-3.85511 7.80405,-6.06051 l -6.06629,-9.62408 c -0.95404,-1.52126 -2.1823,-2.4522 -3.71078,-2.78994 -1.52704,-0.35506 -3.17387,0.0274 -4.96648,1.14456 -1.73054,0.99733 -3.4683,1.98456 -5.19885,2.98767 -1.73631,0.99734 -3.66459,1.87199 -5.80071,2.6052 -2.13179,0.73177 -4.51616,1.33508 -7.17187,1.81426 -2.65572,0.46908 -5.717,0.71156 -9.18386,0.71156 -5.62752,0 -10.71235,-0.94827 -15.26314,-2.83613 -4.54358,-1.90663 -8.41746,-4.61286 -11.62453,-8.13024 -3.2085,-3.51305 -5.67225,-7.75209 -7.408572,-12.68536 -1.730544,-4.9506 -2.599425,-10.45832 -2.599425,-16.56502 0,-6.51083 0.930944,-12.33608 2.79716,-17.45988 1.860447,-5.11946 4.493067,-9.46098 7.881987,-13.013 3.38748,-3.53469 7.47497,-6.25824 12.26247,-8.11869 4.78029,-1.86044 10.11914,-2.79138 16.00645,-2.79138 4.20584,0 7.95993,0.42289 11.26946,1.29754 3.31532,0.86311 6.5397,2.05818 9.70346,3.57944 l 0,20.73767 -14.35528,0 c -1.36394,0 -2.42912,0.3767 -3.18975,1.14888 -0.76785,0.76785 -1.14455,1.69158 -1.14455,2.79716 l 0,11.98102 37.84104,0 0,-46.11849 c -5.77907,-4.26358 -11.94639,-7.37538 -18.48608,-9.3484"
         style="fill:#cec487;fill-opacity:1;fill-rule:nonzero;stroke:none"
         id="path28"
         inkscape:connector-curvature="0" /><path
         d="m 265.32278,161.00944 36.34287,0 -13.87466,37.93341 c -0.68847,1.67426 -1.38704,3.6646 -2.13179,5.94794 -0.73321,2.28333 -1.47075,4.76296 -2.20396,7.45332 -0.73898,-2.69036 -1.46064,-5.18731 -2.17075,-7.49951 -0.70434,-2.31076 -1.40436,-4.34007 -2.0856,-6.07783 l -13.87611,-37.75733 z m 73.78988,-43.04566 -16.3947,0 c -1.83735,0 -3.34274,0.46187 -4.49884,1.38126 -1.1561,0.9194 -2.02354,2.05818 -2.59943,3.42212 l -8.51271,23.25771 -47.22408,0 -8.51417,-23.25771 c -0.42289,-1.21239 -1.23981,-2.30498 -2.44643,-3.30954 -1.21239,-0.99733 -2.70623,-1.49384 -4.49306,-1.49384 l -16.55925,0 44.85559,113.99941 21.61088,0 44.7762,-113.99941"
         style="fill:#cec487;fill-opacity:1;fill-rule:nonzero;stroke:none"
         id="path30"
         inkscape:connector-curvature="0" /><path
         d="m 419.44945,135.46985 45.57725,0 0,-17.50607 -66.78255,0 0,113.99941 21.2053,0 0,-96.49334"
         style="fill:#cec487;fill-opacity:1;fill-rule:nonzero;stroke:none"
         id="path32"
         inkscape:connector-curvature="0" /><path
         d="m 599.3683,231.96319 0,-16.87388 -50.61733,0 0,-31.61166 39.88767,0 0,-16.32254 -39.88767,0 0,-32.23806 50.61733,0 0,-16.95327 -71.90634,0 0,113.99941 71.90634,0"
         style="fill:#cec487;fill-opacity:1;fill-rule:nonzero;stroke:none"
         id="path34"
         inkscape:connector-curvature="0" /><path
         d="m 686.64459,177.72601 13.24249,0 c 3.998,0 7.48219,0.49073 10.44821,1.49528 2.97036,1.00311 5.41246,2.38437 7.33497,4.14378 1.91673,1.75797 3.34851,3.85079 4.28956,6.26835 0.95259,2.41324 1.42744,5.06318 1.42744,7.96714 0,5.77907 -1.9124,10.22162 -5.717,13.3161 -3.81182,3.10747 -9.62985,4.65183 -17.46132,4.65183 l -13.56435,0 0,-37.84248 z m 0,-15.22128 0,-44.54095 -21.21107,0 0,113.99941 34.77542,0 c 7.72466,0 14.35962,-0.7996 19.90198,-2.39591 5.54813,-1.60642 10.09171,-3.85079 13.64373,-6.74754 3.54047,-2.89241 6.15722,-6.34917 7.84302,-10.36305 1.6858,-4.01388 2.52581,-8.45643 2.52581,-13.28868 0,-3.83346 -0.57011,-7.45909 -1.70312,-10.88121 -1.12723,-3.41057 -2.75097,-6.51804 -4.88276,-9.30366 -2.12457,-2.77839 -4.75864,-5.23204 -7.88776,-7.33496 -3.12912,-2.09715 -6.68547,-3.77718 -10.68348,-5.04586 2.68458,-1.51549 5.00112,-3.70357 6.94672,-6.5397 l 28.53305,-42.09884 -19.15723,0 c -3.6314,0 -6.25825,1.42023 -7.88198,4.25636 l -23.9736,36.50597 c -0.8963,1.37115 -1.87054,2.33962 -2.95303,2.92128 -1.07817,0.57444 -2.66727,0.85734 -4.77019,0.85734 l -9.06551,0"
         style="fill:#cec487;fill-opacity:1;fill-rule:nonzero;stroke:none"
         id="path36"
         inkscape:connector-curvature="0" /><path
         d="m 814.13041,117.96378 21.28901,0 0,113.99999 -21.28901,0 0,-113.99999 z"
         style="fill:#cec487;fill-opacity:1;fill-rule:nonzero;stroke:none"
         id="path38"
         inkscape:connector-curvature="0" /><path
         d="m 932.07587,161.00944 36.34287,0 -13.87034,37.93341 c -0.69279,1.67426 -1.40002,3.6646 -2.13611,5.94794 -0.7361,2.28333 -1.47219,4.76296 -2.20829,7.45332 -0.73609,-2.69036 -1.45775,-5.18731 -2.16498,-7.49951 -0.70723,-2.31076 -1.40002,-4.34007 -2.09282,-6.07783 l -13.87033,-37.75733 z m 73.79713,-43.04566 -16.39618,0 c -1.84746,0 -3.34851,0.46187 -4.50317,1.38126 -1.15466,0.9194 -2.02065,2.05818 -2.59798,3.42212 l -8.51561,23.25771 -47.22552,0 -8.5156,-23.25771 c -0.41857,-1.21239 -1.24126,-2.30498 -2.43922,-3.30954 -1.21239,-0.99733 -2.71345,-1.49384 -4.50317,-1.49384 l -16.55491,0 44.85847,113.99941 21.60655,0 44.78634,-113.99941"
         style="fill:#cec487;fill-opacity:1;fill-rule:nonzero;stroke:none"
         id="path40"
         inkscape:connector-curvature="0" /><path
         d="m 1241.4521,117.96378 -21.289,0 0,49.82928 -53.5328,0 0,-49.82928 -21.289,0 0,113.99941 21.289,0 0,-49.03256 53.5328,0 0,49.03256 21.289,0 0,-113.99941"
         style="fill:#cec487;fill-opacity:1;fill-rule:nonzero;stroke:none"
         id="path42"
         inkscape:connector-curvature="0" /><path
         d="m 1338.0104,161.00944 36.3718,0 -13.8704,37.93341 c -0.7072,1.67426 -1.4144,3.6646 -2.1505,5.94794 -0.7361,2.28333 -1.4578,4.76296 -2.1939,7.45332 -0.7361,-2.69036 -1.4722,-5.18731 -2.1794,-7.49951 -0.6928,-2.31076 -1.4,-4.34007 -2.0784,-6.07783 l -13.8992,-37.75733 z m 73.7971,-43.04566 -16.3673,0 c -1.8619,0 -3.3629,0.46187 -4.5176,1.38126 -1.1546,0.9194 -2.0351,2.05818 -2.5979,3.42212 l -8.5012,23.25771 -47.2544,0 -8.5156,-23.25771 c -0.4186,-1.21239 -1.2124,-2.30498 -2.4248,-3.30954 -1.2124,-0.99733 -2.699,-1.49384 -4.5032,-1.49384 l -16.5549,0 44.8585,113.99941 21.621,0 44.7574,-113.99941"
         style="fill:#cec487;fill-opacity:1;fill-rule:nonzero;stroke:none"
         id="path44"
         inkscape:connector-curvature="0" /><path
         d="m 1484.4067,231.85062 c 0.6494,-0.0837 1.2412,-0.24248 1.7175,-0.47919 0.5052,-0.22516 0.9815,-0.57444 1.4578,-1.01465 0.4907,-0.45032 1.0247,-1.04208 1.5876,-1.77529 l 59.7536,-76.32147 c -0.1588,1.84312 -0.2742,3.64728 -0.3897,5.43411 -0.1155,1.79405 -0.1732,3.43944 -0.1732,4.97947 l 0,69.28959 18.691,0 0,-113.99941 -10.8826,0 c -1.6599,0 -3.0743,0.28145 -4.2001,0.82847 -1.1258,0.55279 -2.2227,1.48374 -3.2619,2.79716 l -59.5371,75.926 c 0.1588,-1.68003 0.2742,-3.35428 0.3608,-5.00112 0.058,-1.66848 0.1155,-3.17386 0.1155,-4.5378 l 0,-70.01271 -18.691,0 0,113.99941 11.1136,0 c 0.8948,0 1.6887,-0.0274 2.3382,-0.11257"
         style="fill:#cec487;fill-opacity:1;fill-rule:nonzero;stroke:none"
         id="path46"
         inkscape:connector-curvature="0" /><path
         d="m 1719.2208,174.96349 c 0,6.25825 -0.8371,11.86844 -2.4825,16.82914 -1.6598,4.97947 -4.0557,9.17954 -7.1877,12.61897 -3.132,3.44955 -6.8991,6.08361 -11.359,7.93251 -4.431,1.83157 -9.4393,2.7452 -14.9961,2.7452 l -22.155,0 0,-80.2502 22.155,0 c 5.5568,0 10.5651,0.91218 14.9961,2.76252 4.4599,1.82581 8.227,4.47575 11.359,7.92096 3.132,3.43944 5.5279,7.65105 7.1877,12.61175 1.6454,4.96215 2.4825,10.5709 2.4825,16.82915 z m 21.7654,0 c 0,-8.36117 -1.4145,-16.02233 -4.2001,-23.01956 -2.7568,-6.99145 -6.6826,-13.00722 -11.7342,-18.05308 -5.0372,-5.04586 -11.1281,-8.96448 -18.2003,-11.75442 -7.1012,-2.77407 -14.9962,-4.17265 -23.6561,-4.17265 l -43.444,0 0,113.99941 43.444,0 c 8.6599,0 16.5549,-1.39136 23.6561,-4.21017 7.0722,-2.8087 13.1631,-6.72733 18.2003,-11.74432 5.0516,-5.03431 8.9774,-11.03997 11.7342,-18.01411 2.7856,-6.99001 4.2001,-14.67571 4.2001,-23.0311"
         style="fill:#cec487;fill-opacity:1;fill-rule:nonzero;stroke:none"
         id="path48"
         inkscape:connector-curvature="0" /><path
         d="m 1828.1773,135.46985 45.5513,0 0,-17.50607 -66.7537,0 0,113.99941 21.2024,0 0,-96.49334"
         style="fill:#cec487;fill-opacity:1;fill-rule:nonzero;stroke:none"
         id="path50"
         inkscape:connector-curvature="0" /><path
         d="m 2019.2155,174.96349 c 0,6.25825 -0.8371,11.86844 -2.5258,16.82914 -1.6743,4.97947 -4.0702,9.19108 -7.1733,12.65794 -3.0887,3.46687 -6.8702,6.12835 -11.3301,7.96715 -4.4166,1.84312 -9.4393,2.76252 -14.9961,2.76252 -5.5713,0 -10.594,-0.9194 -15.025,-2.76252 -4.4455,-1.8388 -8.227,-4.50028 -11.359,-7.96715 -3.132,-3.46686 -5.5279,-7.67847 -7.2166,-12.65794 -1.6887,-4.9607 -2.5114,-10.57089 -2.5114,-16.82914 0,-6.25825 0.8227,-11.867 2.5114,-16.82915 1.6887,-4.9607 4.0846,-9.17231 7.2166,-12.61175 3.132,-3.44521 6.9135,-6.09515 11.359,-7.92096 4.431,-1.85034 9.4537,-2.76252 15.025,-2.76252 5.5568,0 10.5795,0.91218 14.9961,2.76252 4.4599,1.82581 8.2414,4.47575 11.3301,7.92096 3.1031,3.43944 5.499,7.65105 7.1733,12.61175 1.6887,4.96215 2.5258,10.5709 2.5258,16.82915 z m 21.6787,0 c 0,-8.36117 -1.3712,-16.09594 -4.1423,-23.21729 -2.7568,-7.11414 -6.6537,-13.28868 -11.6909,-18.48608 -5.0517,-5.20462 -11.1425,-9.26325 -18.2148,-12.18453 -7.1011,-2.91407 -14.9961,-4.36317 -23.656,-4.36317 -8.6167,0 -16.4828,1.4491 -23.5984,4.36317 -7.0723,2.92128 -13.1631,6.97991 -18.2291,12.18453 -5.0805,5.1974 -8.9919,11.37194 -11.792,18.48608 -2.7856,7.12135 -4.1712,14.85612 -4.1712,23.21729 0,8.35539 1.3856,16.09738 4.1712,23.21152 2.8001,7.13867 6.7115,13.29444 11.792,18.49907 5.066,5.1974 11.1568,9.25747 18.2291,12.17154 7.1156,2.92128 14.9817,4.38626 23.5984,4.38626 5.7877,0 11.229,-0.67548 16.3239,-2.012 5.0805,-1.34229 9.7569,-3.23015 14.0147,-5.6838 4.2578,-2.43489 8.0826,-5.41246 11.4744,-8.90675 3.4063,-3.49573 6.2785,-7.39847 8.6455,-11.69957 2.3382,-4.31265 4.1424,-8.9919 5.3836,-14.0392 1.2413,-5.04586 1.8619,-10.35584 1.8619,-15.92707"
         style="fill:#cec487;fill-opacity:1;fill-rule:nonzero;stroke:none"
         id="path52"
         inkscape:connector-curvature="0" /><path
         d="m 2093.0848,231.96319 17.7528,0 c 1.8331,0 3.3485,-0.42145 4.5898,-1.2961 1.2413,-0.86311 2.0639,-2.04663 2.4825,-3.51305 l 19.3983,-68.19123 c 0.4185,-1.69157 0.8515,-3.50583 1.2412,-5.47885 0.3897,-1.97447 0.7939,-4.06007 1.2124,-6.2698 0.4186,2.20973 0.866,4.29533 1.3856,6.2698 0.5052,1.97302 1.0392,3.78728 1.6021,5.47885 l 22.4148,68.19123 c 0.3897,1.21239 1.2413,2.31798 2.4825,3.31532 1.2124,1.00455 2.7279,1.49383 4.5032,1.49383 l 6.2351,0 c 1.8619,0 3.3485,-0.43299 4.5032,-1.33507 1.1547,-0.89053 2.0351,-2.04663 2.598,-3.47408 l 22.3282,-68.19123 c 1.0969,-3.26335 2.0784,-7.01888 2.9877,-11.26946 0.6783,4.14378 1.4289,7.90363 2.2804,11.26946 l 19.3983,68.19123 c 0.3031,1.31487 1.1258,2.45942 2.3959,3.40047 1.299,0.94105 2.8433,1.40868 4.6186,1.40868 l 16.6271,0 -35.4047,-113.99941 -19.1385,0 -24.9117,77.88892 c -0.3753,0.99734 -0.7072,2.0856 -1.0248,3.2417 -0.3319,1.15611 -0.6495,2.3685 -0.9526,3.62563 -0.2598,-1.25713 -0.5629,-2.46952 -0.9093,-3.62563 -0.3319,-1.1561 -0.6783,-2.24436 -0.9814,-3.2417 l -25.1427,-77.88892 -19.2539,0 -35.3181,113.99941"
         style="fill:#cec487;fill-opacity:1;fill-rule:nonzero;stroke:none"
         id="path54"
         inkscape:connector-curvature="0" /><path
         d="m 2333.8743,161.00944 36.3429,0 -13.8704,37.93341 c -0.6783,1.67426 -1.3855,3.6646 -2.1216,5.94794 -0.7506,2.28333 -1.4867,4.76296 -2.2228,7.45332 -0.7361,-2.69036 -1.4721,-5.18731 -2.1649,-7.49951 -0.7073,-2.31076 -1.4145,-4.34007 -2.0929,-6.07783 l -13.8703,-37.75733 z m 73.7971,-43.04566 -16.3961,0 c -1.8331,0 -3.3341,0.46187 -4.4888,1.38126 -1.1546,0.9194 -2.0351,2.05818 -2.6268,3.42212 l -8.5012,23.25771 -47.2255,0 -8.5156,-23.25771 c -0.4186,-1.21239 -1.2413,-2.30498 -2.4537,-3.30954 -1.2124,-0.99733 -2.699,-1.49384 -4.4743,-1.49384 l -16.5838,0 44.8874,113.99941 21.5921,0 44.7863,-113.99941"
         style="fill:#cec487;fill-opacity:1;fill-rule:nonzero;stroke:none"
         id="path56"
         inkscape:connector-curvature="0" /></g></g></svg>