<?xml version="1.0" encoding="UTF-8" standalone="no"?>
<!-- Created with Inkscape (http://www.inkscape.org/) -->

<svg
   xmlns:dc="http://purl.org/dc/elements/1.1/"
   xmlns:cc="http://creativecommons.org/ns#"
   xmlns:rdf="http://www.w3.org/1999/02/22-rdf-syntax-ns#"
   xmlns:svg="http://www.w3.org/2000/svg"
   xmlns="http://www.w3.org/2000/svg"
   xmlns:sodipodi="http://sodipodi.sourceforge.net/DTD/sodipodi-0.dtd"
   xmlns:inkscape="http://www.inkscape.org/namespaces/inkscape"
   width="64px"
   height="64px"
   id="svg2985"
   version="1.1"
   inkscape:version="0.48.5 r10040"
   sodipodi:docname="New document 2">
  <defs
     id="defs2987" />
  <sodipodi:namedview
     id="base"
     pagecolor="#ffffff"
     bordercolor="#666666"
     borderopacity="1.0"
     inkscape:pageopacity="0.0"
     inkscape:pageshadow="2"
     inkscape:zoom="5.5"
     inkscape:cx="32"
     inkscape:cy="32"
     inkscape:current-layer="layer1"
     showgrid="true"
     inkscape:document-units="px"
     inkscape:grid-bbox="true"
     inkscape:window-width="1920"
     inkscape:window-height="1164"
     inkscape:window-x="1920"
     inkscape:window-y="0"
     inkscape:window-maximized="1" />
  <metadata
     id="metadata2990">
    <rdf:RDF>
      <cc:Work
         rdf:about="">
        <dc:format>image/svg+xml</dc:format>
        <dc:type
           rdf:resource="http://purl.org/dc/dcmitype/StillImage" />
        <dc:title></dc:title>
      </cc:Work>
    </rdf:RDF>
  </metadata>
  <g
     id="layer1"
     inkscape:label="Layer 1"
     inkscape:groupmode="layer">
    <g
       transform="matrix(0.68941001,0,0,0.68941001,-2.4701561,-2.2643774)"
       id="g3047"
       style="fill:#ffffff">
      <path
         inkscape:connector-curvature="0"
         d="M 93.417,5.333 H 6.583 c -1.654,0 -3,1.346 -3,3 v 13.334 c 0,1.654 1.346,3 3,3 h 86.833 c 1.654,0 3,-1.346 3,-3 V 8.333 c 0.001,-1.654 -1.345,-3 -2.999,-3 z"
         id="path3049"
         style="fill:#ffffff" />
      <path
         inkscape:connector-curvature="0"
         d="M 93.417,40.333 H 6.583 c -1.654,0 -3,1.346 -3,3 v 13.334 c 0,1.654 1.346,3 3,3 h 86.833 c 1.654,0 3,-1.346 3,-3 V 43.333 c 0.001,-1.654 -1.345,-3 -2.999,-3 z"
         id="path3051"
         style="fill:#ffffff" />
      <path
         inkscape:connector-curvature="0"
         d="M 93.417,75.333 H 6.583 c -1.654,0 -3,1.346 -3,3 v 13.334 c 0,1.654 1.346,3 3,3 h 86.833 c 1.654,0 3,-1.346 3,-3 V 78.333 c 0.001,-1.654 -1.345,-3 -2.999,-3 z"
         id="path3053"
         style="fill:#ffffff" />
    </g>
  </g>
</svg>
