<svg xmlns:svg="http://www.w3.org/2000/svg" xmlns="http://www.w3.org/2000/svg" width="64" height="64" version="1.1" viewBox="0 0 64 64"><g transform="matrix(0.24999434,0,0,0.24999434,-72.566603,-83.661104)" fill="#fff"><path d="m393.4 334.7c-26.4 0-52.8 10-72.9 30.1-40.2 40.2-40.2 105.7 0 145.9 35.2 35.2 89.9 39.6 129.9 13l60.9 60.9c8 8 21 8 29 0 8-8 8-21 0-29L479.4 494.7C505.9 454.7 501.5 400 466.3 364.8 446.2 344.7 419.8 334.7 393.4 334.7zm0 27.2c19.4 0 38.7 7.4 53.6 22.3 29.7 29.7 29.8 77.5 0 107.2-29.7 29.7-77.5 29.7-107.2 0-29.7-29.7-29.7-77.5 0-107.2 14.9-14.9 34.2-22.3 53.6-22.3zm-54.7 99.2a2.9 2.9 0 0 0-2.5 4.2c10.3 21.5 32.2 36.3 57.6 36.3 5.5 0 10.8-0.7 15.9-2a2.9 2.9 0 0 0-0.1-5.7c-25.5-5.7-48.9-16.9-69-32.2a2.9 2.9 0 0 0-1.9-0.6z" style="block-progression:tb;fill:#fff;text-indent:0;text-transform:none"/></g></svg>