<?xml version="1.0" encoding="UTF-8" standalone="no"?>
<!-- Created with Inkscape (http://www.inkscape.org/) -->

<svg
   xmlns:dc="http://purl.org/dc/elements/1.1/"
   xmlns:cc="http://creativecommons.org/ns#"
   xmlns:rdf="http://www.w3.org/1999/02/22-rdf-syntax-ns#"
   xmlns:svg="http://www.w3.org/2000/svg"
   xmlns="http://www.w3.org/2000/svg"
   xmlns:sodipodi="http://sodipodi.sourceforge.net/DTD/sodipodi-0.dtd"
   xmlns:inkscape="http://www.inkscape.org/namespaces/inkscape"
   width="64px"
   height="64px"
   id="svg3030"
   version="1.1"
   inkscape:version="0.48.5 r10040"
   sodipodi:docname="tos.svg"
   viewBox="0 0 64 64">
  <defs
     id="defs3032" />
  <sodipodi:namedview
     id="base"
     pagecolor="#ffffff"
     bordercolor="#666666"
     borderopacity="1.0"
     inkscape:pageopacity="0.0"
     inkscape:pageshadow="2"
     inkscape:zoom="5.5"
     inkscape:cx="32"
     inkscape:cy="32"
     inkscape:current-layer="layer1"
     showgrid="true"
     inkscape:document-units="px"
     inkscape:grid-bbox="true"
     inkscape:window-width="1920"
     inkscape:window-height="1022"
     inkscape:window-x="0"
     inkscape:window-y="25"
     inkscape:window-maximized="1" />
  <metadata
     id="metadata3035">
    <rdf:RDF>
      <cc:Work
         rdf:about="">
        <dc:format>image/svg+xml</dc:format>
        <dc:type
           rdf:resource="http://purl.org/dc/dcmitype/StillImage" />
        <dc:title></dc:title>
      </cc:Work>
    </rdf:RDF>
  </metadata>
  <g
     id="layer1"
     inkscape:label="Layer 1"
     inkscape:groupmode="layer">
    <g
       transform="matrix(2.2855416,0,0,2.2855416,-0.03433633,2.641168e-4)"
       id="g3"
       style="fill:#ffffff">
      <path
         inkscape:connector-curvature="0"
         style="fill:#ffffff"
         d="M 20.001,14.001 C 19.996,13.785 19.98,12.697 19.236,11.382 18.51,10.065 16.947,8.652 14.485,8.059 12.948,7.652 12.51,7.065 12.236,6.631 12.109,6.409 12.047,6.203 12.02,6.072 12.01,6.023 12.005,5.986 12.002,5.964 c 0.074,-1.256 0.392,-1.337 0.893,-1.675 0.261,-0.132 0.576,-0.216 0.811,-0.253 0.115,-0.019 0.212,-0.029 0.265,-0.033 0.015,-0.001 0.027,-0.002 0.035,-0.002 1.288,0.068 1.366,0.387 1.705,0.895 0.134,0.259 0.216,0.576 0.255,0.808 0.019,0.118 0.029,0.212 0.033,0.268 0.003,0.027 0.003,0.045 0.003,0.051 l 0.646,-0.022 h 3.354 C 19.99,5.834 20.016,4.588 19.29,3.106 18.631,1.612 16.709,-0.068 14.002,0.002 13.835,0.012 12.589,-0.013 11.107,0.711 9.614,1.372 7.934,3.293 8.002,6.001 8.006,6.217 8.023,7.305 8.765,8.618 8.979,9.006 9.275,9.4 9.636,9.781 c -0.407,0.426 -0.727,0.882 -0.924,1.326 -0.723,1.482 -0.7,2.728 -0.71,2.895 0.004,0.214 0.021,1.304 0.764,2.617 0.727,1.315 2.29,2.729 4.75,3.321 1.539,0.408 1.977,0.994 2.25,1.428 0.127,0.223 0.188,0.431 0.217,0.56 0.01,0.046 0.016,0.082 0.018,0.105 -0.071,1.262 -0.391,1.341 -0.892,1.681 -0.261,0.133 -0.577,0.214 -0.809,0.251 -0.118,0.021 -0.212,0.03 -0.268,0.033 C 14.011,23.999 13.994,24 13.986,24.001 12.71,23.929 12.631,23.612 12.292,23.106 12.16,22.846 12.076,22.53 12.039,22.295 12.018,22.18 12.01,22.083 12.006,22.029 12.002,22.005 12.002,21.989 12.002,21.981 v -0.004 l -0.667,0.024 H 8.001 c 0.011,0.165 -0.012,1.411 0.71,2.895 0.648,1.463 2.505,3.106 5.127,3.106 0.054,0 0.108,-10e-4 0.164,-0.002 0.167,-0.011 1.413,0.015 2.893,-0.711 1.494,-0.659 3.176,-2.582 3.105,-5.288 -0.004,-0.218 -0.021,-1.307 -0.762,-2.619 -0.215,-0.388 -0.51,-0.781 -0.871,-1.162 0.406,-0.427 0.727,-0.883 0.922,-1.326 0.727,-1.482 0.701,-2.726 0.712,-2.893 z m -4.338,1.201 c -0.305,0.412 -0.432,0.693 -1.435,0.779 -1.321,-0.402 -1.734,-0.942 -1.989,-1.348 -0.13,-0.223 -0.189,-0.428 -0.218,-0.56 -0.01,-0.045 -0.015,-0.081 -0.018,-0.104 0.013,-0.181 0.101,-0.775 0.339,-1.171 0.303,-0.411 0.43,-0.692 1.429,-0.78 1.324,0.402 1.738,0.942 1.995,1.348 0.127,0.225 0.189,0.43 0.217,0.562 0.01,0.046 0.017,0.083 0.019,0.105 -0.016,0.187 -0.102,0.775 -0.339,1.169 z"
         id="path5" />
    </g>
  </g>
</svg>
