<?xml version="1.0" encoding="UTF-8" standalone="no"?>
<!-- Created with Inkscape (http://www.inkscape.org/) -->

<svg
   xmlns:dc="http://purl.org/dc/elements/1.1/"
   xmlns:cc="http://creativecommons.org/ns#"
   xmlns:rdf="http://www.w3.org/1999/02/22-rdf-syntax-ns#"
   xmlns:svg="http://www.w3.org/2000/svg"
   xmlns="http://www.w3.org/2000/svg"
   xmlns:sodipodi="http://sodipodi.sourceforge.net/DTD/sodipodi-0.dtd"
   xmlns:inkscape="http://www.inkscape.org/namespaces/inkscape"
   width="64px"
   height="64px"
   id="svg3060"
   version="1.1"
   inkscape:version="0.48.5 r10040"
   sodipodi:docname="user.svg">
  <defs
     id="defs3062" />
  <sodipodi:namedview
     id="base"
     pagecolor="#ffffff"
     bordercolor="#666666"
     borderopacity="1.0"
     inkscape:pageopacity="0.0"
     inkscape:pageshadow="2"
     inkscape:zoom="2"
     inkscape:cx="44.166639"
     inkscape:cy="77.390155"
     inkscape:current-layer="layer1"
     showgrid="true"
     inkscape:document-units="px"
     inkscape:grid-bbox="true"
     inkscape:window-width="1920"
     inkscape:window-height="1164"
     inkscape:window-x="1920"
     inkscape:window-y="0"
     inkscape:window-maximized="1" />
  <metadata
     id="metadata3065">
    <rdf:RDF>
      <cc:Work
         rdf:about="">
        <dc:format>image/svg+xml</dc:format>
        <dc:type
           rdf:resource="http://purl.org/dc/dcmitype/StillImage" />
        <dc:title />
      </cc:Work>
    </rdf:RDF>
  </metadata>
  <g
     id="layer1"
     inkscape:label="Layer 1"
     inkscape:groupmode="layer">
    <path
       inkscape:connector-curvature="0"
       d="m 63.285125,50.42363 c -2.560683,-6.02094 -12.623507,-11.39369 -21.047394,-13.772 -0.909424,-0.35736 -1.55514,-1.252 -1.55514,-2.29697 0,-0.5915 0.211953,-1.13617 0.564384,-1.56993 3.115213,-3.22119 6.213171,-8.30312 6.213171,-14.77261 0,-8.52986 -5.040038,-16.79848 -15.452828,-16.79848 -10.420185,0 -15.460222,8.26862 -15.460222,16.79848 0,6.46949 3.102889,11.55389 6.21317,14.77261 0.354898,0.43376 0.564387,0.97596 0.564387,1.56993 0,1.04497 -0.643251,1.93961 -1.557606,2.29697 C 13.340696,39.02994 3.2852671,44.40269 0.72211747,50.42363 0.26370884,51.48832 0,52.65159 0,53.88388 0,58.24123 3.1842199,61.81732 7.3468717,62.5 H 56.655441 c 4.162652,-0.68268 7.344408,-4.26123 7.344408,-8.61612 0.0074,-1.22982 -0.256315,-2.39556 -0.714724,-3.46025 z"
       id="path3229"
       style="fill:#ffffff" />
  </g>
</svg>
