<svg xmlns:svg="http://www.w3.org/2000/svg" xmlns="http://www.w3.org/2000/svg" version="1.1" width="64" height="64" viewBox="0 0 64 64"><style>.s0{fill:none;stroke:#373535;}</style><defs><clipPath><path d="m0 66 66 0L66 0 0 0 0 66z"/></clipPath></defs><g transform="matrix(0.96980277,0,0,-0.96980277,-1.9396055e-4,64.000097)"><g clip-path="url(#clipPath16)"><g transform="translate(45.2627,21.4082)"><path d="m0 0c0-1.2-1.1-2.2-2.4-2.2l-18.5 0c-1.3 0-2.4 1-2.4 2.2l0 11.1c0 1.2 1.1 2.2 2.4 2.2l18.5 0C-1.1 13.3 0 12.3 0 11.1L0 0z" class="s0"/></g><g transform="translate(28.1172,35.0693)"><path d="m0 0 0 2.1c0 3.3 2.4 5.9 5.3 5.9 2.9 0 5.3-2.7 5.3-5.9l0-2.1 3.5 0 0 2.7c0 4.9-3.9 8.8-8.8 8.8-4.9 0-8.8-3.9-8.8-8.8L-3.5 0 0 0z" class="s0"/></g><g transform="translate(35.7402,27.9775)"><path d="m0 0c0 1.2-1 2.2-2.2 2.2-1.2 0-2.2-1-2.2-2.2 0-0.9 0.5-1.6 1.3-2l0-2.5c0-0.4 0.4-0.8 0.8-0.8 0.4 0 0.8 0.4 0.8 0.8l0 2.4C-0.6-1.8 0-1 0 0z" style="fill:none;stroke-width:0.8;stroke:#373535"/></g><g transform="matrix(0.60529415,0,0,0.60529415,65.690355,32.997105)"><path d="m0 0c0-29.8-24.2-54-54-54-29.8 0-54 24.2-54 54 0 29.8 24.2 54 54 54C-24.2 54 0 29.8 0 0z" style="fill:none;stroke:#9d8852"/></g></g></g></svg>