<svg xmlns:svg="http://www.w3.org/2000/svg" xmlns="http://www.w3.org/2000/svg" width="64" height="64" version="1.1" viewBox="0 0 64 64"><style>.s0{fill:#fff;}</style><g transform="matrix(0.11636052,0,0,0.11636052,1.8859804,0.22668645)" fill="#fff"><path d="M483.2 0 332.9 0C266.4 0 266.9 15.9 247.4 35.4L14.6 268.2c-41 41-41.2 29.6 0 70.9L194.3 518.7c42.1 38.1 32.4 38.4 70.8 0L497.9 285.9c19.5-19.5 35.4-20.1 35.4-85.5l0-150.3C533.9-8.5 540.2 0 483.2 0zm-66.6 166.7c-27.6 0-50-22.4-50-50 0-27.6 22.4-50 50-50 27.6 0 50 22.4 50 50 0 27.6-22.4 50-50 50z" fill="#fff"/></g></svg>