<svg xmlns:svg="http://www.w3.org/2000/svg" xmlns="http://www.w3.org/2000/svg" version="1.1" width="64" height="64" viewBox="0 0 64 64"><style>.s0{fill:none;stroke:#373535;}</style><defs><clipPath><path d="m0 109 109 0L109 0 0 0 0 109z"/></clipPath><clipPath><path d="m0 109 109 0L109 0 0 0 0 109z"/></clipPath></defs><g transform="matrix(0.58701809,0,0,-0.58701809,-2.3480724e-4,64)"><g clip-path="url(#clipPath16-5)"><g transform="translate(108.5264,54.5137)"><path d="m0 0c0-29.8-24.2-54-54-54-29.8 0-54 24.2-54 54 0 29.8 24.2 54 54 54C-24.2 54 0 29.8 0 0z" style="fill:none;stroke:#9d8852"/></g><g transform="translate(82.5596,55.5361)"><path d="m0 0-6.4 5.9-1.9 0 0-11.3 8.4 0L0 0z" class="s0"/></g><g transform="translate(78.0449,66.3545)"><path d="m0 0-7.4 0 0-13.3c0-1.6-1.3-3-3-3l-22.3 0 0-6.5c0-1.6 1.3-3 3-3l2.8 0c0 0.1 0 0.1 0 0.2 0 3.1 2.5 5.5 5.5 5.5 3.1 0 5.5-2.5 5.5-5.5 0-0.1 0-0.1 0-0.2l8.5 0c0 0.1 0 0.1 0 0.2 0 3.1 2.5 5.5 5.5 5.5 3.1 0 5.5-2.5 5.5-5.5 0-0.1 0-0.1 0-0.2l2.4 0c1.6 0 3 1.3 3 3l0 12.8L0 0z" class="s0"/></g><g transform="translate(62.2051,40.8955)"><path d="m0 0c0-3.1-2.5-5.5-5.5-5.5-3.1 0-5.5 2.5-5.5 5.5 0 3.1 2.5 5.5 5.5 5.5C-2.5 5.5 0 3.1 0 0z" class="s0"/></g><g transform="translate(47.9648,67.0244)"><path d="M0 0-33.1 0 0 0z" class="s0"/></g><g transform="translate(47.9648,62.1934)"><path d="M0 0-25 0 0 0z" class="s0"/></g><g transform="translate(47.9648,57.3652)"><path d="M0 0-19.7 0 0 0z" class="s0"/></g><g transform="translate(47.9648,52.5352)"><path d="M0 0-12.5 0 0 0z" class="s0"/></g><g transform="translate(81.7598,40.8955)"><path d="m0 0c0-3.1-2.5-5.5-5.5-5.5-3.1 0-5.5 2.5-5.5 5.5 0 3.1 2.5 5.5 5.5 5.5C-2.5 5.5 0 3.1 0 0z" class="s0"/></g><g transform="translate(70.6914,53.0723)"><path d="m0 0c0-1.6-1.3-3-3-3l-23.6 0c-1.6 0-3 1.3-3 3l0 16.6c0 1.6 1.3 3 3 3l23.6 0C-1.3 19.6 0 18.2 0 16.6L0 0z" class="s0"/></g><g transform="translate(70.6914,53.0723)"><path d="m0 0c0-1.6-1.3-3-3-3l-23.6 0c-1.6 0-3 1.3-3 3l0 16.6c0 1.6 1.3 3 3 3l23.6 0C-1.3 19.6 0 18.2 0 16.6L0 0z" class="s0"/></g></g></g></svg>