<?xml version="1.0" encoding="UTF-8" standalone="no"?>
<svg
   xmlns:dc="http://purl.org/dc/elements/1.1/"
   xmlns:cc="http://creativecommons.org/ns#"
   xmlns:rdf="http://www.w3.org/1999/02/22-rdf-syntax-ns#"
   xmlns:svg="http://www.w3.org/2000/svg"
   xmlns="http://www.w3.org/2000/svg"
   xmlns:sodipodi="http://sodipodi.sourceforge.net/DTD/sodipodi-0.dtd"
   xmlns:inkscape="http://www.inkscape.org/namespaces/inkscape"
   version="1.1"
   width="64"
   height="64"
   viewBox="0 0 64 64"
   id="svg2"
   inkscape:version="0.91 r13725"
   sodipodi:docname="benefits_discounts.svg">
  <metadata
     id="metadata38">
    <rdf:RDF>
      <cc:Work
         rdf:about="">
        <dc:format>image/svg+xml</dc:format>
        <dc:type
           rdf:resource="http://purl.org/dc/dcmitype/StillImage" />
      </cc:Work>
    </rdf:RDF>
  </metadata>
  <sodipodi:namedview
     pagecolor="#ffffff"
     bordercolor="#666666"
     borderopacity="1"
     objecttolerance="10"
     gridtolerance="10"
     guidetolerance="10"
     inkscape:pageopacity="0"
     inkscape:pageshadow="2"
     inkscape:window-width="1280"
     inkscape:window-height="995"
     id="namedview36"
     showgrid="false"
     inkscape:zoom="25.630416"
     inkscape:cx="30.177801"
     inkscape:cy="32.693354"
     inkscape:window-x="3840"
     inkscape:window-y="328"
     inkscape:window-maximized="1"
     inkscape:current-layer="svg2" />
  <style
     id="style4">.s0{fill:none;stroke:#333433;}</style>
  <defs
     id="defs6">
    <inkscape:perspective
       sodipodi:type="inkscape:persp3d"
       inkscape:vp_x="0 : 32 : 1"
       inkscape:vp_y="0 : 1000 : 0"
       inkscape:vp_z="64 : 32 : 1"
       inkscape:persp3d-origin="32 : 21.333333 : 1"
       id="perspective4915" />
    <clipPath
       id="clipPath8">
      <path
         d="m0 109 109 0L109 0 0 0 0 109z"
         id="path10" />
    </clipPath>
  </defs>
  <g
     transform="matrix(0.77229913,0,0,-0.77229913,42.92573,24.2115)"
     id="g24"
     style="fill:none">
    <path
       d="m 0,0 c 0,-8.9 -7.2,-16.1 -16.1,-16.1 -8.9,0 -16.1,7.2 -16.1,16.1 0,8.9 7.2,16.1 16.1,16.1 C -7.2,16.1 0,8.9 0,0"
       id="path26"
       inkscape:connector-curvature="0"
       style="fill:none" />
  </g>
  <g
     transform="matrix(0.77229913,0,0,-0.77229913,30.327214,13.869179)"
     id="g28"
     style="stroke:#000000;stroke-opacity:1">
    <path
       d="m -7.7383744,-24.340697 c 1.8014947,-0.342803 4.0461293,-0.166558 5.3159926,-0.183705 3.8716388,-0.05228 -0.5169914,-0.0053 9.8848202,-0.0067 m 0,0 C 11.043375,-22.125493 13.4,-18.037686 13.4,-13.4 c 0,3.7 -1.5,7.05 -3.925,9.475 C 7.05,-1.5 3.7,0 0,0 c -7.4,0 -13.4,-6 -13.4,-13.4 0,-4.51749 2.236054,-8.513235 5.6616256,-10.940697"
       class="s0"
       id="path30"
       inkscape:connector-curvature="0"
       style="fill:none;stroke:#000000;stroke-opacity:1"
       sodipodi:nodetypes="csccssssc" />
  </g>
  <text
     xml:space="preserve"
     style="font-style:normal;font-variant:normal;font-weight:normal;font-stretch:normal;font-size:14.80088806px;line-height:125%;font-family:'Arial Black';-inkscape-font-specification:'Arial Black, ';letter-spacing:0px;word-spacing:0px;fill:#000000;fill-opacity:1;stroke:none;stroke-width:1px;stroke-linecap:butt;stroke-linejoin:miter;stroke-opacity:1"
     x="25.671556"
     y="29.301693"
     id="text4187"
     sodipodi:linespacing="125%"><tspan
       sodipodi:role="line"
       id="tspan4189"
       x="25.671556"
       y="29.301693">$</tspan></text>
  <g
     id="g4877"
     transform="matrix(1.1327132,0,0,1.1327132,-4.4978524,-9.1077345)">
    <g
       style="fill:#000000"
       transform="translate(10.576271,-7.0508474)"
       id="g4857">
      <path
         style="fill:#000000"
         inkscape:connector-curvature="0"
         id="path4281"
         d="m 21.101192,50.420876 -10.319517,0 c -1.874211,0 -3.398949,-1.524999 -3.398949,-3.39921 0,-1.874212 1.524738,-3.399211 3.398949,-3.399211 l 25.83755,0 0.09631,0.05272 10.884573,5.937135 -0.412373,0.755844 -10.788266,-5.884413 -25.617792,0 c -1.3991985,0 -2.5376626,1.138203 -2.5376626,2.537924 0,1.399721 1.1384641,2.537924 2.5376626,2.537924 l 10.319256,0 0,0.861286 z" />
      <path
         style="fill:#000000"
         inkscape:connector-curvature="0"
         id="path4283"
         d="M 20.947204,62.507335 -2.0882929,47.906442 c -1.5811131,-1.002224 -2.0550816,-3.105329 -1.0565114,-4.688791 0.4846694,-0.768894 1.2399915,-1.302892 2.1263336,-1.503859 0.886342,-0.201227 1.79800064,-0.04463 2.5666335,0.440561 l 6.4948828,4.095809 -0.4596138,0.728439 -6.4948827,-4.095808 c -0.57445198,-0.362262 -1.25486826,-0.478406 -1.91701484,-0.329116 -0.66188556,0.150073 -1.22589766,0.549135 -1.58789896,1.123326 -0.7459263,1.182573 -0.3920159,2.753507 0.7887295,3.502043 l 22.5998952,14.32476 15.584848,-8.803131 10.689349,8.975127 -0.553572,0.659537 -10.232084,-8.591202 -15.513597,8.763198 z" />
    </g>
    <path
       inkscape:connector-curvature="0"
       id="path4861"
       d="m 57.447733,54.964583 0.08236,-12.4811"
       style="fill:#000000;fill-rule:evenodd;stroke:#000000;stroke-width:0.97834402px;stroke-linecap:butt;stroke-linejoin:miter;stroke-opacity:1" />
    <path
       inkscape:connector-curvature="0"
       id="path4863"
       d="M 19.905103,48.055387 C 12.869862,43.596568 8.1966074,40.579856 7.9476777,40.336548 7.7229292,40.116875 7.4207805,39.696272 7.2762364,39.401875 7.038715,38.918108 7.0134288,38.780469 7.0134288,37.971352 c 0,-0.816201 0.023609,-0.941909 0.2673638,-1.423592 0.3654978,-0.722258 0.917481,-1.262744 1.6373126,-1.603209 0.539532,-0.255187 0.6856922,-0.284521 1.4077678,-0.282529 0.619515,0.0017 0.898837,0.04479 1.208594,0.186404 0.221576,0.1013 1.785433,1.056903 3.475238,2.123562 1.689805,1.06666 3.089554,1.939382 3.110553,1.939382 0.021,0 0.122759,-0.179934 0.226133,-0.399853 0.314566,-0.669211 0.831878,-1.174448 1.582261,-1.545327 l 0.683293,-0.337721 13.258783,-0.02409 13.258782,-0.02409 5.216062,2.844146 5.216062,2.844146 -0.447515,0.02686 c -0.347034,0.02083 -0.453806,0.0628 -0.475534,0.186918 -0.02287,0.130631 -0.908484,-0.321846 -4.817636,-2.461419 l -4.789615,-2.621473 -12.987332,-0.005 c -14.344084,-0.0055 -13.492828,-0.0392 -14.283789,0.564748 -1.493704,1.140528 -1.177018,3.576006 0.567501,4.364364 l 0.472644,0.21359 5.438675,0.02566 5.438675,0.02566 0,0.357401 0,0.357401 -5.617726,-0.02496 -5.617726,-0.02496 -0.498748,-0.24494 C 19.326531,42.705414 18.666309,42.066359 18.373716,41.488955 18.251963,41.248688 18.105373,40.75687 18.047962,40.396027 L 17.943575,39.739949 14.911458,37.826107 C 11.192351,35.478644 11.194859,35.480001 10.494332,35.435395 8.47704,35.306944 7.139685,37.344026 8.0479902,39.161706 8.2406628,39.547278 8.4458768,39.799373 8.741813,40.014032 9.1016545,40.275044 30.503175,53.8628 31.286261,54.327429 l 0.279996,0.16613 7.766098,-4.387501 c 4.271353,-2.413124 7.811426,-4.359951 7.866827,-4.326279 0.0554,0.03367 2.205697,1.829647 4.778437,3.991057 l 4.677708,3.929837 0,0.488878 c 0,0.268881 -0.03539,0.467006 -0.07864,0.440274 -0.04325,-0.02673 -2.188507,-1.822831 -4.767234,-3.991334 -3.039148,-2.555681 -4.741212,-3.929826 -4.838162,-3.906043 -0.08226,0.02018 -3.581349,1.975048 -7.77575,4.344153 -4.194401,2.369105 -7.652162,4.305384 -7.683915,4.302841 -0.03175,-0.0025 -5.254689,-3.298367 -11.606524,-7.324055 z"
       style="opacity:1;fill:#000000;fill-opacity:0" />
    <path
       inkscape:connector-curvature="0"
       id="path4865"
       d="M 20.307968,47.284713 C 14.128469,43.371799 8.8954558,40.02017 8.6790493,39.836647 7.3946813,38.747441 7.6035078,36.678902 9.0855147,35.810389 c 0.4803763,-0.28152 1.3609383,-0.379647 1.9324543,-0.215347 0.210215,0.06043 1.831436,1.026697 3.602713,2.147254 l 3.220503,2.037376 0.139059,0.707299 c 0.245311,1.247735 0.86288,2.070274 1.958521,2.608552 l 0.503491,0.24736 5.617726,0.02496 5.617726,0.02496 0,-0.447551 0,-0.447551 -5.438675,-0.02504 -5.438675,-0.02504 -0.512466,-0.251652 c -0.964358,-0.473558 -1.475868,-1.366072 -1.390735,-2.42664 0.05543,-0.690562 0.30355,-1.182566 0.830118,-1.646069 0.787208,-0.692928 -0.287638,-0.644305 14.243059,-0.644305 l 13.00379,0 4.818221,2.629508 4.818219,2.629509 0.02307,5.426222 0.02308,5.426222 -4.740099,-3.98232 c -2.607054,-2.190276 -4.758518,-3.98232 -4.781032,-3.98232 -0.02251,0 -3.535704,1.974038 -7.80709,4.386751 -4.271385,2.412712 -7.770411,4.386709 -7.775614,4.386658 -0.0052,-5.1e-5 -5.065412,-3.201567 -11.24491,-7.114479 z"
       style="opacity:1;fill:#000000;fill-opacity:0" />
    <path
       inkscape:connector-curvature="0"
       id="path4867"
       d="M 20.307968,47.284713 C 14.128469,43.371799 8.8954558,40.02017 8.6790493,39.836647 7.3946813,38.747441 7.6035078,36.678902 9.0855147,35.810389 c 0.4803763,-0.28152 1.3609383,-0.379647 1.9324543,-0.215347 0.210215,0.06043 1.831436,1.026697 3.602713,2.147254 l 3.220503,2.037376 0.139059,0.707299 c 0.245311,1.247735 0.86288,2.070274 1.958521,2.608552 l 0.503491,0.24736 5.617726,0.02496 5.617726,0.02496 0,-0.447551 0,-0.447551 -5.438675,-0.02504 -5.438675,-0.02504 -0.512466,-0.251652 c -0.964358,-0.473558 -1.475868,-1.366072 -1.390735,-2.42664 0.05543,-0.690562 0.30355,-1.182566 0.830118,-1.646069 0.787208,-0.692928 -0.287638,-0.644305 14.243059,-0.644305 l 13.00379,0 4.818221,2.629508 4.818219,2.629509 0.02307,5.426222 0.02308,5.426222 -4.740099,-3.98232 c -2.607054,-2.190276 -4.758518,-3.98232 -4.781032,-3.98232 -0.02251,0 -3.535704,1.974038 -7.80709,4.386751 -4.271385,2.412712 -7.770411,4.386709 -7.775614,4.386658 -0.0052,-5.1e-5 -5.065412,-3.201567 -11.24491,-7.114479 z"
       style="opacity:1;fill:#000000;fill-opacity:0" />
    <path
       inkscape:connector-curvature="0"
       id="path4869"
       d="M 20.307968,47.284713 C 14.128469,43.371799 8.8954558,40.02017 8.6790493,39.836647 7.3946813,38.747441 7.6035078,36.678902 9.0855147,35.810389 c 0.4803763,-0.28152 1.3609383,-0.379647 1.9324543,-0.215347 0.210215,0.06043 1.831436,1.026697 3.602713,2.147254 l 3.220503,2.037376 0.139059,0.707299 c 0.245311,1.247735 0.86288,2.070274 1.958521,2.608552 l 0.503491,0.24736 5.617726,0.02496 5.617726,0.02496 0,-0.447551 0,-0.447551 -5.438675,-0.02504 -5.438675,-0.02504 -0.512466,-0.251652 c -0.964358,-0.473558 -1.475868,-1.366072 -1.390735,-2.42664 0.05543,-0.690562 0.30355,-1.182566 0.830118,-1.646069 0.787208,-0.692928 -0.287638,-0.644305 14.243059,-0.644305 l 13.00379,0 4.818221,2.629508 4.818219,2.629509 0.02307,5.426222 0.02308,5.426222 -4.740099,-3.98232 c -2.607054,-2.190276 -4.758518,-3.98232 -4.781032,-3.98232 -0.02251,0 -3.535704,1.974038 -7.80709,4.386751 -4.271385,2.412712 -7.770411,4.386709 -7.775614,4.386658 -0.0052,-5.1e-5 -5.065412,-3.201567 -11.24491,-7.114479 z"
       style="opacity:1;fill:#000000;fill-opacity:0" />
    <path
       inkscape:connector-curvature="0"
       id="path4871"
       d="M 20.307968,47.284713 C 14.128469,43.371799 8.8954558,40.02017 8.6790493,39.836647 7.3946813,38.747441 7.6035078,36.678902 9.0855147,35.810389 c 0.4803763,-0.28152 1.3609383,-0.379647 1.9324543,-0.215347 0.210215,0.06043 1.831436,1.026697 3.602713,2.147254 l 3.220503,2.037376 0.139059,0.707299 c 0.245311,1.247735 0.86288,2.070274 1.958521,2.608552 l 0.503491,0.24736 5.617726,0.02496 5.617726,0.02496 0,-0.447551 0,-0.447551 -5.438675,-0.02504 -5.438675,-0.02504 -0.512466,-0.251652 c -0.964358,-0.473558 -1.475868,-1.366072 -1.390735,-2.42664 0.05543,-0.690562 0.30355,-1.182566 0.830118,-1.646069 0.787208,-0.692928 -0.287638,-0.644305 14.243059,-0.644305 l 13.00379,0 4.818221,2.629508 4.818219,2.629509 0.02307,5.426222 0.02308,5.426222 -4.740099,-3.98232 c -2.607054,-2.190276 -4.758518,-3.98232 -4.781032,-3.98232 -0.02251,0 -3.535704,1.974038 -7.80709,4.386751 -4.271385,2.412712 -7.770411,4.386709 -7.775614,4.386658 -0.0052,-5.1e-5 -5.065412,-3.201567 -11.24491,-7.114479 z"
       style="opacity:1;fill:#000000;fill-opacity:0" />
    <path
       inkscape:connector-curvature="0"
       id="path4873"
       d="M 20.307968,47.284713 C 14.128469,43.371799 8.8954558,40.02017 8.6790493,39.836647 7.3946813,38.747441 7.6035078,36.678902 9.0855147,35.810389 c 0.4803763,-0.28152 1.3609383,-0.379647 1.9324543,-0.215347 0.210215,0.06043 1.831436,1.026697 3.602713,2.147254 l 3.220503,2.037376 0.139059,0.707299 c 0.245311,1.247735 0.86288,2.070274 1.958521,2.608552 l 0.503491,0.24736 5.617726,0.02496 5.617726,0.02496 0,-0.447551 0,-0.447551 -5.438675,-0.02504 -5.438675,-0.02504 -0.512466,-0.251652 c -0.964358,-0.473558 -1.475868,-1.366072 -1.390735,-2.42664 0.05543,-0.690562 0.30355,-1.182566 0.830118,-1.646069 0.787208,-0.692928 -0.287638,-0.644305 14.243059,-0.644305 l 13.00379,0 4.818221,2.629508 4.818219,2.629509 0.02307,5.426222 0.02308,5.426222 -4.740099,-3.98232 c -2.607054,-2.190276 -4.758518,-3.98232 -4.781032,-3.98232 -0.02251,0 -3.535704,1.974038 -7.80709,4.386751 -4.271385,2.412712 -7.770411,4.386709 -7.775614,4.386658 -0.0052,-5.1e-5 -5.065412,-3.201567 -11.24491,-7.114479 z"
       style="opacity:1;fill:#000000;fill-opacity:0" />
    <path
       inkscape:connector-curvature="0"
       id="path4875"
       d="M 20.307968,47.284713 C 14.128469,43.371799 8.8954558,40.02017 8.6790493,39.836647 7.3946813,38.747441 7.6035078,36.678902 9.0855147,35.810389 c 0.4803763,-0.28152 1.3609383,-0.379647 1.9324543,-0.215347 0.210215,0.06043 1.831436,1.026697 3.602713,2.147254 l 3.220503,2.037376 0.139059,0.707299 c 0.245311,1.247735 0.86288,2.070274 1.958521,2.608552 l 0.503491,0.24736 5.617726,0.02496 5.617726,0.02496 0,-0.447551 0,-0.447551 -5.438675,-0.02504 -5.438675,-0.02504 -0.512466,-0.251652 c -0.964358,-0.473558 -1.475868,-1.366072 -1.390735,-2.42664 0.05543,-0.690562 0.30355,-1.182566 0.830118,-1.646069 0.787208,-0.692928 -0.287638,-0.644305 14.243059,-0.644305 l 13.00379,0 4.818221,2.629508 4.818219,2.629509 0.02307,5.426222 0.02308,5.426222 -4.740099,-3.98232 c -2.607054,-2.190276 -4.758518,-3.98232 -4.781032,-3.98232 -0.02251,0 -3.535704,1.974038 -7.80709,4.386751 -4.271385,2.412712 -7.770411,4.386709 -7.775614,4.386658 -0.0052,-5.1e-5 -5.065412,-3.201567 -11.24491,-7.114479 z"
       style="opacity:1;fill:#000000;fill-opacity:0" />
  </g>
  <rect
     style="opacity:1;fill:#ffffff;fill-opacity:0"
     id="rect4890"
     width="6.3563113"
     height="2.775291"
     x="23.097582"
     y="33.471798"
     ry="0.71620411" />
  <rect
     style="opacity:1;fill:#ffffff;fill-opacity:0"
     id="rect4892"
     width="0.62667859"
     height="0.35810205"
     x="28.827215"
     y="36.247089"
     ry="0.17905103" />
  <rect
     style="opacity:1;fill:#ffffff;fill-opacity:0"
     id="rect4894"
     width="12.981199"
     height="4.2076993"
     x="26.051924"
     y="34.008953"
     ry="0.20036659" />
  <rect
     style="opacity:1;fill:#ffffff;fill-opacity:0"
     id="rect4896"
     width="7.1620412"
     height="10.474485"
     x="45.568485"
     y="7.8675022"
     ry="0.200367" />
  <rect
     style="opacity:1;fill:#ffffff;fill-opacity:0"
     id="rect4898"
     width="14.503135"
     height="2.9543421"
     x="22.918531"
     y="33.203224"
     ry="0.200367" />
  <path
     style="opacity:1;fill:#ffffff;fill-opacity:0"
     d="M 18.3152,44.336137 C 11.236635,39.84366 5.3294008,36.057167 5.1880127,35.921709 4.437326,35.202505 4.1643511,33.91052 4.5481767,32.893377 c 0.2238758,-0.593274 0.7809,-1.212702 1.3584331,-1.51062 0.5512316,-0.28435 1.6626917,-0.339748 2.2456975,-0.111932 0.2324709,0.09084 2.0503267,1.19247 4.0396807,2.448065 l 3.617007,2.282901 0.04444,0.608227 c 0.115889,1.586125 1.429796,3.015435 3.093677,3.365399 0.321609,0.06764 2.404993,0.09978 6.468219,0.09978 l 5.993803,0 0,-0.534792 0,-0.534793 -6.199642,-0.02474 -6.199642,-0.02474 -0.47181,-0.213231 c -0.616185,-0.278481 -1.297554,-1.019303 -1.501076,-1.632053 -0.207303,-0.624127 -0.146982,-1.677724 0.126495,-2.20946 0.26473,-0.514727 0.77922,-1.014669 1.316139,-1.278925 0.434057,-0.21363 0.4834,-0.21731 3.26078,-0.243155 l 2.820054,-0.02624 0.760967,0.400975 c 3.060955,1.612908 6.802919,1.627412 9.923816,0.03847 l 0.847953,-0.431718 6.327349,0 6.327349,0 5.632335,3.072623 5.632335,3.072624 0.02109,3.440357 c 0.0116,1.892197 -0.0085,4.65866 -0.04476,6.147695 l -0.06586,2.707336 -5.496756,-4.614222 c -3.500439,-2.938425 -5.543925,-4.59612 -5.626636,-4.564381 -0.07144,0.02741 -4.051373,2.265322 -8.844308,4.973134 -4.792935,2.707811 -8.726928,4.919925 -8.742209,4.915809 -0.01528,-0.0041 -5.819334,-3.683149 -12.897899,-8.175626 z"
     id="path4900"
     inkscape:connector-curvature="0" />
  <path
     style="opacity:1;fill:#ffffff;fill-opacity:0"
     d="M 28.475815,34.748662 C 27.482277,34.568563 26.61541,34.281472 25.679499,33.82257 l -0.850493,-0.417019 0.671442,-0.04476 c 0.559551,-0.0373 0.749071,-0.01169 1.137292,0.153702 1.286893,0.54825 3.15584,0.807123 4.661658,0.6457 0.935254,-0.100258 2.116116,-0.388548 2.840262,-0.693407 0.270487,-0.113873 0.52238,-0.139806 1.029543,-0.105995 l 0.671442,0.04476 -0.760967,0.376313 c -0.933533,0.461651 -1.950529,0.796822 -2.942826,0.969864 -0.914331,0.159446 -2.773103,0.157889 -3.661037,-0.0031 z"
     id="path4902"
     inkscape:connector-curvature="0" />
  <rect
     style="opacity:1;fill:#ffffff;fill-opacity:0"
     id="rect4906"
     width="8.4153986"
     height="1.3428828"
     x="23.54521"
     y="34.635632"
     ry="0.200367" />
  <rect
     style="opacity:1;fill:#ffffff;fill-opacity:0"
     id="rect4908"
     width="13.258164"
     height="2.8666296"
     x="24.228537"
     y="33.266415"
     ry="0.200367" />
  <g
     inkscape:groupmode="layer"
     id="layer1"
     inkscape:label="Layer 1"
     style="display:none">
    <rect
       style="opacity:1;fill:none;fill-opacity:0;stroke:none"
       id="rect4913"
       width="13.80944"
       height="2.1775374"
       x="23.374062"
       y="33.266418"
       ry="0.200367" />
  </g>
  <rect
     style="opacity:1;fill:#ffffff;fill-opacity:0"
     id="rect4911"
     width="4.2999454"
     height="2.4807377"
     x="22.657404"
     y="33.018345"
     ry="0.200367" />
  <g
     sodipodi:type="inkscape:box3d"
     id="g4917"
     style="opacity:1;fill:none;fill-opacity:0;stroke:none"
     inkscape:perspectiveID="#perspective4915"
     inkscape:corner0="0.089066617 : 0.006705841 : 0 : 1"
     inkscape:corner7="-0.15135598 : 0.0038843275 : 0.25 : 1">
    <path
       sodipodi:type="inkscape:box3dside"
       id="path4927"
       style="fill:#afafde;fill-rule:evenodd;stroke:none;stroke-width:1px;stroke-linecap:butt;stroke-linejoin:round;stroke-opacity:1"
       inkscape:box3dsidetype="13"
       d="m 29.382959,38.227663 8.324253,1.764309 5.983009,-1.818599 -7.844357,-1.108398 z"
       points="37.707212,39.991972 43.690221,38.173373 35.845864,37.064975 29.382959,38.227663 " />
    <path
       sodipodi:type="inkscape:box3dside"
       id="path4919"
       style="fill:#353564;fill-rule:evenodd;stroke:none;stroke-width:1px;stroke-linecap:butt;stroke-linejoin:round;stroke-opacity:1"
       inkscape:box3dsidetype="6"
       d="m 29.382959,35.6369 0,2.590763 6.462905,-1.162688 0,-2.107074 z"
       points="29.382959,38.227663 35.845864,37.064975 35.845864,34.957901 29.382959,35.6369 " />
    <path
       sodipodi:type="inkscape:box3dside"
       id="path4929"
       style="fill:#e9e9ff;fill-rule:evenodd;stroke:none;stroke-width:1px;stroke-linecap:butt;stroke-linejoin:round;stroke-opacity:1"
       inkscape:box3dsidetype="11"
       d="m 35.845864,34.957901 7.844357,0.647294 0,2.568178 -7.844357,-1.108398 z"
       points="43.690221,35.605195 43.690221,38.173373 35.845864,37.064975 35.845864,34.957901 " />
    <path
       sodipodi:type="inkscape:box3dside"
       id="path4921"
       style="fill:#4d4d9f;fill-rule:evenodd;stroke:none;stroke-width:1px;stroke-linecap:butt;stroke-linejoin:round;stroke-opacity:1"
       inkscape:box3dsidetype="5"
       d="m 29.382959,35.6369 8.324253,1.030341 5.983009,-1.062046 -7.844357,-0.647294 z"
       points="37.707212,36.667241 43.690221,35.605195 35.845864,34.957901 29.382959,35.6369 " />
    <path
       sodipodi:type="inkscape:box3dside"
       id="path4925"
       style="fill:#d7d7ff;fill-rule:evenodd;stroke:none;stroke-width:1px;stroke-linecap:butt;stroke-linejoin:round;stroke-opacity:1"
       inkscape:box3dsidetype="14"
       d="m 37.707212,36.667241 0,3.324731 5.983009,-1.818599 0,-2.568178 z"
       points="37.707212,39.991972 43.690221,38.173373 43.690221,35.605195 37.707212,36.667241 " />
    <path
       sodipodi:type="inkscape:box3dside"
       id="path4923"
       style="fill:#8686bf;fill-rule:evenodd;stroke:none;stroke-width:1px;stroke-linecap:butt;stroke-linejoin:round;stroke-opacity:1"
       inkscape:box3dsidetype="3"
       d="m 29.382959,35.6369 8.324253,1.030341 0,3.324731 -8.324253,-1.764309 z"
       points="37.707212,36.667241 37.707212,39.991972 29.382959,38.227663 29.382959,35.6369 " />
  </g>
  <g
     sodipodi:type="inkscape:box3d"
     id="g4931"
     style="opacity:1;fill:none;fill-opacity:0;stroke:none"
     inkscape:perspectiveID="#perspective4915"
     inkscape:corner0="0.035633376 : 0.0029479254 : 0 : 1"
     inkscape:corner7="0.014812075 : 0.0027895569 : 0.25 : 1">
    <path
       sodipodi:type="inkscape:box3dside"
       id="path4941"
       style="fill:#afafde;fill-rule:evenodd;stroke:none;stroke-width:1px;stroke-linecap:butt;stroke-linejoin:round;stroke-opacity:1"
       inkscape:box3dsidetype="13"
       d="m 30.898966,39.60608 0.633966,0.156057 6.41737,-1.534247 -0.614619,-0.100863 z"
       points="31.532932,39.762137 37.950302,38.22789 37.335683,38.127027 30.898966,39.60608 " />
    <path
       sodipodi:type="inkscape:box3dside"
       id="path4933"
       style="fill:#353564;fill-rule:evenodd;stroke:none;stroke-width:1px;stroke-linecap:butt;stroke-linejoin:round;stroke-opacity:1"
       inkscape:box3dsidetype="6"
       d="m 30.898966,39.45316 0,0.15292 6.436717,-1.479053 0,-0.123183 z"
       points="30.898966,39.60608 37.335683,38.127027 37.335683,38.003844 30.898966,39.45316 " />
    <path
       sodipodi:type="inkscape:box3dside"
       id="path4943"
       style="fill:#e9e9ff;fill-rule:evenodd;stroke:none;stroke-width:1px;stroke-linecap:butt;stroke-linejoin:round;stroke-opacity:1"
       inkscape:box3dsidetype="11"
       d="m 37.335683,38.003844 0.614619,0.09884 0,0.125211 -0.614619,-0.100863 z"
       points="37.950302,38.102679 37.950302,38.22789 37.335683,38.127027 37.335683,38.003844 " />
    <path
       sodipodi:type="inkscape:box3dside"
       id="path4935"
       style="fill:#4d4d9f;fill-rule:evenodd;stroke:none;stroke-width:1px;stroke-linecap:butt;stroke-linejoin:round;stroke-opacity:1"
       inkscape:box3dsidetype="5"
       d="m 30.898966,39.45316 0.633966,0.15292 6.41737,-1.503401 -0.614619,-0.09884 z"
       points="31.532932,39.60608 37.950302,38.102679 37.335683,38.003844 30.898966,39.45316 " />
    <path
       sodipodi:type="inkscape:box3dside"
       id="path4939"
       style="fill:#d7d7ff;fill-rule:evenodd;stroke:none;stroke-width:1px;stroke-linecap:butt;stroke-linejoin:round;stroke-opacity:1"
       inkscape:box3dsidetype="14"
       d="m 31.532932,39.60608 0,0.156057 6.41737,-1.534247 0,-0.125211 z"
       points="31.532932,39.762137 37.950302,38.22789 37.950302,38.102679 31.532932,39.60608 " />
    <path
       sodipodi:type="inkscape:box3dside"
       id="path4937"
       style="fill:#8686bf;fill-rule:evenodd;stroke:none;stroke-width:1px;stroke-linecap:butt;stroke-linejoin:round;stroke-opacity:1"
       inkscape:box3dsidetype="3"
       d="m 30.898966,39.45316 0.633966,0.15292 0,0.156057 -0.633966,-0.156057 z"
       points="31.532932,39.60608 31.532932,39.762137 30.898966,39.60608 30.898966,39.45316 " />
  </g>
  <g
     sodipodi:type="inkscape:box3d"
     id="g4945"
     style="opacity:1;fill:none;fill-opacity:0;stroke:none"
     inkscape:perspectiveID="#perspective4915"
     inkscape:corner0="0.21057874 : 0.0085329439 : 0 : 1"
     inkscape:corner7="0.14153885 : 0.005224936 : 0.25 : 1">
    <path
       sodipodi:type="inkscape:box3dside"
       id="path4955"
       style="fill:#afafde;fill-rule:evenodd;stroke:none;stroke-width:1px;stroke-linecap:butt;stroke-linejoin:round;stroke-opacity:1"
       inkscape:box3dsidetype="13"
       d="m 26.433638,36.495148 1.598697,0.271865 6.461851,-0.856428 -1.630501,-0.184849 z"
       points="28.032335,36.767013 34.494186,35.910585 32.863685,35.725736 26.433638,36.495148 " />
    <path
       sodipodi:type="inkscape:box3dside"
       id="path4947"
       style="fill:#353564;fill-rule:evenodd;stroke:none;stroke-width:1px;stroke-linecap:butt;stroke-linejoin:round;stroke-opacity:1"
       inkscape:box3dsidetype="6"
       d="m 26.433638,33.762564 0,2.732584 6.430047,-0.769412 0,-2.264861 z"
       points="26.433638,36.495148 32.863685,35.725736 32.863685,33.460875 26.433638,33.762564 " />
    <path
       sodipodi:type="inkscape:box3dside"
       id="path4957"
       style="fill:#e9e9ff;fill-rule:evenodd;stroke:none;stroke-width:1px;stroke-linecap:butt;stroke-linejoin:round;stroke-opacity:1"
       inkscape:box3dsidetype="11"
       d="m 32.863685,33.460875 1.630501,0.07248 0,2.37723 -1.630501,-0.184849 z"
       points="34.494186,33.533355 34.494186,35.910585 32.863685,35.725736 32.863685,33.460875 " />
    <path
       sodipodi:type="inkscape:box3dside"
       id="path4949"
       style="fill:#4d4d9f;fill-rule:evenodd;stroke:none;stroke-width:1px;stroke-linecap:butt;stroke-linejoin:round;stroke-opacity:1"
       inkscape:box3dsidetype="5"
       d="m 26.433638,33.762564 1.598697,0.1066 6.461851,-0.335809 -1.630501,-0.07248 z"
       points="28.032335,33.869164 34.494186,33.533355 32.863685,33.460875 26.433638,33.762564 " />
    <path
       sodipodi:type="inkscape:box3dside"
       id="path4953"
       style="fill:#d7d7ff;fill-rule:evenodd;stroke:none;stroke-width:1px;stroke-linecap:butt;stroke-linejoin:round;stroke-opacity:1"
       inkscape:box3dsidetype="14"
       d="m 28.032335,33.869164 0,2.897849 6.461851,-0.856428 0,-2.37723 z"
       points="28.032335,36.767013 34.494186,35.910585 34.494186,33.533355 28.032335,33.869164 " />
    <path
       sodipodi:type="inkscape:box3dside"
       id="path4951"
       style="fill:#8686bf;fill-rule:evenodd;stroke:none;stroke-width:1px;stroke-linecap:butt;stroke-linejoin:round;stroke-opacity:1"
       inkscape:box3dsidetype="3"
       d="m 26.433638,33.762564 1.598697,0.1066 0,2.897849 -1.598697,-0.271865 z"
       points="28.032335,33.869164 28.032335,36.767013 26.433638,36.495148 26.433638,33.762564 " />
  </g>
  <g
     sodipodi:type="inkscape:box3d"
     id="g4959"
     style="opacity:1;fill:none;fill-opacity:0;stroke:none"
     inkscape:perspectiveID="#perspective4915"
     inkscape:corner0="0.091113736 : 0.0098562906 : 0 : 1"
     inkscape:corner7="0.038412357 : 0.0048578652 : 0.25 : 1">
    <path
       sodipodi:type="inkscape:box3dside"
       id="path4969"
       style="fill:#afafde;fill-rule:evenodd;stroke:none;stroke-width:1px;stroke-linecap:butt;stroke-linejoin:round;stroke-opacity:1"
       inkscape:box3dsidetype="13"
       d="m 29.327832,37.323736 1.488442,0.27019 6.438879,-1.08543 -1.464005,-0.177169 z"
       points="30.816274,37.593926 37.255153,36.508496 35.791148,36.331327 29.327832,37.323736 " />
    <path
       sodipodi:type="inkscape:box3dside"
       id="path4961"
       style="fill:#353564;fill-rule:evenodd;stroke:none;stroke-width:1px;stroke-linecap:butt;stroke-linejoin:round;stroke-opacity:1"
       inkscape:box3dsidetype="6"
       d="m 29.327832,32.742706 0,4.58103 6.463316,-0.992409 0,-3.727071 z"
       points="29.327832,37.323736 35.791148,36.331327 35.791148,32.604256 29.327832,32.742706 " />
    <path
       sodipodi:type="inkscape:box3dside"
       id="path4971"
       style="fill:#e9e9ff;fill-rule:evenodd;stroke:none;stroke-width:1px;stroke-linecap:butt;stroke-linejoin:round;stroke-opacity:1"
       inkscape:box3dsidetype="11"
       d="m 35.791148,32.604256 1.464005,0.02472 0,3.879523 -1.464005,-0.177169 z"
       points="37.255153,32.628973 37.255153,36.508496 35.791148,36.331327 35.791148,32.604256 " />
    <path
       sodipodi:type="inkscape:box3dside"
       id="path4963"
       style="fill:#4d4d9f;fill-rule:evenodd;stroke:none;stroke-width:1px;stroke-linecap:butt;stroke-linejoin:round;stroke-opacity:1"
       inkscape:box3dsidetype="5"
       d="m 29.327832,32.742706 1.488442,0.03769 6.438879,-0.151426 -1.464005,-0.02472 z"
       points="30.816274,32.780399 37.255153,32.628973 35.791148,32.604256 29.327832,32.742706 " />
    <path
       sodipodi:type="inkscape:box3dside"
       id="path4967"
       style="fill:#d7d7ff;fill-rule:evenodd;stroke:none;stroke-width:1px;stroke-linecap:butt;stroke-linejoin:round;stroke-opacity:1"
       inkscape:box3dsidetype="14"
       d="m 30.816274,32.780399 0,4.813527 6.438879,-1.08543 0,-3.879523 z"
       points="30.816274,37.593926 37.255153,36.508496 37.255153,32.628973 30.816274,32.780399 " />
    <path
       sodipodi:type="inkscape:box3dside"
       id="path4965"
       style="fill:#8686bf;fill-rule:evenodd;stroke:none;stroke-width:1px;stroke-linecap:butt;stroke-linejoin:round;stroke-opacity:1"
       inkscape:box3dsidetype="3"
       d="m 29.327832,32.742706 1.488442,0.03769 0,4.813527 -1.488442,-0.27019 z"
       points="30.816274,32.780399 30.816274,37.593926 29.327832,37.323736 29.327832,32.742706 " />
  </g>
  <rect
     style="opacity:1;fill:none;fill-opacity:0;stroke:none"
     id="rect4973"
     width="6.091589"
     height="3.4179051"
     x="25.19327"
     y="34.120892"
     ry="0.200367" />
  <rect
     style="opacity:1;fill:none;fill-opacity:0;stroke:none"
     id="rect4975"
     width="12.817146"
     height="3.3903401"
     x="24.393919"
     y="33.266418"
     ry="1.69517"
     rx="0" />
  <rect
     style="opacity:1;fill:none;fill-opacity:0;stroke:none"
     id="rect4977"
     width="2.7288115"
     height="2.3980465"
     x="31.202168"
     y="36.270866"
     ry="1.1990232" />
</svg>
