<?xml version="1.0" encoding="UTF-8" standalone="no"?>
<svg
   xmlns:dc="http://purl.org/dc/elements/1.1/"
   xmlns:cc="http://creativecommons.org/ns#"
   xmlns:rdf="http://www.w3.org/1999/02/22-rdf-syntax-ns#"
   xmlns:svg="http://www.w3.org/2000/svg"
   xmlns="http://www.w3.org/2000/svg"
   xmlns:sodipodi="http://sodipodi.sourceforge.net/DTD/sodipodi-0.dtd"
   xmlns:inkscape="http://www.inkscape.org/namespaces/inkscape"
   version="1.1"
   width="64"
   height="64"
   viewBox="0 0 64 64"
   id="svg2"
   inkscape:version="0.91 r13725"
   sodipodi:docname="benefits_transport.svg">
  <metadata
     id="metadata58">
    <rdf:RDF>
      <cc:Work
         rdf:about="">
        <dc:format>image/svg+xml</dc:format>
        <dc:type
           rdf:resource="http://purl.org/dc/dcmitype/StillImage" />
      </cc:Work>
    </rdf:RDF>
  </metadata>
  <sodipodi:namedview
     pagecolor="#ffffff"
     bordercolor="#666666"
     borderopacity="1"
     objecttolerance="10"
     gridtolerance="10"
     guidetolerance="10"
     inkscape:pageopacity="0"
     inkscape:pageshadow="2"
     inkscape:window-width="1920"
     inkscape:window-height="1140"
     id="namedview56"
     showgrid="false"
     inkscape:zoom="3.6875"
     inkscape:cx="32"
     inkscape:cy="32"
     inkscape:window-x="0"
     inkscape:window-y="0"
     inkscape:window-maximized="1"
     inkscape:current-layer="svg2" />
  <style
     id="style4">.s0{fill:none;stroke:#333433;}</style>
  <defs
     id="defs6">
    <clipPath
       id="clipPath8">
      <path
         d="m0 66 66 0L66 0 0 0 0 66z"
         id="path10" />
    </clipPath>
    <clipPath
       id="clipPath12">
      <path
         d="m0 66 66 0L66 0 0 0 0 66z"
         id="path14" />
    </clipPath>
    <clipPath
       id="clipPath16">
      <path
         d="m0 66 66 0L66 0 0 0 0 66z"
         id="path18" />
    </clipPath>
    <clipPath
       id="clipPath20">
      <path
         d="m0 66 66 0L66 0 0 0 0 66z"
         id="path22" />
    </clipPath>
    <clipPath
       id="clipPath24">
      <path
         d="m0 66 66 0L66 0 0 0 0 66z"
         id="path26" />
    </clipPath>
  </defs>
  <g
     transform="matrix(1.3577239,0,0,-1.3577239,49.092309,31.079599)"
     id="g32">
    <path
       d="m 0,0 -4.4,4 -1.3,0 0,-7.7 5.7,0 0,3.7 z"
       class="s0"
       id="path34"
       inkscape:connector-curvature="0"
       style="fill:none;stroke:#333433" />
  </g>
  <g
     transform="matrix(1.3577239,0,0,-1.3577239,44.923688,21.083628)"
     id="g36">
    <path
       d="m 0,0 -5,0 0,-9 c 0,-1.1 -0.9,-2 -2,-2 l -15.2,0 0,-4.4 c 0,-1.1 0.9,-2 2,-2 l 1.9,0 c 0,0 0,0.1 0,0.1 0,2.1 1.7,3.8 3.8,3.8 2.1,0 3.8,-1.7 3.8,-3.8 0,0 0,-0.1 0,-0.1 l 5.8,0 c 0,0 0,0.1 0,0.1 0,2.1 1.7,3.8 3.8,3.8 2.1,0 3.8,-1.7 3.8,-3.8 0,0 0,-0.1 0,-0.1 l 1.6,0 c 1.1,0 2,0.9 2,2 l 0,8.7 L 0,0 Z"
       class="s0"
       id="path38"
       inkscape:connector-curvature="0"
       style="fill:none;stroke:#333433" />
  </g>
  <g
     transform="matrix(1.3577239,0,0,-1.3577239,30.293671,44.601171)"
     id="g40">
    <path
       d="m 0,0 c 0,-2.1 -1.7,-3.8 -3.8,-3.8 -2.1,0 -3.8,1.7 -3.8,3.8 0,2.1 1.7,3.8 3.8,3.8 C -1.7,3.8 0,2.1 0,0 Z"
       class="s0"
       id="path42"
       inkscape:connector-curvature="0"
       style="fill:none;stroke:#333433" />
  </g>
  <g
     transform="matrix(1.3577239,0,0,-1.3577239,48.353842,44.601171)"
     id="g44">
    <path
       d="m 0,0 c 0,-2.1 -1.7,-3.8 -3.8,-3.8 -2.1,0 -3.8,1.7 -3.8,3.8 0,2.1 1.7,3.8 3.8,3.8 C -1.7,3.8 0,2.1 0,0 Z"
       class="s0"
       id="path46"
       inkscape:connector-curvature="0"
       style="fill:none;stroke:#333433" />
  </g>
  <g
     transform="matrix(1.3577239,0,0,-1.3577239,38.133712,33.354872)"
     id="g48">
    <path
       d="m 0,0 c 0,-1.1 -0.9,-2 -2,-2 l -16.1,0 c -1.1,0 -2,0.9 -2,2 l 0,11.3 c 0,1.1 0.9,2 2,2 l 16.1,0 c 1.1,0 2,-0.9 2,-2 L 0,0 Z"
       class="s0"
       id="path50"
       inkscape:connector-curvature="0"
       style="fill:none;stroke:#333433" />
  </g>
  <text
     xml:space="preserve"
     style="font-style:normal;font-variant:normal;font-weight:normal;font-stretch:normal;font-size:7.5px;line-height:125%;font-family:'Arial Black';-inkscape-font-specification:'Arial Black, ';letter-spacing:0px;word-spacing:0px;fill:#000000;fill-opacity:1;stroke:none;stroke-width:1px;stroke-linecap:butt;stroke-linejoin:miter;stroke-opacity:1"
     x="13.559321"
     y="29.016949"
     id="text4211"
     sodipodi:linespacing="125%"><tspan
       sodipodi:role="line"
       id="tspan4213"
       x="13.559321"
       y="29.016949">FREE</tspan></text>
</svg>
