<svg xmlns:svg="http://www.w3.org/2000/svg" xmlns="http://www.w3.org/2000/svg" version="1.1" width="64" height="64" viewBox="0 0 64 64"><style>.s0{fill:none;stroke-width:0.5;stroke:#373535;}.s1{fill:#fff;}.s2{font-size:10.8;}.s3{fill:#373535;}</style><defs><clipPath><path d="m0 65.993 65.993 0L65.993 0 0 0 0 65.993z"/></clipPath><clipPath><path d="m0 65.993 65.993 0L65.993 0 0 0 0 65.993z"/></clipPath><clipPath><path d="m0 65.993 65.993 0L65.993 0 0 0 0 65.993z"/></clipPath></defs><g transform="matrix(0.96980277,0,0,-0.96980277,-1.9396055e-4,64.000097)"><g clip-path="url(#clipPath16)"><g transform="translate(37.4854,40.5674)"><path d="m0 0c0-5.098-4.133-9.232-9.229-9.232-5.099 0-9.232 4.134-9.232 9.232 0 5.098 4.133 9.23 9.232 9.23C-4.133 9.23 0 5.098 0 0z" class="s0"/></g><g transform="translate(36.4932,40.5674)"><path d="m0 0c0-5.098-4.133-9.232-9.229-9.232-5.099 0-9.232 4.134-9.232 9.232 0 5.098 4.133 9.23 9.232 9.23C-4.133 9.23 0 5.098 0 0z" class="s0"/></g><g transform="translate(38.8789,40.5674)"><path d="m0 0c0-5.098-4.133-9.232-9.229-9.232-5.099 0-9.232 4.134-9.232 9.232 0 5.098 4.133 9.23 9.232 9.23C-4.133 9.23 0 5.098 0 0" fill="#fff"/></g><g transform="translate(38.8789,40.5674)"><path d="m0 0c0-5.098-4.133-9.232-9.229-9.232-5.099 0-9.232 4.134-9.232 9.232 0 5.098 4.133 9.23 9.232 9.23C-4.133 9.23 0 5.098 0 0z" class="s0"/></g><g transform="matrix(0.60529415,0,0,0.60529415,65.690355,32.997105)"><path d="m0 0c0-29.832-24.182-54.014-54.014-54.014-29.83 0-54.012 24.182-54.012 54.014 0 29.83 24.182 54.013 54.012 54.013C-24.182 54.013 0 29.83 0 0z" style="fill:none;stroke:#9d8852"/></g></g></g><text x="23.164116" y="32.202797" transform="scale(1.0822684,0.92398522)" font-size="10.8"><tspan x="23.164116" y="32.202797" style="-inkscape-font-specification:Solomon-Sans-Black;fill:#373535;font-family:Solomon Sans Black;font-size:15.4;font-weight:900;writing-mode:lr-tb">$</tspan></text><g transform="matrix(0.96980277,0,0,-0.96980277,-1.9396055e-4,64.000097)"><g clip-path="url(#clipPath48)"><g transform="translate(58.459,24.2246)"><path d="m0 0c0-1.314-1.065-2.382-2.381-2.382l-26.441 0c-1.316 0-2.382 1.068-2.382 2.382l0 10.377c0 1.316 1.066 2.383 2.382 2.383l26.441 0C-1.065 12.76 0 11.693 0 10.377L0 0z" fill="#fff"/></g><g transform="translate(58.459,24.2246)"><path d="m0 0c0-1.314-1.065-2.382-2.381-2.382l-26.441 0c-1.316 0-2.382 1.068-2.382 2.382l0 10.377c0 1.316 1.066 2.383 2.382 2.383l26.441 0C-1.065 12.76 0 11.693 0 10.377L0 0z" class="s0"/></g><g transform="translate(49.3125,29.8818)"><path d="m0 0c0-3.628-2.939-6.567-6.567-6.567-3.627 0-6.567 2.939-6.567 6.567 0 3.627 2.94 6.567 6.567 6.567C-2.939 6.567 0 3.627 0 0" fill="#373535"/></g></g></g><text x="33.852406" y="40.645481" transform="scale(1.082266,0.92398727)" font-size="10.8"><tspan x="33.852406 38.618748" y="40.645481" style="-inkscape-font-specification:Solomon-Sans-Normal;fill:#fff;font-family:Solomon Sans Normal;font-size:8.2;writing-mode:lr-tb">50</tspan></text><g transform="matrix(0.96980277,0,0,-0.96980277,-1.9396055e-4,64.000097)"><g clip-path="url(#clipPath72)"><g transform="translate(32.4971,20.6963)"><path d="m0 0c0-0.498-0.404-0.902-0.903-0.902l-22.225 0c-0.499 0-0.903 0.404-0.903 0.902l0 13.143c0 0.498 0.404 0.902 0.903 0.902l22.225 0C-0.404 14.045 0 13.641 0 13.143L0 0z" fill="#fff"/></g><g transform="translate(32.4971,20.6963)"><path d="m0 0c0-0.498-0.404-0.902-0.903-0.902l-22.225 0c-0.499 0-0.903 0.404-0.903 0.902l0 13.143c0 0.498 0.404 0.902 0.903 0.902l22.225 0C-0.404 14.045 0 13.641 0 13.143L0 0z" class="s0"/></g><path d="m32.497 27.682-24.158 0 0 4.235 24.158 0 0-4.235z" fill="#373535"/></g></g></svg>