<?xml version="1.0" encoding="UTF-8" standalone="no"?>
<svg
   xmlns:dc="http://purl.org/dc/elements/1.1/"
   xmlns:cc="http://creativecommons.org/ns#"
   xmlns:rdf="http://www.w3.org/1999/02/22-rdf-syntax-ns#"
   xmlns:svg="http://www.w3.org/2000/svg"
   xmlns="http://www.w3.org/2000/svg"
   xmlns:sodipodi="http://sodipodi.sourceforge.net/DTD/sodipodi-0.dtd"
   xmlns:inkscape="http://www.inkscape.org/namespaces/inkscape"
   version="1.1"
   width="312.5"
   height="100"
   viewBox="0 0 312.5 100"
   xml:space="preserve"
   id="svg2"
   inkscape:version="0.91 r13725"
   sodipodi:docname="logo.svg"><metadata
     id="metadata18"><rdf:RDF><cc:Work
         rdf:about=""><dc:format>image/svg+xml</dc:format><dc:type
           rdf:resource="http://purl.org/dc/dcmitype/StillImage" /></cc:Work></rdf:RDF></metadata><defs
     id="defs16" /><sodipodi:namedview
     pagecolor="#ffffff"
     bordercolor="#666666"
     borderopacity="1"
     objecttolerance="10"
     gridtolerance="10"
     guidetolerance="10"
     inkscape:pageopacity="0"
     inkscape:pageshadow="2"
     inkscape:window-width="1622"
     inkscape:window-height="844"
     id="namedview14"
     showgrid="false"
     showguides="false"
     inkscape:snap-nodes="false"
     inkscape:snap-global="false"
     inkscape:zoom="4.4826998"
     inkscape:cx="120.3803"
     inkscape:cy="30.612706"
     inkscape:window-x="233"
     inkscape:window-y="0"
     inkscape:window-maximized="0"
     inkscape:current-layer="g8"><inkscape:grid
       type="xygrid"
       id="grid3346" /></sodipodi:namedview><style
     id="style4">.s0{fill:#fff;}.s1{fill:#cec487;}</style><g
     style="display:inline;opacity:1"
     id="g8"
     transform="matrix(0.125,0,0,-0.125,0.4461597,100.66924)"><path
       style="fill:#cec487"
       inkscape:connector-curvature="0"
       id="path12"
       d="m 156.6,119.7 c -6.5,-2 -13.6,-2.9 -21,-2.9 -9.3,0 -17.7,1.4 -25.3,4.3 -7.5,2.9 -14,6.9 -19.3,12.1 -5.3,5.1 -9.4,11.3 -12.3,18.5 -2.9,7.1 -4.3,15 -4.3,23.4 0,8.6 1.4,16.4 4.2,23.6 2.8,7.1 6.7,13.3 11.9,18.5 5.1,5.1 11.3,9.1 18.6,12 7.3,2.8 15.5,4.3 24.6,4.3 4.6,0 8.9,-0.4 13,-1.1 4,-0.8 7.8,-1.7 11.2,-3 3.4,-1.3 6.6,-2.8 9.4,-4.7 2.8,-1.8 5.4,-3.9 7.8,-6.1 L 169,209 c -1,-1.5 -2.2,-2.5 -3.7,-2.8 -1.5,-0.4 -3.2,0 -5,1.1 -1.7,1 -3.5,2 -5.2,3 -1.7,1 -3.7,1.9 -5.8,2.6 -2.1,0.7 -4.5,1.3 -7.2,1.8 -2.7,0.5 -5.7,0.7 -9.2,0.7 -5.6,0 -10.7,-0.9 -15.3,-2.8 -4.5,-1.9 -8.4,-4.6 -11.6,-8.1 -3.2,-3.5 -5.7,-7.8 -7.4,-12.7 -1.7,-5 -2.6,-10.5 -2.6,-16.6 0,-6.5 0.9,-12.3 2.8,-17.5 1.9,-5.1 4.5,-9.5 7.9,-13 3.4,-3.5 7.5,-6.3 12.3,-8.1 4.8,-1.9 10.1,-2.8 16,-2.8 4.2,0 8,0.4 11.3,1.3 3.3,0.9 6.5,2.1 9.7,3.6 l 0,20.7 -14.4,0 c -1.4,0 -2.4,0.4 -3.2,1.1 -0.8,0.8 -1.1,1.7 -1.1,2.8 l 0,12 37.8,0 0,-46.1 c -5.8,-4.3 -11.9,-7.4 -18.5,-9.3 m 108.7,41.1 36.3,0 -13.9,37.9 c -0.7,1.7 -1.4,3.7 -2.1,5.9 -0.7,2.3 -1.5,4.8 -2.2,7.5 -0.7,-2.7 -1.5,-5.2 -2.2,-7.5 -0.7,-2.3 -1.4,-4.3 -2.1,-6.1 l -13.9,-37.8 z m 73.8,-43 -16.4,0 c -1.8,0 -3.3,0.5 -4.5,1.4 -1.2,0.9 -2,2.1 -2.6,3.4 l -8.5,23.3 -47.2,0 -8.5,-23.3 c -0.4,-1.2 -1.2,-2.3 -2.4,-3.3 -1.2,-1 -2.7,-1.5 -4.5,-1.5 l -16.6,0 44.9,114 21.6,0 44.8,-114 m 80.2,17.5 45.6,0 0,-17.5 -66.8,0 0,114 21.2,0 0,-96.5 m 180,96.5 0,-16.9 -50.6,0 0,-31.6 39.9,0 0,-16.3 -39.9,0 0,-32.2 50.6,0 0,-17 -71.9,0 0,114 71.9,0 m 87.2,-54.3 13.2,0 c 4,0 7.5,0.5 10.4,1.5 3,1 5.4,2.4 7.3,4.1 1.9,1.8 3.3,3.9 4.3,6.3 1,2.4 1.4,5.1 1.4,8 0,5.8 -1.9,10.2 -5.7,13.3 -3.8,3.1 -9.6,4.7 -17.5,4.7 l -13.6,0 0,-37.8 z m 0,-15.2 0,-44.5 -21.2,0 0,114 34.8,0 c 7.7,0 14.4,-0.8 19.9,-2.4 5.5,-1.6 10.1,-3.9 13.6,-6.7 3.5,-2.9 6.2,-6.3 7.8,-10.4 1.7,-4 2.5,-8.5 2.5,-13.3 0,-3.8 -0.6,-7.5 -1.7,-10.9 -1.1,-3.4 -2.8,-6.5 -4.9,-9.3 -2.1,-2.8 -4.8,-5.2 -7.9,-7.3 -3.1,-2.1 -6.7,-3.8 -10.7,-5 2.7,-1.5 5,-3.7 6.9,-6.5 l 28.5,-42.1 -19.2,0 c -3.6,0 -6.3,1.4 -7.9,4.3 l -24,36.5 c -0.9,1.4 -1.9,2.3 -3,2.9 -1.1,0.6 -2.7,0.9 -4.8,0.9 l -9.1,0 m 127.9,-44.7 21.3,0 0,114 -21.3,0 0,-114 z m 118,43 36.3,0 -13.9,37.9 c -0.7,1.7 -1.4,3.7 -2.1,5.9 -0.7,2.3 -1.5,4.8 -2.2,7.5 -0.7,-2.7 -1.5,-5.2 -2.2,-7.5 -0.7,-2.3 -1.4,-4.3 -2.1,-6.1 L 932,160.9 Z m 73.8,-43 -16.4,0 c -1.8,0 -3.3,0.5 -4.5,1.4 -1.2,0.9 -2,2.1 -2.6,3.4 l -8.5,23.3 -47.2,0 -8.5,-23.3 c -0.4,-1.2 -1.2,-2.3 -2.4,-3.3 -1.2,-1 -2.7,-1.5 -4.5,-1.5 l -16.6,0 44.9,114 21.6,0 44.8,-114 m 235.5,0 -21.3,0 0,49.8 -53.5,0 0,-49.8 -21.3,0 0,114 21.3,0 0,-49 53.5,0 0,49 21.3,0 0,-114 m 96.5,43 36.4,0 -13.9,37.9 c -0.7,1.7 -1.4,3.7 -2.2,5.9 -0.7,2.3 -1.5,4.8 -2.2,7.5 -0.7,-2.7 -1.5,-5.2 -2.2,-7.5 -0.7,-2.3 -1.4,-4.3 -2.1,-6.1 l -13.9,-37.8 z m 73.8,-43 -16.4,0 c -1.9,0 -3.4,0.5 -4.5,1.4 -1.2,0.9 -2,2.1 -2.6,3.4 l -8.5,23.3 -47.3,0 -8.5,-23.3 c -0.4,-1.2 -1.2,-2.3 -2.4,-3.3 -1.2,-1 -2.7,-1.5 -4.5,-1.5 l -16.6,0 44.9,114 21.6,0 44.8,-114 m 72.6,113.9 c 0.6,-0.1 1.2,-0.2 1.7,-0.5 0.5,-0.2 1,-0.6 1.5,-1 0.5,-0.5 1,-1 1.6,-1.8 l 59.8,-76.3 c -0.2,1.8 -0.3,3.6 -0.4,5.4 -0.1,1.8 -0.2,3.4 -0.2,5 l 0,69.3 18.7,0 0,-114 -10.9,0 c -1.7,0 -3.1,0.3 -4.2,0.8 -1.1,0.6 -2.2,1.5 -3.3,2.8 l -59.5,75.9 c 0.2,-1.7 0.3,-3.4 0.4,-5 0.1,-1.7 0.1,-3.2 0.1,-4.5 l 0,-70 -18.7,0 0,114 11.1,0 c 0.9,0 1.7,0 2.3,-0.1 M 1719.2,175 c 0,6.3 -0.8,11.9 -2.5,16.8 -1.7,5 -4.1,9.2 -7.2,12.6 -3.1,3.4 -6.9,6.1 -11.4,7.9 -4.4,1.8 -9.4,2.7 -15,2.7 l -22.2,0 0,-80.3 22.2,0 c 5.6,0 10.6,0.9 15,2.8 4.5,1.8 8.2,4.5 11.4,7.9 3.1,3.4 5.5,7.7 7.2,12.6 1.6,5 2.5,10.6 2.5,16.8 z m 21.8,0 c 0,-8.4 -1.4,-16 -4.2,-23 -2.8,-7 -6.7,-13 -11.7,-18.1 -5,-5 -11.1,-9 -18.2,-11.8 -7.1,-2.8 -15,-4.2 -23.7,-4.2 l -43.4,0 0,114 43.4,0 c 8.7,0 16.6,-1.4 23.7,-4.2 7.1,-2.8 13.2,-6.7 18.2,-11.7 5.1,-5 9,-11 11.7,-18 2.8,-7 4.2,-14.7 4.2,-23 m 87.2,-39.5 45.6,0 0,-17.5 -66.8,0 0,114 21.2,0 0,-96.5 m 191,39.5 c 0,6.3 -0.8,11.9 -2.5,16.8 -1.7,5 -4.1,9.2 -7.2,12.7 -3.1,3.5 -6.9,6.1 -11.3,8 -4.4,1.8 -9.4,2.8 -15,2.8 -5.6,0 -10.6,-0.9 -15,-2.8 -4.4,-1.8 -8.2,-4.5 -11.4,-8 -3.1,-3.5 -5.5,-7.7 -7.2,-12.7 -1.7,-5 -2.5,-10.6 -2.5,-16.8 0,-6.3 0.8,-11.9 2.5,-16.8 1.7,-5 4.1,-9.2 7.2,-12.6 3.1,-3.4 6.9,-6.1 11.4,-7.9 4.4,-1.9 9.5,-2.8 15,-2.8 5.6,0 10.6,0.9 15,2.8 4.5,1.8 8.2,4.5 11.3,7.9 3.1,3.4 5.5,7.7 7.2,12.6 1.7,5 2.5,10.6 2.5,16.8 z m 21.7,0 c 0,-8.4 -1.4,-16.1 -4.1,-23.2 -2.8,-7.1 -6.7,-13.3 -11.7,-18.5 -5.1,-5.2 -11.1,-9.3 -18.2,-12.2 -7.1,-2.9 -15,-4.4 -23.7,-4.4 -8.6,0 -16.5,1.4 -23.6,4.4 -7.1,2.9 -13.2,7 -18.2,12.2 -5.1,5.2 -9,11.4 -11.8,18.5 -2.8,7.1 -4.2,14.9 -4.2,23.2 0,8.4 1.4,16.1 4.2,23.2 2.8,7.1 6.7,13.3 11.8,18.5 5.1,5.2 11.2,9.3 18.2,12.2 7.1,2.9 15,4.4 23.6,4.4 5.8,0 11.2,-0.7 16.3,-2 5.1,-1.3 9.8,-3.2 14,-5.7 4.3,-2.4 8.1,-5.4 11.5,-8.9 3.4,-3.5 6.3,-7.4 8.6,-11.7 2.3,-4.3 4.1,-9 5.4,-14 1.2,-5 1.9,-10.4 1.9,-15.9 m 52.2,56.9 17.8,0 c 1.8,0 3.3,-0.4 4.6,-1.3 1.2,-0.9 2.1,-2 2.5,-3.5 l 19.4,-68.2 c 0.4,-1.7 0.9,-3.5 1.2,-5.5 0.4,-2 0.8,-4.1 1.2,-6.3 0.4,2.2 0.9,4.3 1.4,6.3 0.5,2 1,3.8 1.6,5.5 l 22.4,68.2 c 0.4,1.2 1.2,2.3 2.5,3.3 1.2,1 2.7,1.5 4.5,1.5 l 6.2,0 c 1.9,0 3.3,-0.4 4.5,-1.3 1.2,-0.9 2,-2 2.6,-3.5 l 22.3,-68.2 c 1.1,-3.3 2.1,-7 3,-11.3 0.7,4.1 1.4,7.9 2.3,11.3 l 19.4,68.2 c 0.3,1.3 1.1,2.5 2.4,3.4 1.3,0.9 2.8,1.4 4.6,1.4 l 16.6,0 -35.4,-114 -19.1,0 -24.9,77.9 c -0.4,1 -0.7,2.1 -1,3.2 -0.3,1.2 -0.6,2.4 -1,3.6 -0.3,-1.3 -0.6,-2.5 -0.9,-3.6 -0.3,-1.2 -0.7,-2.2 -1,-3.2 l -25.1,-77.9 -19.3,0 -35.3,114 m 240.8,-71 36.3,0 -13.9,37.9 c -0.7,1.7 -1.4,3.7 -2.1,5.9 -0.8,2.3 -1.5,4.8 -2.2,7.5 -0.7,-2.7 -1.5,-5.2 -2.2,-7.5 -0.7,-2.3 -1.4,-4.3 -2.1,-6.1 l -13.9,-37.8 z m 73.8,-43 -16.4,0 c -1.8,0 -3.3,0.5 -4.5,1.4 -1.2,0.9 -2,2.1 -2.6,3.4 l -8.5,23.3 -47.2,0 -8.5,-23.3 c -0.4,-1.2 -1.2,-2.3 -2.5,-3.3 -1.2,-1 -2.7,-1.5 -4.5,-1.5 l -16.6,0 44.9,114 21.6,0 44.8,-114" /><path
       style="fill:#433f43;fill-opacity:0"
       d="m 2231.1807,570.89208 c -1.9084,4.59653 -3.8166,9.09307 -5.7248,13.5896 -1.6914,-4.70309 -3.483,-9.30636 -5.3747,-13.90981 -1.8916,-4.60345 -3.9836,-9.00726 -6.1761,-13.11126 L 2088.1216,328.53125 c -2.0927,-4.00381 -4.3883,-6.408 -6.8867,-7.31255 -2.4983,-0.90455 -5.9976,-1.31092 -10.4976,-1.31911 l -37.0999,-0.0675 -0.677,371.89939 44.0999,0.0803 0.4975,-273.29955 c 0.01,-3.59999 -0.086,-7.50017 -0.2787,-11.70053 -0.1923,-4.20035 -0.3847,-8.40071 -0.7769,-12.70143 l 127.0762,232.93171 c 3.9858,7.80727 9.9787,11.71819 18.1787,11.73312 l 7.3,0.0133 c 8.1,0.0147 14.2071,-3.87415 18.2212,-11.66685 l 130.6247,-233.1626 c -0.5082,4.49908 -0.9162,8.89835 -1.224,13.19779 -0.3078,4.29945 -0.4151,8.29926 -0.4217,11.89926 l -0.4975,273.29954 44.0999,0.0803 0.677,-371.89938 -37.0999,-0.0675 c -4.5,-0.008 -8.0007,0.38544 -10.4023,1.28107 -2.4017,0.89563 -4.806,3.29125 -7.0133,7.28724 l -128.9165,228.6657 c -2.1076,4.19617 -4.1155,8.49252 -6.0238,13.08906"
       id="path4283"
       inkscape:connector-curvature="0" /><path
       style="fill:#433f43;fill-opacity:0"
       d="m 1646.2991,505.32738 c 0.042,-22.79996 3.179,-43.39428 9.4119,-61.48297 6.2331,-18.18868 15.161,-33.47245 26.5839,-46.05168 11.4229,-12.57923 25.3404,-22.15391 41.5525,-28.82441 16.3124,-6.77031 34.4184,-10.03736 54.5183,-10.00077 19.9,0.0362 37.9938,3.46917 54.1815,10.19865 16.2878,6.72966 30.1701,16.45495 41.6474,28.97586 11.4772,12.52092 20.3491,27.93709 26.516,46.14835 6.1669,18.21126 9.2295,38.71687 9.188,61.51683 -0.042,22.79996 -3.1788,43.29428 -9.4117,61.38297 -6.233,18.08868 -15.1608,33.37245 -26.6835,45.8515 -11.523,12.57904 -25.4404,22.15372 -41.7524,28.72404 -16.312,6.57032 -34.3181,9.93754 -54.2181,9.90132 -20.1,-0.0366 -38.1939,-3.36954 -54.4817,-10.0992 -16.2878,-6.72966 -30.0703,-16.35477 -41.4475,-28.8755 -11.3772,-12.52073 -20.1492,-27.93672 -26.4164,-45.94816 -6.1671,-18.11126 -9.2299,-38.51687 -9.1882,-61.41683 z"
       id="path4281"
       inkscape:connector-curvature="0" /><path
       style="fill:#433f43;fill-opacity:0"
       d="m 1594.5992,505.23328 c -0.051,27.89995 4.3027,53.40792 13.0603,76.7239 8.7576,23.31598 21.2211,43.3387 37.2905,60.16798 16.0694,16.82928 35.3457,29.86439 57.9288,39.20552 22.583,9.34113 47.4746,13.98645 74.8745,14.03633 27.3,0.0497 52.3083,-4.50479 74.7252,-13.764 22.5169,-9.25902 41.8405,-22.22387 57.9711,-38.99453 16.1306,-16.77067 28.6669,-36.74788 37.5093,-60.03182 8.8424,-23.28394 13.2889,-48.77589 13.3396,-76.67584 0.051,-27.89996 -4.3027,-53.40792 -13.0603,-76.72391 -8.7576,-23.31598 -21.2212,-43.3387 -37.2904,-60.26798 -16.0692,-16.92928 -35.3453,-30.06439 -57.8283,-39.40533 -22.4831,-9.34095 -47.3745,-14.08627 -74.6744,-14.13597 -27.3,-0.0497 -52.3085,4.60479 -74.9254,13.86363 -22.6169,9.25885 -41.9409,22.42369 -58.0714,39.19435 -16.1308,16.87067 -28.6673,36.94788 -37.5095,60.13182 -8.8424,23.28394 -13.2889,48.77589 -13.3396,76.67585"
       id="path4279"
       inkscape:connector-curvature="0" /><path
       style="fill:#433f43;fill-opacity:0"
       d="m 1251.9997,504.60961 c 0.041,-22.79997 3.1788,-43.29429 9.4116,-61.28297 6.2328,-17.98869 15.1604,-33.17246 26.5831,-45.65169 11.4228,-12.47922 25.34,-21.9539 41.552,-28.5244 16.312,-6.57032 34.418,-9.83736 54.518,-9.80077 l 88.4998,0.1611 -0.5286,290.39952 -88.4999,-0.16111 c -20.0999,-0.0366 -38.1939,-3.36953 -54.4819,-9.99919 -16.2879,-6.62966 -30.0708,-16.05477 -41.4482,-28.4755 -11.3774,-12.42073 -20.1499,-27.53673 -26.4171,-45.54817 -6.1672,-18.01125 -9.2301,-38.41686 -9.1884,-61.31682 z"
       id="path4277"
       inkscape:connector-curvature="0" /><path
       style="fill:#433f43;fill-opacity:0"
       d="m 1200.2998,504.51551 c -0.051,27.89995 4.3032,53.20792 13.0614,76.1239 8.7585,22.81599 21.2228,42.43871 37.2931,58.76799 16.0703,16.32928 35.3475,28.86439 57.9311,37.90552 22.5838,8.94113 47.4756,13.48645 74.8755,13.53633 l 138.8998,0.25285 0.677,-371.89938 -138.8998,-0.25286 c -27.2999,-0.0497 -52.3081,4.40479 -74.9243,13.26363 -22.6161,8.85885 -41.939,21.42369 -58.0689,37.79436 -16.1296,16.27066 -28.5653,35.84806 -37.5069,58.73182 -8.8415,22.78394 -13.2878,48.17589 -13.3385,76.07584"
       id="path4275"
       inkscape:connector-curvature="0" /><path
       style="fill:#433f43;fill-opacity:0"
       d="m 1079.3132,551.99535 -138.8998,-0.25286 58.67533,-151.19344 c 1.90817,-4.49653 3.81767,-9.69306 5.62837,-15.58978 1.8108,-5.89671 3.7222,-12.19324 5.6344,-18.88977 1.6878,6.70308 3.4762,13.10635 5.2652,19.10962 1.7891,6.00326 3.6796,11.20671 5.5714,15.71016 l 58.1249,151.20607 z"
       id="path4273"
       inkscape:connector-curvature="0" /><path
       style="fill:#433f43;fill-opacity:0"
       d="m 835.36218,689.65148 38.89993,0.0708 c 4.5,0.008 8.10199,-1.08525 10.90617,-3.38015 2.80419,-2.2949 4.80928,-5.09126 6.21565,-8.5887 l 34.96341,-89.7365 166.89976,0.30382 34.6364,89.8632 c 1.0944,3.102 2.9893,5.90545 5.9849,8.31091 2.9956,2.40546 6.5935,3.61201 10.8934,3.61984 l 38.9,0.0708 -148.0228,-372.17008 -50.79988,-0.0925 -149.37676,371.62869"
       id="path4271"
       inkscape:connector-curvature="0" /><path
       style="fill:#433f43;fill-opacity:0"
       d="m 553.6732,683.33853 c 21.18777,6.73858 44.38172,10.08081 69.68168,10.12686 29.89995,0.0544 57.00828,-4.49623 81.02517,-13.75252 24.01671,-9.1563 44.64034,-22.11878 61.67071,-38.7878 17.13038,-16.66884 30.16676,-36.64515 39.40934,-60.02836 9.24259,-23.38321 13.88936,-49.0748 13.94034,-77.07475 0.0517,-28.39995 -4.40133,-54.2081 -13.25872,-77.62426 -8.85739,-23.41617 -21.52096,-43.43925 -37.89053,-60.16908 -16.36957,-16.72983 -36.34606,-29.66621 -59.92927,-38.90916 -23.48321,-9.24276 -49.7748,-13.89063 -78.87475,-13.94361 -14.69997,-0.0268 -28.40195,1.0483 -41.00575,3.12536 -12.60399,2.17706 -24.30961,5.25576 -35.01688,9.23627 -10.70744,4.08052 -20.71635,8.9623 -29.92689,14.74555 -9.21054,5.78324 -17.72236,12.26776 -25.73564,19.55318 l 14.25848,22.82599 c 2.29362,3.50419 5.18961,5.70946 8.68797,6.61583 3.59817,1.00655 7.4998,0.11365 11.80453,-2.47851 4.20436,-2.39235 8.90981,-5.38379 14.31599,-8.77396 5.40637,-3.49016 11.91236,-6.77832 19.61818,-9.9643 7.70581,-3.18598 16.81071,-5.86941 27.31488,-8.15029 10.40398,-2.18107 22.90615,-3.35831 37.20612,-3.33228 20.89997,0.038 39.89375,3.47263 56.78116,10.40339 16.98759,6.83093 31.36973,16.65713 43.34659,29.37895 11.97686,12.72183 21.04881,28.13837 27.41585,46.24999 6.36704,18.11162 9.53008,38.41741 9.48912,60.91737 -0.0426,23.39996 -3.38063,44.29392 -10.11412,62.68169 -6.73348,18.38778 -16.26205,34.07046 -28.58551,46.94804 -12.42346,12.87741 -27.44128,22.65009 -45.05363,29.41804 -17.61216,6.66795 -37.51832,10.03172 -59.51828,9.99167 -8.59999,-0.0157 -16.69907,-0.5304 -24.19705,-1.64405 -7.49817,-1.01366 -14.79543,-2.52694 -21.69214,-4.3395 -6.89671,-1.81256 -13.59251,-4.12475 -19.98759,-6.8364 -6.39507,-2.71164 -12.8896,-5.72347 -19.48322,-9.23548 l 0.14928,-81.99986 57.8999,0.1054 c 3.3,0.006 5.90163,-0.88926 7.90527,-2.88562 2.00345,-1.89635 3.00764,-4.19453 3.01273,-6.99452 l 0.0521,-28.59996 -114.19981,-0.20789 -0.25996,142.79977 c 18.6754,13.53402 38.55698,23.67023 59.74493,30.30881"
       id="path4269"
       inkscape:connector-curvature="0" /><path
       style="fill:#433f43;fill-opacity:0"
       d="m 121.53231,504.34269 c 0.0415,-22.79996 3.179,-43.39428 9.41193,-61.48296 6.23313,-18.18869 15.16096,-33.47246 26.58388,-46.05169 11.42292,-12.57922 25.34037,-22.1539 41.55255,-28.8244 16.31235,-6.77032 34.41833,-10.03736 54.5183,-10.00077 19.89997,0.0362 37.99375,3.46917 54.28152,10.19883 16.28778,6.72966 30.0701,16.45476 41.54732,28.97568 11.47723,12.52091 20.34918,27.93709 26.51604,46.14834 6.16686,18.21126 9.32953,38.71705 9.28803,61.51701 -0.0415,22.79997 -3.17882,43.29429 -9.51176,61.38279 -6.23294,18.08868 -15.16077,33.37246 -26.68351,45.8515 -11.52292,12.57905 -25.44037,22.15373 -41.65236,28.72423 -16.31199,6.57031 -34.41815,9.93736 -54.31811,9.90113 -20.09997,-0.0366 -38.19393,-3.36953 -54.48171,-10.09919 -16.28779,-6.72967 -30.07029,-16.35477 -41.44751,-28.8755 -11.37723,-12.52073 -20.24918,-27.93691 -26.4164,-45.94817 -6.16704,-18.11125 -9.2299,-38.51686 -9.18821,-61.41683 z"
       id="path4267"
       inkscape:connector-curvature="0" /><path
       style="fill:#000000;fill-opacity:0"
       d="m 73.401671,502.46395 c -0.05079,27.89995 4.302783,53.40792 13.060353,76.7239 8.757571,23.31598 21.221146,43.3387 37.290536,60.16799 16.06939,16.82928 35.34569,29.86439 57.92872,39.20551 22.58304,9.34113 47.57462,13.98663 74.87457,14.03633 27.39996,0.0499 52.30829,-4.50479 74.82518,-13.76381 22.5169,-9.25903 41.84053,-22.22387 57.97109,-38.99454 16.13055,-16.77066 28.56694,-36.74805 37.50934,-60.03181 8.8424,-23.28394 13.28881,-48.77589 13.3396,-76.67585 0.0508,-27.89995 -4.30278,-53.40792 -13.06035,-76.7239 -8.75757,-23.31598 -21.22114,-43.3387 -37.29035,-60.26798 -16.06921,-16.92928 -35.34533,-30.06439 -57.82836,-39.40534 -22.48303,-9.34094 -47.37444,-14.08626 -74.77439,-14.13614 -27.29996,-0.0497 -52.30847,4.60478 -74.92536,13.86363 -22.6169,9.25884 -41.94089,22.42369 -58.07145,39.19435 -16.13074,16.87066 -28.567307,36.94806 -37.509526,60.13182 -8.842401,23.28394 -13.288814,48.77589 -13.339603,76.67584"
       id="path10"
       inkscape:connector-curvature="0" /><path
       style="opacity:1;fill:#000000;fill-opacity:0"
       d="m 14.585349,85.537758 c -1.760725,-0.574876 -3.39338,-2.009346 -4.117817,-3.617965 -0.7203638,-1.599572 -0.7482021,-4.685391 -0.05601,-6.208364 1.371499,-3.017591 4.66707,-4.626122 8.180734,-3.992924 1.509072,0.27195 3.499065,1.230208 3.499065,1.684933 0,0.157699 -0.246071,0.568385 -0.546825,0.912635 l -0.546826,0.62591 -0.933085,-0.525795 c -1.020521,-0.575064 -3.004394,-0.853203 -4.322226,-0.605976 -0.460279,0.08635 -1.193847,0.494292 -1.682188,0.935479 -2.603736,2.352319 -2.048365,7.430247 0.962129,8.797036 1.130389,0.513205 3.19674,0.56658 4.287688,0.110753 0.760869,-0.317911 0.773615,-0.345285 0.773615,-1.661441 l 0,-1.338204 -1.17117,-0.06743 -1.171169,-0.06743 -0.06924,-0.83655 -0.06924,-0.836549 2.362469,0 2.36247,0 -0.06243,2.844268 -0.06244,2.844268 -1.310781,0.654934 c -1.749323,0.874051 -4.270255,1.013317 -6.306733,0.348408 z"
       id="path4301"
       inkscape:connector-curvature="0"
       transform="matrix(8,0,0,-8,-3.5692776,805.35392)" /><path
       style="opacity:1;fill:#000000;fill-opacity:0"
       d="m 14.585349,85.537758 c -1.760725,-0.574876 -3.39338,-2.009346 -4.117817,-3.617965 -0.7203638,-1.599572 -0.7482021,-4.685391 -0.05601,-6.208364 1.371499,-3.017591 4.66707,-4.626122 8.180734,-3.992924 1.509072,0.27195 3.499065,1.230208 3.499065,1.684933 0,0.157699 -0.246071,0.568385 -0.546825,0.912635 l -0.546826,0.62591 -0.933085,-0.525795 c -1.020521,-0.575064 -3.004394,-0.853203 -4.322226,-0.605976 -0.460279,0.08635 -1.193847,0.494292 -1.682188,0.935479 -2.603736,2.352319 -2.048365,7.430247 0.962129,8.797036 1.130389,0.513205 3.19674,0.56658 4.287688,0.110753 0.760869,-0.317911 0.773615,-0.345285 0.773615,-1.661441 l 0,-1.338204 -1.17117,-0.06743 -1.171169,-0.06743 -0.06924,-0.83655 -0.06924,-0.836549 2.362469,0 2.36247,0 -0.06243,2.844268 -0.06244,2.844268 -1.310781,0.654934 c -1.749323,0.874051 -4.270255,1.013317 -6.306733,0.348408 z"
       id="path4303"
       inkscape:connector-curvature="0"
       transform="matrix(8,0,0,-8,-3.5692776,805.35392)" /><path
       style="opacity:1;fill:#000000;fill-opacity:0"
       d="m 14.585349,85.537758 c -1.760725,-0.574876 -3.39338,-2.009346 -4.117817,-3.617965 -0.7203638,-1.599572 -0.7482021,-4.685391 -0.05601,-6.208364 1.371499,-3.017591 4.66707,-4.626122 8.180734,-3.992924 1.509072,0.27195 3.499065,1.230208 3.499065,1.684933 0,0.157699 -0.246071,0.568385 -0.546825,0.912635 l -0.546826,0.62591 -0.933085,-0.525795 c -1.020521,-0.575064 -3.004394,-0.853203 -4.322226,-0.605976 -0.460279,0.08635 -1.193847,0.494292 -1.682188,0.935479 -2.603736,2.352319 -2.048365,7.430247 0.962129,8.797036 1.130389,0.513205 3.19674,0.56658 4.287688,0.110753 0.760869,-0.317911 0.773615,-0.345285 0.773615,-1.661441 l 0,-1.338204 -1.17117,-0.06743 -1.171169,-0.06743 -0.06924,-0.83655 -0.06924,-0.836549 2.362469,0 2.36247,0 -0.06243,2.844268 -0.06244,2.844268 -1.310781,0.654934 c -1.749323,0.874051 -4.270255,1.013317 -6.306733,0.348408 z"
       id="path4305"
       inkscape:connector-curvature="0"
       transform="matrix(8,0,0,-8,-3.5692776,805.35392)" /><path
       style="opacity:1;fill:#000000;fill-opacity:0"
       d="m 14.585349,85.537758 c -1.760725,-0.574876 -3.39338,-2.009346 -4.117817,-3.617965 -0.7203638,-1.599572 -0.7482021,-4.685391 -0.05601,-6.208364 1.371499,-3.017591 4.66707,-4.626122 8.180734,-3.992924 1.509072,0.27195 3.499065,1.230208 3.499065,1.684933 0,0.157699 -0.246071,0.568385 -0.546825,0.912635 l -0.546826,0.62591 -0.933085,-0.525795 c -1.020521,-0.575064 -3.004394,-0.853203 -4.322226,-0.605976 -0.460279,0.08635 -1.193847,0.494292 -1.682188,0.935479 -2.603736,2.352319 -2.048365,7.430247 0.962129,8.797036 1.130389,0.513205 3.19674,0.56658 4.287688,0.110753 0.760869,-0.317911 0.773615,-0.345285 0.773615,-1.661441 l 0,-1.338204 -1.17117,-0.06743 -1.171169,-0.06743 -0.06924,-0.83655 -0.06924,-0.836549 2.362469,0 2.36247,0 -0.06243,2.844268 -0.06244,2.844268 -1.310781,0.654934 c -1.749323,0.874051 -4.270255,1.013317 -6.306733,0.348408 z"
       id="path4307"
       inkscape:connector-curvature="0"
       transform="matrix(8,0,0,-8,-3.5692776,805.35392)" /><path
       style="opacity:1;fill:#000000;fill-opacity:0"
       d="m 29.229878,85.555054 c 0,-0.113466 1.213048,-3.275623 2.695661,-7.027015 l 2.695661,-6.820714 1.279536,0 1.279536,0 2.598364,6.636625 c 1.429101,3.650144 2.664649,6.817693 2.745664,7.038997 0.132821,0.362823 0.0206,0.395713 -1.141756,0.33462 l -1.289054,-0.06775 -0.57744,-1.617329 -0.577439,-1.617328 -3.042529,0 -3.042528,0 -0.509694,1.394249 c -0.280331,0.766837 -0.60602,1.519731 -0.723753,1.673098 -0.246032,0.3205 -2.390229,0.38558 -2.390229,0.07255 z m 8.923194,-5.063694 c 0,-0.113814 -1.686205,-4.899926 -2.151598,-6.107077 -0.07786,-0.201957 -0.330602,0.240252 -0.6375,1.115399 -0.279672,0.797511 -0.818063,2.278203 -1.196425,3.290428 l -0.687931,1.840409 2.336727,0 c 1.2852,0 2.336727,-0.06262 2.336727,-0.139159 z"
       id="path4309"
       inkscape:connector-curvature="0"
       transform="matrix(8,0,0,-8,-3.5692776,805.35392)" /><path
       style="opacity:1;fill:#000000;fill-opacity:0"
       d="m 29.229878,85.555054 c 0,-0.113466 1.213048,-3.275623 2.695661,-7.027015 l 2.695661,-6.820714 1.279536,0 1.279536,0 2.598364,6.636625 c 1.429101,3.650144 2.664649,6.817693 2.745664,7.038997 0.132821,0.362823 0.0206,0.395713 -1.141756,0.33462 l -1.289054,-0.06775 -0.57744,-1.617329 -0.577439,-1.617328 -3.042529,0 -3.042528,0 -0.509694,1.394249 c -0.280331,0.766837 -0.60602,1.519731 -0.723753,1.673098 -0.246032,0.3205 -2.390229,0.38558 -2.390229,0.07255 z m 8.923194,-5.063694 c 0,-0.113814 -1.686205,-4.899926 -2.151598,-6.107077 -0.07786,-0.201957 -0.330602,0.240252 -0.6375,1.115399 -0.279672,0.797511 -0.818063,2.278203 -1.196425,3.290428 l -0.687931,1.840409 2.336727,0 c 1.2852,0 2.336727,-0.06262 2.336727,-0.139159 z"
       id="path4311"
       inkscape:connector-curvature="0"
       transform="matrix(8,0,0,-8,-3.5692776,805.35392)" /></g></svg>