<svg xmlns:svg="http://www.w3.org/2000/svg" xmlns="http://www.w3.org/2000/svg" width="64" height="64" version="1.1" viewBox="0 0 64 64"><style>.s0{fill:#fff;}</style><g transform="matrix(1.3807183,0,0,1.3807183,-2.1806839e-4,-0.00324833)" fill="#fff"><path d="m21.6 2c0.3-0.6 0.9-1 1.6-1 0.7 0 1.3 0.4 1.6 1l5.8 11.7c0.3 0.5 0.8 0.9 1.4 1L44.8 16.6c0.7 0.1 1.2 0.6 1.4 1.2 0.2 0.6 0 1.4-0.5 1.8l-9.3 9.1c-0.4 0.4-0.6 1-0.5 1.6l2.2 12.9c0.1 0.7-0.2 1.4-0.7 1.8-0.6 0.4-1.3 0.5-1.9 0.1L24 39c-0.5-0.3-1.1-0.3-1.7 0L10.8 45.1C10.2 45.4 9.5 45.4 8.9 45 8.4 44.6 8.1 43.9 8.2 43.2L10.4 30.4C10.5 29.8 10.3 29.2 9.9 28.8L0.5 19.7C0.1 19.2-0.1 18.5 0.1 17.8 0.3 17.2 0.9 16.7 1.5 16.6l12.9-1.9c0.6-0.1 1.1-0.5 1.4-1L21.6 2z" fill="#fff"/></g></svg>