<?xml version="1.0" encoding="UTF-8" standalone="no"?>
<svg
   xmlns:dc="http://purl.org/dc/elements/1.1/"
   xmlns:cc="http://creativecommons.org/ns#"
   xmlns:rdf="http://www.w3.org/1999/02/22-rdf-syntax-ns#"
   xmlns:svg="http://www.w3.org/2000/svg"
   xmlns="http://www.w3.org/2000/svg"
   xmlns:sodipodi="http://sodipodi.sourceforge.net/DTD/sodipodi-0.dtd"
   xmlns:inkscape="http://www.inkscape.org/namespaces/inkscape"
   width="64"
   height="64"
   viewBox="0 0 64 64"
   version="1.1"
   id="svg2"
   inkscape:version="0.91 r13725"
   sodipodi:docname="box.svg">
  <metadata
     id="metadata14">
    <rdf:RDF>
      <cc:Work
         rdf:about="">
        <dc:format>image/svg+xml</dc:format>
        <dc:type
           rdf:resource="http://purl.org/dc/dcmitype/StillImage" />
      </cc:Work>
    </rdf:RDF>
  </metadata>
  <defs
     id="defs12" />
  <sodipodi:namedview
     pagecolor="#ffffff"
     bordercolor="#666666"
     borderopacity="1"
     objecttolerance="10"
     gridtolerance="10"
     guidetolerance="10"
     inkscape:pageopacity="0"
     inkscape:pageshadow="2"
     inkscape:window-width="831"
     inkscape:window-height="480"
     id="namedview10"
     showgrid="false"
     inkscape:zoom="3.6875"
     inkscape:cx="32"
     inkscape:cy="32"
     inkscape:window-x="854"
     inkscape:window-y="202"
     inkscape:window-maximized="0"
     inkscape:current-layer="g4" />
  <g
     transform="translate(-245.15037,-431.78326)"
     id="g4">
    <path
       d="m308.842 463.791c0 17.493-14.206 31.699-31.699 31.699-17.493 0-31.699-14.206-31.699-31.699 0-17.493 14.206-31.699 31.699-31.699 17.493 0 31.699 14.206 31.699 31.699z"
       style="fill:none;stroke-width:0.587;stroke:#999"
       id="path6" />
    <path
       d="m 260.34432,475.5006 c -1.46437,-1.76451 2.05738,-23.57401 3.90058,-24.15829 4.5111,-1.4323 25.79606,-1.12923 28.27308,0.40215 0.79411,0.49104 0.63675,3.05403 -0.74602,12.13015 -0.96896,6.36158 -2.19289,11.78773 -2.73639,12.1316 -0.54058,0.34387 -7.00124,0.62946 -14.35801,0.63674 -10.65559,0.01 -13.56973,-0.22293 -14.3347,-1.14235 z m 30.10316,-9.50304 c 0.75767,-4.97737 1.57073,-10.04507 1.80531,-11.26172 l 0.42692,-2.21185 -4.91471,0 -4.91471,0 -0.86113,3.41831 c -0.79702,3.16476 -1.05201,3.41101 -3.42996,3.31192 -6.95898,-0.2885 -6.44463,0.0189 -5.88075,-3.513 l 0.51435,-3.21723 -4.72384,0 -4.72383,0 -1.34488,9.0499 c -0.73874,4.97737 -1.54305,10.04507 -1.78492,11.26172 l -0.44004,2.21185 14.4469,0 14.44689,0 z m -25.31813,5.83267 c 0,-0.44294 1.99036,-0.80431 4.42368,-0.80431 2.43331,0 4.42367,0.36137 4.42367,0.80431 0,0.44295 -1.99036,0.80431 -4.42367,0.80431 -2.43332,0 -4.42368,-0.36136 -4.42368,-0.80431 z m 1.31866,-3.98218 c 0.34969,-1.74703 0.18359,-2.45372 -0.57556,-2.45372 -0.7941,0 -0.83344,-0.23312 -0.15445,-0.91067 0.51873,-0.51871 1.37694,-1.30553 2.10548,-1.10738 0.72854,0.19817 1.32739,1.37985 1.32739,2.04137 0,0.48229 -0.36135,0.65276 -0.8043,0.38029 -0.4546,-0.28121 -0.80431,0.37739 -0.80431,1.5139 0,1.10593 -0.35698,2.23079 -0.79264,2.50034 -0.49103,0.30308 -0.60615,-0.44149 -0.30161,-1.96413 z m 5.63013,0 c 0.3497,-1.74703 0.18359,-2.45372 -0.57555,-2.45372 -0.7941,0 -0.83344,-0.23312 -0.15445,-0.91067 0.51872,-0.51871 1.26183,-0.96021 1.99036,-0.76204 0.72855,0.19815 1.44251,1.03598 1.44251,1.69603 0,0.48229 -0.36135,0.65276 -0.80431,0.38029 -0.45461,-0.28121 -0.8043,0.37739 -0.8043,1.5139 0,1.10593 -0.35698,2.23079 -0.79264,2.50034 -0.49104,0.30308 -0.60615,-0.44149 -0.30162,-1.96413 z m 8.99307,-12.39824 0.65859,-2.52366 -3.56109,-0.24916 c -1.9583,-0.13697 -3.66017,-0.13697 -3.78257,0 -0.12239,0.13696 -0.46772,1.39442 -0.76642,2.79467 -0.60323,2.81652 0.36719,3.41247 4.58105,2.8136 1.6902,-0.24041 2.36775,-0.9092 2.87044,-2.83692 z"
       id="path8"
       inkscape:connector-curvature="0"
       style="fill:#999999"
       sodipodi:nodetypes="cccccccccccccccccccccccccssssscscsscscccscsscscccccscccc" />
  </g>
</svg>
