<svg xmlns:svg="http://www.w3.org/2000/svg" xmlns="http://www.w3.org/2000/svg" width="64" height="64" viewBox="0 0 64 64" version="1.1"><g transform="translate(-245.15037,-431.78326)"><path d="m308.842 463.791c0 17.493-14.206 31.699-31.699 31.699-17.493 0-31.699-14.206-31.699-31.699 0-17.493 14.206-31.699 31.699-31.699 17.493 0 31.699 14.206 31.699 31.699z" style="fill:none;stroke-width:0.587;stroke:#999"/><path d="m269.998 472.876c-1.005-1.211 1.412-16.179 2.677-16.58 3.096-0.983 17.704-0.775 19.404 0.276 0.545 0.337 0.437 2.096-0.512 8.325-0.665 4.366-1.505 8.09-1.878 8.326-0.371 0.236-4.805 0.432-9.854 0.437-7.313 0.007-9.313-0.153-9.838-0.784zm20.66-6.522c0.52-3.416 1.078-6.894 1.239-7.729l0.293-1.518-3.373 0-3.373 0-0.591 2.346c-0.547 2.172-0.722 2.341-2.354 2.273-4.776-0.198-4.423 0.013-4.036-2.411l0.353-2.208-3.242 0-3.242 0-0.923 6.211c-0.507 3.416-1.059 6.894-1.225 7.729l-0.302 1.518 9.915 0 9.915 0zm-17.376 4.003c0-0.304 1.366-0.552 3.036-0.552 1.67 0 3.036 0.248 3.036 0.552 0 0.304-1.366 0.552-3.036 0.552-1.67 0-3.036-0.248-3.036-0.552zm0.905-2.733c0.24-1.199 0.126-1.684-0.395-1.684-0.545 0-0.572-0.16-0.106-0.625 0.356-0.356 0.945-0.896 1.445-0.76 0.5 0.136 0.911 0.947 0.911 1.401 0 0.331-0.248 0.448-0.552 0.261-0.312-0.193-0.552 0.259-0.552 1.039 0 0.759-0.245 1.531-0.544 1.716-0.337 0.208-0.416-0.303-0.207-1.348zm3.864 0c0.24-1.199 0.126-1.684-0.395-1.684-0.545 0-0.572-0.16-0.106-0.625 0.356-0.356 0.866-0.659 1.366-0.523 0.5 0.136 0.99 0.711 0.99 1.164 0 0.331-0.248 0.448-0.552 0.261-0.312-0.193-0.552 0.259-0.552 1.039 0 0.759-0.245 1.531-0.544 1.716-0.337 0.208-0.416-0.303-0.207-1.348zm6.172-8.509 0.452-1.732-2.444-0.171c-1.344-0.094-2.512-0.094-2.596 0-0.084 0.094-0.321 0.957-0.526 1.918-0.414 1.933 0.252 2.342 3.144 1.931 1.16-0.165 1.625-0.624 1.97-1.947zm-21.155 6.826c-0.21-0.341 0.741-0.552 2.484-0.552 1.743 0 2.695 0.211 2.484 0.552-0.188 0.304-1.306 0.552-2.484 0.552-1.179 0-2.297-0.248-2.484-0.552zm-1.656-3.864c-0.215-0.348 1.098-0.552 3.556-0.552 2.23 0 3.897 0.236 3.897 0.552 0 0.311-1.553 0.552-3.556 0.552-1.956 0-3.709-0.248-3.897-0.552zm-1.932-3.864c0-0.327 2.024-0.552 4.969-0.552 2.944 0 4.969 0.225 4.969 0.552 0 0.327-2.024 0.552-4.969 0.552-2.944 0-4.969-0.225-4.969-0.552z" fill="#999"/></g></svg>