<svg xmlns:svg="http://www.w3.org/2000/svg" xmlns="http://www.w3.org/2000/svg" width="64" height="64" viewBox="0 0 64 64" version="1.1"><g transform="translate(-245.15037,-431.78326)"><path d="m308.842 463.791c0 17.493-14.206 31.699-31.699 31.699-17.493 0-31.699-14.206-31.699-31.699 0-17.493 14.206-31.699 31.699-31.699 17.493 0 31.699 14.206 31.699 31.699z" style="fill:none;stroke-width:0.587;stroke:#999"/></g><path d="M25.224 44.443C21.759 42.871 12.907 34.946 12.907 33.417c0-1.529 8.852-9.453 12.317-11.026 4.158-1.887 9.208-1.887 13.366 0 3.465 1.572 12.317 9.497 12.317 11.026 0 1.529-8.852 9.453-12.317 11.026-4.158 1.887-9.208 1.887-13.366 0zm13.142-1.525c2.974-1.44 10.734-8.481 10.56-9.582-0.209-1.327-7.764-8.065-10.56-9.419-3.708-1.795-8.506-1.955-12.211-0.407-1.465 0.612-4.715 3.069-7.221 5.46l-4.558 4.347 3.993 4.043c6.899 6.986 13.345 8.777 19.997 5.557zM27.288 38.416c-3.066-3.066-3.066-6.931 0-9.997 3.426-3.426 8.922-2.592 11.135 1.689 1.32 2.552 1.354 3.784 0.175 6.371-2.004 4.397-7.849 5.399-11.311 1.937zm8.833-1.164c1.026-1.026 1.865-2.752 1.865-3.835 0-1.083-0.839-2.809-1.865-3.835-5.265-5.265-12.982 2.347-7.882 7.776 2.191 2.332 5.488 2.287 7.882-0.106zm-6.875-5.735c-0.303-0.491-0.21-1.234 0.208-1.652 0.507-0.507 0.944-0.463 1.312 0.132 0.303 0.491 0.21 1.234-0.208 1.652-0.507 0.507-0.944 0.463-1.312-0.132z" fill="#999"/></svg>