<svg xmlns:svg="http://www.w3.org/2000/svg" xmlns="http://www.w3.org/2000/svg" version="1.1" width="64" height="64" viewBox="0 0 64 64"><style>.s0{fill:none;stroke:#373535;}</style><defs><clipPath><path d="m0 109 109 0L109 0 0 0 0 109z"/></clipPath><clipPath><path d="m0 109 109 0L109 0 0 0 0 109z"/></clipPath><clipPath><path d="m0 109 109 0L109 0 0 0 0 109z"/></clipPath><clipPath><path d="m0 109 109 0L109 0 0 0 0 109z"/></clipPath></defs><g transform="matrix(0.58701809,0,0,-0.58701809,-2.3480724e-4,64)"><g clip-path="url(#clipPath3067)"><g transform="translate(108.5264,54.5137)"><path d="m0 0c0-29.8-24.2-54-54-54-29.8 0-54 24.2-54 54 0 29.8 24.2 54 54 54C-24.2 54 0 29.8 0 0z" style="fill:none;stroke:#9d8852"/></g><g transform="translate(21.5332,71.4443)"><path d="M0 0 50.4 0" class="s0"/></g><g transform="translate(21.5332,62.9775)"><path d="M0 0 50.4 0" class="s0"/></g><g transform="translate(21.5332,54.5127)"><path d="M0 0 50.4 0" class="s0"/></g><g transform="translate(21.5332,46.0469)"><path d="M0 0 50.4 0" class="s0"/></g><g transform="translate(21.5332,37.5801)"><path d="M0 0 50.4 0" class="s0"/></g><g transform="translate(87.8135,55.1309)"><path d="m0 0c0-8.9-7.2-16.1-16.1-16.1-8.9 0-16.1 7.2-16.1 16.1 0 8.9 7.2 16.1 16.1 16.1C-7.2 16.1 0 8.9 0 0" fill="#fff"/></g><g transform="translate(71.5508,68.4795)"><path d="m0 0c-7.4 0-13.3-6-13.3-13.3 0-7.4 6-13.3 13.4-13.3 7.4 0 13.4 6 13.4 13.4C13.4-6 7.4 0 0 0z" class="s0"/></g><g transform="translate(66.0801,56.3037)"><path d="M0 0C1.2-0.9 2.4-1.8 3.9-2.9 6.2-0.3 8.6 2.4 10.9 5 11.5 4.5 12 4.1 12.6 3.6 10.1 0.1 7.6-3.5 4.6-7.7 2.2-5.4 0.3-3.4-1.6-1.5-1.1-1-0.5-0.5 0 0" fill="#373535"/></g></g></g></svg>