<svg xmlns:svg="http://www.w3.org/2000/svg" xmlns="http://www.w3.org/2000/svg" width="64" height="64" viewBox="0 0 64 64" version="1.1"><style>.s0{fill:#999;}</style><style>.s0{fill:#999;}</style><g transform="translate(-245.15037,-431.78326)"><path d="m308.842 463.791c0 17.493-14.206 31.699-31.699 31.699-17.493 0-31.699-14.206-31.699-31.699 0-17.493 14.206-31.699 31.699-31.699 17.493 0 31.699 14.206 31.699 31.699z" style="fill:none;stroke-width:0.587;stroke:#999"/><g transform="matrix(0.06216361,0,0,0.06216361,257.73677,453.60218)" fill="#999"><path d="M515.9 257.9 515.9 0 79.3 0l0 257.9-79.3 79.4 0 19.8 595.3 0 0-19.8-79.4-79.4zM99.2 19.8l396.8 0 0 238.1-396.8 0 0-238.1zm-71.4 317.5 59.5-59.5 420.7 0 59.5 59.5-539.7 0z" fill="#999"/><polygon points="79.3 317.4 515.9 317.4 496 297.6 99.2 297.6 " fill="#999"/></g></g></svg>