<svg xmlns:svg="http://www.w3.org/2000/svg" xmlns="http://www.w3.org/2000/svg" version="1.1" width="312.5" height="100" viewBox="0 0 312.5 100" xml:space="preserve"><style>.s0{fill:#fff;}.s1{fill:#cec487;}</style><g transform="matrix(1.25,0,0,-1.25,0,100)"><g transform="scale(0.1,0.1)"><path d="m262.3 439.8c1.9-4.6 3.8-9.1 5.7-13.6 1.7 4.7 3.5 9.3 5.4 13.9 1.9 4.6 4 9 6.2 13.1l126.2 228.7c2.1 4 4.4 6.4 6.9 7.3 2.5 0.9 6 1.3 10.5 1.3l37.1 0 0-371.9-44.1 0 0 273.3c0 3.6 0.1 7.5 0.3 11.7 0.2 4.2 0.4 8.4 0.8 12.7L289.8 383.6c-4-7.8-10-11.7-18.2-11.7l-7.3 0c-8.1 0-14.2 3.9-18.2 11.7L115.9 617c0.5-4.5 0.9-8.9 1.2-13.2 0.3-4.3 0.4-8.3 0.4-11.9l0-273.3-44.1 0 0 371.9 37.1 0c4.5 0 8-0.4 10.4-1.3 2.4-0.9 4.8-3.3 7-7.3l128.5-228.9c2.1-4.2 4.1-8.5 6-13.1M847.3 504.3c0 22.8-3.1 43.4-9.3 61.5-6.2 18.2-15.1 33.5-26.5 46.1-11.4 12.6-25.3 22.2-41.5 28.9-16.3 6.8-34.4 10.1-54.5 10.1-19.9 0-38-3.4-54.2-10.1-16.3-6.7-30.2-16.4-41.7-28.9-11.5-12.5-20.4-27.9-26.6-46.1-6.2-18.2-9.3-38.7-9.3-61.5 0-22.8 3.1-43.3 9.3-61.4 6.2-18.1 15.1-33.4 26.6-45.9 11.5-12.6 25.4-22.2 41.7-28.8 16.3-6.6 34.3-10 54.2-10 20.1 0 38.2 3.3 54.5 10 16.3 6.7 30.1 16.3 41.5 28.8 11.4 12.5 20.2 27.9 26.5 45.9 6.2 18.1 9.3 38.5 9.3 61.4zm51.7 0c0-27.9-4.4-53.4-13.2-76.7-8.8-23.3-21.3-43.3-37.4-60.1-16.1-16.8-35.4-29.8-58-39.1-22.6-9.3-47.5-13.9-74.9-13.9-27.3 0-52.3 4.6-74.7 13.9-22.5 9.3-41.8 22.3-57.9 39.1-16.1 16.8-28.6 36.8-37.4 60.1-8.8 23.3-13.2 48.8-13.2 76.7 0 27.9 4.4 53.4 13.2 76.7 8.8 23.3 21.3 43.3 37.4 60.2 16.1 16.9 35.4 30 57.9 39.3 22.5 9.3 47.4 14 74.7 14 27.3 0 52.3-4.7 74.9-14 22.6-9.3 41.9-22.5 58-39.3 16.1-16.9 28.6-37 37.4-60.2 8.8-23.3 13.2-48.8 13.2-76.7M1241.6 504.3c0 22.8-3.1 43.3-9.3 61.3-6.2 18-15.1 33.2-26.5 45.7-11.4 12.5-25.3 22-41.5 28.6-16.3 6.6-34.4 9.9-54.5 9.9l-88.5 0 0-290.4 88.5 0c20.1 0 38.2 3.3 54.5 9.9 16.3 6.6 30.1 16 41.5 28.4 11.4 12.4 20.2 27.5 26.5 45.5 6.2 18 9.3 38.4 9.3 61.3zm51.7 0c0-27.9-4.4-53.2-13.2-76.1-8.8-22.8-21.3-42.4-37.4-58.7-16.1-16.3-35.4-28.8-58-37.8-22.6-8.9-47.5-13.4-74.9-13.4l-138.9 0 0 371.9 138.9 0c27.3 0 52.3-4.5 74.9-13.4 22.6-8.9 41.9-21.5 58-37.9 16.1-16.3 28.5-35.9 37.4-58.8 8.8-22.8 13.2-48.2 13.2-76.1M1414.2 456.6l138.9 0-58.4 151.3c-1.9 4.5-3.8 9.7-5.6 15.6-1.8 5.9-3.7 12.2-5.6 18.9-1.7-6.7-3.5-13.1-5.3-19.1-1.8-6-3.7-11.2-5.6-15.7l-58.4-151.1zm243.7-138.1-38.9 0c-4.5 0-8.1 1.1-10.9 3.4-2.8 2.3-4.8 5.1-6.2 8.6l-34.8 89.8-166.9 0-34.8-89.8c-1.1-3.1-3-5.9-6-8.3-3-2.4-6.6-3.6-10.9-3.6l-38.9 0 148.7 371.9 50.8 0 148.7-371.9M1939.6 324.3c-21.2-6.7-44.4-10-69.7-10-29.9 0-57 4.6-81 13.9-24 9.2-44.6 22.2-61.6 38.9-17.1 16.7-30.1 36.7-39.3 60.1-9.2 23.4-13.8 49.1-13.8 77.1 0 28.4 4.5 54.2 13.4 77.6 8.9 23.4 21.6 43.4 38 60.1 16.4 16.7 36.4 29.6 60 38.8 23.5 9.2 49.8 13.8 78.9 13.8 14.7 0 28.4-1.1 41-3.2 12.6-2.2 24.3-5.3 35-9.3 10.7-4.1 20.7-9 29.9-14.8 9.2-5.8 17.7-12.3 25.7-19.6l-14.3-22.8c-2.3-3.5-5.2-5.7-8.7-6.6-3.6-1-7.5-0.1-11.8 2.5-4.2 2.4-8.9 5.4-14.3 8.8-5.4 3.5-11.9 6.8-19.6 10-7.7 3.2-16.8 5.9-27.3 8.2-10.4 2.2-22.9 3.4-37.2 3.4-20.9 0-39.9-3.4-56.8-10.3-17-6.8-31.4-16.6-43.4-29.3-12-12.7-21.1-28.1-27.5-46.2-6.4-18.1-9.6-38.4-9.6-60.9 0-23.4 3.3-44.3 10-62.7 6.7-18.4 16.2-34.1 28.5-47 12.4-12.9 27.4-22.7 45-29.5 17.6-6.7 37.5-10.1 59.5-10.1 8.6 0 16.7 0.5 24.2 1.6 7.5 1 14.8 2.5 21.7 4.3 6.9 1.8 13.6 4.1 20 6.8 6.4 2.7 12.9 5.7 19.5 9.2l0 82-57.9 0c-3.3 0-5.9 0.9-7.9 2.9-2 1.9-3 4.2-3 7l0 28.6 114.2 0 0-142.8c-18.7-13.5-38.6-23.6-59.8-30.2M2368.5 504.3c0 22.8-3.1 43.4-9.3 61.5-6.2 18.2-15.1 33.5-26.5 46.1-11.4 12.6-25.3 22.2-41.5 28.9-16.3 6.8-34.4 10.1-54.5 10.1-19.9 0-38-3.4-54.3-10.1-16.3-6.7-30.1-16.4-41.6-28.9-11.5-12.5-20.4-27.9-26.6-46.1-6.2-18.2-9.4-38.7-9.4-61.5 0-22.8 3.1-43.3 9.4-61.4 6.2-18.1 15.1-33.4 26.6-45.9 11.5-12.6 25.4-22.2 41.6-28.8 16.3-6.6 34.4-10 54.3-10 20.1 0 38.2 3.3 54.5 10 16.3 6.7 30.1 16.3 41.5 28.8 11.4 12.5 20.3 27.9 26.5 45.9 6.2 18.1 9.3 38.5 9.3 61.4zm51.7 0c0-27.9-4.4-53.4-13.2-76.7-8.8-23.3-21.3-43.3-37.4-60.1-16.1-16.8-35.4-29.8-58-39.1-22.6-9.3-47.6-13.9-74.9-13.9-27.4 0-52.3 4.6-74.8 13.9-22.5 9.3-41.8 22.3-57.9 39.1-16.1 16.8-28.5 36.8-37.4 60.1-8.8 23.3-13.2 48.8-13.2 76.7 0 27.9 4.4 53.4 13.2 76.7 8.8 23.3 21.3 43.3 37.4 60.2 16.1 16.9 35.4 30 57.9 39.3 22.5 9.3 47.4 14 74.8 14 27.3 0 52.3-4.7 74.9-14 22.6-9.3 41.9-22.5 58-39.3 16.1-16.9 28.5-37 37.4-60.2 8.8-23.3 13.2-48.8 13.2-76.7" fill="#fff"/><path d="m156.6 119.7c-6.5-2-13.6-2.9-21-2.9-9.3 0-17.7 1.4-25.3 4.3-7.5 2.9-14 6.9-19.3 12.1-5.3 5.1-9.4 11.3-12.3 18.5-2.9 7.1-4.3 15-4.3 23.4 0 8.6 1.4 16.4 4.2 23.6 2.8 7.1 6.7 13.3 11.9 18.5 5.1 5.1 11.3 9.1 18.6 12 7.3 2.8 15.5 4.3 24.6 4.3 4.6 0 8.9-0.4 13-1.1 4-0.8 7.8-1.7 11.2-3 3.4-1.3 6.6-2.8 9.4-4.7 2.8-1.8 5.4-3.9 7.8-6.1l-6.1-9.6c-1-1.5-2.2-2.5-3.7-2.8-1.5-0.4-3.2 0-5 1.1-1.7 1-3.5 2-5.2 3-1.7 1-3.7 1.9-5.8 2.6-2.1 0.7-4.5 1.3-7.2 1.8-2.7 0.5-5.7 0.7-9.2 0.7-5.6 0-10.7-0.9-15.3-2.8-4.5-1.9-8.4-4.6-11.6-8.1-3.2-3.5-5.7-7.8-7.4-12.7-1.7-5-2.6-10.5-2.6-16.6 0-6.5 0.9-12.3 2.8-17.5 1.9-5.1 4.5-9.5 7.9-13 3.4-3.5 7.5-6.3 12.3-8.1 4.8-1.9 10.1-2.8 16-2.8 4.2 0 8 0.4 11.3 1.3 3.3 0.9 6.5 2.1 9.7 3.6l0 20.7-14.4 0c-1.4 0-2.4 0.4-3.2 1.1-0.8 0.8-1.1 1.7-1.1 2.8l0 12 37.8 0 0-46.1c-5.8-4.3-11.9-7.4-18.5-9.3M265.3 161l36.3 0-13.9 37.9c-0.7 1.7-1.4 3.7-2.1 5.9-0.7 2.3-1.5 4.8-2.2 7.5-0.7-2.7-1.5-5.2-2.2-7.5-0.7-2.3-1.4-4.3-2.1-6.1l-13.9-37.8zm73.8-43-16.4 0c-1.8 0-3.3 0.5-4.5 1.4-1.2 0.9-2 2.1-2.6 3.4l-8.5 23.3-47.2 0-8.5-23.3c-0.4-1.2-1.2-2.3-2.4-3.3-1.2-1-2.7-1.5-4.5-1.5l-16.6 0 44.9 114 21.6 0 44.8-114M419.4 135.5l45.6 0 0-17.5-66.8 0 0 114 21.2 0 0-96.5M599.4 232l0-16.9-50.6 0 0-31.6 39.9 0 0-16.3-39.9 0 0-32.2 50.6 0 0-17-71.9 0 0 114 71.9 0M686.6 177.7l13.2 0c4 0 7.5 0.5 10.4 1.5 3 1 5.4 2.4 7.3 4.1 1.9 1.8 3.3 3.9 4.3 6.3 1 2.4 1.4 5.1 1.4 8 0 5.8-1.9 10.2-5.7 13.3-3.8 3.1-9.6 4.7-17.5 4.7l-13.6 0 0-37.8zm0-15.2 0-44.5-21.2 0 0 114 34.8 0c7.7 0 14.4-0.8 19.9-2.4 5.5-1.6 10.1-3.9 13.6-6.7 3.5-2.9 6.2-6.3 7.8-10.4 1.7-4 2.5-8.5 2.5-13.3 0-3.8-0.6-7.5-1.7-10.9-1.1-3.4-2.8-6.5-4.9-9.3-2.1-2.8-4.8-5.2-7.9-7.3-3.1-2.1-6.7-3.8-10.7-5 2.7-1.5 5-3.7 6.9-6.5l28.5-42.1-19.2 0c-3.6 0-6.3 1.4-7.9 4.3l-24 36.5c-0.9 1.4-1.9 2.3-3 2.9-1.1 0.6-2.7 0.9-4.8 0.9l-9.1 0M814.1 118l21.3 0 0 114-21.3 0 0-114zM932.1 161l36.3 0-13.9 37.9c-0.7 1.7-1.4 3.7-2.1 5.9-0.7 2.3-1.5 4.8-2.2 7.5-0.7-2.7-1.5-5.2-2.2-7.5-0.7-2.3-1.4-4.3-2.1-6.1l-13.9-37.8zm73.8-43-16.4 0c-1.8 0-3.3 0.5-4.5 1.4-1.2 0.9-2 2.1-2.6 3.4l-8.5 23.3-47.2 0-8.5-23.3c-0.4-1.2-1.2-2.3-2.4-3.3-1.2-1-2.7-1.5-4.5-1.5l-16.6 0 44.9 114 21.6 0 44.8-114M1241.5 118l-21.3 0 0 49.8-53.5 0 0-49.8-21.3 0 0 114 21.3 0 0-49 53.5 0 0 49 21.3 0 0-114M1338 161l36.4 0-13.9 37.9c-0.7 1.7-1.4 3.7-2.2 5.9-0.7 2.3-1.5 4.8-2.2 7.5-0.7-2.7-1.5-5.2-2.2-7.5-0.7-2.3-1.4-4.3-2.1-6.1l-13.9-37.8zm73.8-43-16.4 0c-1.9 0-3.4 0.5-4.5 1.4-1.2 0.9-2 2.1-2.6 3.4l-8.5 23.3-47.3 0-8.5-23.3c-0.4-1.2-1.2-2.3-2.4-3.3-1.2-1-2.7-1.5-4.5-1.5l-16.6 0 44.9 114 21.6 0 44.8-114M1484.4 231.9c0.6-0.1 1.2-0.2 1.7-0.5 0.5-0.2 1-0.6 1.5-1 0.5-0.5 1-1 1.6-1.8l59.8-76.3c-0.2 1.8-0.3 3.6-0.4 5.4-0.1 1.8-0.2 3.4-0.2 5l0 69.3 18.7 0 0-114-10.9 0c-1.7 0-3.1 0.3-4.2 0.8-1.1 0.6-2.2 1.5-3.3 2.8l-59.5 75.9c0.2-1.7 0.3-3.4 0.4-5 0.1-1.7 0.1-3.2 0.1-4.5l0-70-18.7 0 0 114 11.1 0c0.9 0 1.7 0 2.3-0.1M1719.2 175c0 6.3-0.8 11.9-2.5 16.8-1.7 5-4.1 9.2-7.2 12.6-3.1 3.4-6.9 6.1-11.4 7.9-4.4 1.8-9.4 2.7-15 2.7l-22.2 0 0-80.3 22.2 0c5.6 0 10.6 0.9 15 2.8 4.5 1.8 8.2 4.5 11.4 7.9 3.1 3.4 5.5 7.7 7.2 12.6 1.6 5 2.5 10.6 2.5 16.8zm21.8 0c0-8.4-1.4-16-4.2-23-2.8-7-6.7-13-11.7-18.1-5-5-11.1-9-18.2-11.8-7.1-2.8-15-4.2-23.7-4.2l-43.4 0 0 114 43.4 0c8.7 0 16.6-1.4 23.7-4.2 7.1-2.8 13.2-6.7 18.2-11.7 5.1-5 9-11 11.7-18 2.8-7 4.2-14.7 4.2-23M1828.2 135.5l45.6 0 0-17.5-66.8 0 0 114 21.2 0 0-96.5M2019.2 175c0 6.3-0.8 11.9-2.5 16.8-1.7 5-4.1 9.2-7.2 12.7-3.1 3.5-6.9 6.1-11.3 8-4.4 1.8-9.4 2.8-15 2.8-5.6 0-10.6-0.9-15-2.8-4.4-1.8-8.2-4.5-11.4-8-3.1-3.5-5.5-7.7-7.2-12.7-1.7-5-2.5-10.6-2.5-16.8 0-6.3 0.8-11.9 2.5-16.8 1.7-5 4.1-9.2 7.2-12.6 3.1-3.4 6.9-6.1 11.4-7.9 4.4-1.9 9.5-2.8 15-2.8 5.6 0 10.6 0.9 15 2.8 4.5 1.8 8.2 4.5 11.3 7.9 3.1 3.4 5.5 7.7 7.2 12.6 1.7 5 2.5 10.6 2.5 16.8zm21.7 0c0-8.4-1.4-16.1-4.1-23.2-2.8-7.1-6.7-13.3-11.7-18.5-5.1-5.2-11.1-9.3-18.2-12.2-7.1-2.9-15-4.4-23.7-4.4-8.6 0-16.5 1.4-23.6 4.4-7.1 2.9-13.2 7-18.2 12.2-5.1 5.2-9 11.4-11.8 18.5-2.8 7.1-4.2 14.9-4.2 23.2 0 8.4 1.4 16.1 4.2 23.2 2.8 7.1 6.7 13.3 11.8 18.5 5.1 5.2 11.2 9.3 18.2 12.2 7.1 2.9 15 4.4 23.6 4.4 5.8 0 11.2-0.7 16.3-2 5.1-1.3 9.8-3.2 14-5.7 4.3-2.4 8.1-5.4 11.5-8.9 3.4-3.5 6.3-7.4 8.6-11.7 2.3-4.3 4.1-9 5.4-14 1.2-5 1.9-10.4 1.9-15.9M2093.1 232l17.8 0c1.8 0 3.3-0.4 4.6-1.3 1.2-0.9 2.1-2 2.5-3.5l19.4-68.2c0.4-1.7 0.9-3.5 1.2-5.5 0.4-2 0.8-4.1 1.2-6.3 0.4 2.2 0.9 4.3 1.4 6.3 0.5 2 1 3.8 1.6 5.5l22.4 68.2c0.4 1.2 1.2 2.3 2.5 3.3 1.2 1 2.7 1.5 4.5 1.5l6.2 0c1.9 0 3.3-0.4 4.5-1.3 1.2-0.9 2-2 2.6-3.5l22.3-68.2c1.1-3.3 2.1-7 3-11.3 0.7 4.1 1.4 7.9 2.3 11.3l19.4 68.2c0.3 1.3 1.1 2.5 2.4 3.4 1.3 0.9 2.8 1.4 4.6 1.4l16.6 0-35.4-114-19.1 0-24.9 77.9c-0.4 1-0.7 2.1-1 3.2-0.3 1.2-0.6 2.4-1 3.6-0.3-1.3-0.6-2.5-0.9-3.6-0.3-1.2-0.7-2.2-1-3.2l-25.1-77.9-19.3 0-35.3 114M2333.9 161l36.3 0-13.9 37.9c-0.7 1.7-1.4 3.7-2.1 5.9-0.8 2.3-1.5 4.8-2.2 7.5-0.7-2.7-1.5-5.2-2.2-7.5-0.7-2.3-1.4-4.3-2.1-6.1l-13.9-37.8zm73.8-43-16.4 0c-1.8 0-3.3 0.5-4.5 1.4-1.2 0.9-2 2.1-2.6 3.4l-8.5 23.3-47.2 0-8.5-23.3c-0.4-1.2-1.2-2.3-2.5-3.3-1.2-1-2.7-1.5-4.5-1.5l-16.6 0 44.9 114 21.6 0 44.8-114" fill="#cec487"/></g></g></svg>