<?xml version="1.0" encoding="UTF-8" standalone="no"?>
<svg
   xmlns:dc="http://purl.org/dc/elements/1.1/"
   xmlns:cc="http://creativecommons.org/ns#"
   xmlns:rdf="http://www.w3.org/1999/02/22-rdf-syntax-ns#"
   xmlns:svg="http://www.w3.org/2000/svg"
   xmlns="http://www.w3.org/2000/svg"
   xmlns:sodipodi="http://sodipodi.sourceforge.net/DTD/sodipodi-0.dtd"
   xmlns:inkscape="http://www.inkscape.org/namespaces/inkscape"
   width="24"
   height="24"
   viewBox="0 0 24 24"
   id="svg2"
   version="1.1"
   inkscape:version="0.91 r13725"
   sodipodi:docname="iconmonstr-ruler-26.svg">
  <metadata
     id="metadata10">
    <rdf:RDF>
      <cc:Work
         rdf:about="">
        <dc:format>image/svg+xml</dc:format>
        <dc:type
           rdf:resource="http://purl.org/dc/dcmitype/StillImage" />
        <dc:title></dc:title>
      </cc:Work>
    </rdf:RDF>
  </metadata>
  <defs
     id="defs8" />
  <sodipodi:namedview
     pagecolor="#ffffff"
     bordercolor="#666666"
     borderopacity="1"
     objecttolerance="10"
     gridtolerance="10"
     guidetolerance="10"
     inkscape:pageopacity="0"
     inkscape:pageshadow="2"
     inkscape:window-width="1920"
     inkscape:window-height="1017"
     id="namedview6"
     showgrid="false"
     inkscape:zoom="9.8333333"
     inkscape:cx="12"
     inkscape:cy="12"
     inkscape:window-x="1920"
     inkscape:window-y="610"
     inkscape:window-maximized="1"
     inkscape:current-layer="svg2" />
  <path
     d="M19 0h-14c-2.762 0-5 2.239-5 5v14c0 2.761 2.238 5 5 5h14c2.762 0 5-2.239 5-5v-14c0-2.761-2.238-5-5-5zm3 19c0 1.302-.839 2.401-2 2.816v-2.816h-1v3h-2v-3h-1v3h-2v-3h-1v3h-2v-3h-1v3h-2v-3h-1v3h-2v-3h-1v2.815c-1.161-.414-2-1.513-2-2.815v-14c0-1.302.839-2.401 2-2.816v2.816h1v-3h2v6h1v-6h2v3h1v-3h2v3h1v-3h2v6h1v-6h2v3h1v-2.816c1.161.415 2 1.514 2 2.816v14zm-14.141-9h1.141v6h-1.354v-3.889h-1.488v-1c.893-.041 1.701-.201 1.701-1.111zm8.315 4.667h1.826v1.306h-3.922v-.958c1.529-1.491 2.379-2.244 2.389-3.018 0-.462-.268-.717-.754-.717-.453 0-.816.245-1.168.524l-.424-1.148c.545-.452 1.191-.656 1.833-.656 1.179 0 1.941.74 1.941 1.885.001 1.155-.899 2.043-1.721 2.782z"
     id="path4" />
  <path
     style="opacity:1;fill:#999999;fill-opacity:0;stroke:#000000;stroke-width:0.10169491;stroke-opacity:1"
     d="M 4.1694915,23.876551 C 1.9767743,23.477014 0.37082101,21.747726 0.09448347,19.48859 0.02568895,18.926175 5.3675593e-4,16.03205 0.0238124,11.356855 L 0.05994939,4.0983051 0.29829634,3.4486513 C 0.80647236,2.063534 1.912345,0.89919492 3.2212651,0.37114789 l 0.5922942,-0.2389445 8.1864407,0 8.186441,0 0.592294,0.2389445 c 1.30892,0.52804703 2.414793,1.69238611 2.922968,3.07750341 l 0.238348,0.6496538 0.03614,7.2585499 c 0.02328,4.675195 -0.0019,7.56932 -0.07067,8.131735 -0.239944,1.961609 -1.457235,3.504745 -3.320505,4.209335 l -0.60196,0.22763 -7.677966,0.01719 c -4.2228816,0.0095 -7.8838986,-0.02033 -8.1355935,-0.0662 z m 2.8474577,-3.30367 0,-1.474576 0.4576271,0 0.4576271,0 0,1.474576 0,1.474577 1.0677966,0 1.067797,0 0,-1.474577 0,-1.474576 0.457627,0 0.457627,0 0,1.474576 0,1.474577 1.016949,0 1.016949,0 0,-1.474577 0,-1.474576 0.457627,0 0.457627,0 0,1.474576 0,1.474577 1.067797,0 1.067797,0 0,-1.474577 0,-1.474576 0.457627,0 0.457627,0 0,1.474576 0,1.474577 1.016949,0 1.016949,0 0,-1.474577 0,-1.474576 0.457627,0 0.457627,0 0,1.372881 c 0,1.038246 0.03132,1.372882 0.128477,1.372882 0.280352,0 1.180075,-0.723895 1.479317,-1.190223 0.174346,-0.271694 0.365674,-0.721398 0.425173,-0.999341 0.07238,-0.33809 0.09885,-2.962458 0.07998,-7.92908 L 22.016949,4.3016949 21.782684,3.7932203 C 21.653837,3.5135593 21.425024,3.1527467 21.274209,2.9914144 20.996154,2.6939691 20.163763,2.1152542 20.013988,2.1152542 c -0.04498,0 -0.08179,0.640678 -0.08179,1.4237289 l 0,1.4237288 -0.457627,0 -0.457627,0 0,-1.5254238 0,-1.5254237 -1.016949,0 -1.016949,0 0,3 0,3 -0.457627,0 -0.457627,0 0,-3 0,-3 -1.067797,0 -1.067797,0 0,1.5254237 0,1.5254238 -0.457627,0 -0.457627,0 0,-1.5254238 0,-1.5254237 -1.016949,0 -1.016949,0 0,1.5254237 0,1.5254238 -0.457627,0 -0.457627,0 0,-1.5254238 0,-1.5254237 -1.067797,0 -1.0677966,0 0,3 0,3 -0.4576271,0 -0.4576271,0 0,-3 0,-3 -1.0169492,0 -1.0169492,0 0,1.5254237 0,1.5254238 -0.4576271,0 -0.4576271,0 0,-1.4237288 c 0,-0.7830509 -0.036803,-1.4237289 -0.081785,-1.4237289 -0.1497744,0 -0.9821658,0.5787149 -1.2602203,0.8761602 C 2.5749765,3.1527467 2.3461629,3.5135593 2.2173167,3.7932203 L 1.9830508,4.3016949 1.9548492,11.725424 c -0.018867,4.966622 0.0076,7.59099 0.07998,7.92908 0.0595,0.277943 0.2508282,0.727647 0.4251734,0.999341 0.2992424,0.466328 1.1989644,1.190223 1.4793176,1.190223 0.09716,0 0.1284761,-0.334636 0.1284761,-1.372882 l 0,-1.372881 0.4576271,0 0.4576271,0 0,1.474576 0,1.474577 1.0169492,0 1.0169492,0 0,-1.474577 z"
     id="path4138"
     inkscape:connector-curvature="0" />
</svg>
