<?xml version="1.0" encoding="UTF-8" standalone="no"?>
<!-- Created with Inkscape (http://www.inkscape.org/) -->

<svg
   xmlns:dc="http://purl.org/dc/elements/1.1/"
   xmlns:cc="http://creativecommons.org/ns#"
   xmlns:rdf="http://www.w3.org/1999/02/22-rdf-syntax-ns#"
   xmlns:svg="http://www.w3.org/2000/svg"
   xmlns="http://www.w3.org/2000/svg"
   xmlns:sodipodi="http://sodipodi.sourceforge.net/DTD/sodipodi-0.dtd"
   xmlns:inkscape="http://www.inkscape.org/namespaces/inkscape"
   width="48"
   height="24"
   viewBox="0 0 48 24.000003"
   id="svg2"
   version="1.1"
   inkscape:version="0.91 r13725"
   sodipodi:docname="size.svg">
  <defs
     id="defs4" />
  <sodipodi:namedview
     id="base"
     pagecolor="#ffffff"
     bordercolor="#666666"
     borderopacity="1.0"
     inkscape:pageopacity="0.0"
     inkscape:pageshadow="2"
     inkscape:zoom="11.354956"
     inkscape:cx="23.743944"
     inkscape:cy="17.183985"
     inkscape:document-units="px"
     inkscape:current-layer="svg2"
     showgrid="true"
     inkscape:window-width="1280"
     inkscape:window-height="995"
     inkscape:window-x="3840"
     inkscape:window-y="328"
     inkscape:window-maximized="1"
     units="px"
     height="47px">
    <inkscape:grid
       type="xygrid"
       id="grid4212" />
  </sodipodi:namedview>
  <metadata
     id="metadata7">
    <rdf:RDF>
      <cc:Work
         rdf:about="">
        <dc:format>image/svg+xml</dc:format>
        <dc:type
           rdf:resource="http://purl.org/dc/dcmitype/StillImage" />
        <dc:title></dc:title>
      </cc:Work>
    </rdf:RDF>
  </metadata>
  <g
     inkscape:groupmode="layer"
     id="layer2"
     inkscape:label="Layer 2"
     transform="translate(0,-1028.3622)" />
  <g
     id="g5426"
     style="opacity:0.99999999">
    <path
       style="fill:#666666;fill-rule:evenodd;stroke:none;stroke-width:1;stroke-linecap:butt;stroke-linejoin:miter;stroke-miterlimit:3.5;stroke-dasharray:none;stroke-opacity:1"
       d="m 45.396507,0.31444086 0.9994,0 c 0.33231,0 0.59984,0.26753 0.59984,0.59984 l 0,21.71699014 c 0,0.33231 -0.26753,0.59983 -0.59984,0.59983 l -0.9994,0 c -0.33231,0 -0.59984,-0.26752 -0.59984,-0.59983 l 0,-21.71699014 c 0,-0.33231 0.26753,-0.59984 0.59984,-0.59984 z"
       id="rect4210"
       inkscape:connector-curvature="0" />
    <path
       style="fill:#666666;fill-rule:evenodd;stroke:none;stroke-width:1;stroke-linecap:butt;stroke-linejoin:miter;stroke-miterlimit:3.5;stroke-dasharray:none;stroke-opacity:1"
       d="m 1.21121,0.45376 0.9994,0 c 0.33231,0 0.59984,0.26752 0.59984,0.59983 l 0,21.71699 c 0,0.33231 -0.26753,0.59984 -0.59984,0.59984 l -0.9994,0 c -0.33231,0 -0.59984,-0.26753 -0.59984,-0.59984 l 0,-21.71699 c 0,-0.33231 0.26753,-0.59983 0.59984,-0.59983 z"
       id="rect4210-0"
       inkscape:connector-curvature="0" />
    <path
       style="fill:#666666;fill-rule:evenodd;stroke:none;stroke-width:1;stroke-linecap:butt;stroke-linejoin:miter;stroke-miterlimit:3.5;stroke-dasharray:none;stroke-opacity:1"
       d="m 43.380454,11.986201 9.26e-4,0.121017 c 0.0044,0.575613 -0.455468,1.040201 -1.031096,1.041669 l -37.618348,0.09593 c -0.5756381,0.0015 -1.0425926,-0.460756 -1.0469973,-1.036369 l -9.26e-4,-0.121017 c -0.0044,-0.575623 0.4554578,-1.040201 1.0310959,-1.041669 l 37.6183474,-0.09593 c 0.575628,-0.0015 1.042593,0.460746 1.046998,1.036369 z"
       id="rect4210-1"
       inkscape:connector-curvature="0" />
    <path
       style="fill:#666666;fill-rule:evenodd;stroke:none;stroke-width:1;stroke-linecap:butt;stroke-linejoin:miter;stroke-miterlimit:3.5;stroke-dasharray:none;stroke-opacity:1"
       d="m 10.586684,6.704979 0.849345,1.2305671 c 0.06366,0.092225 0.04163,0.2190916 -0.04939,0.2844614 L 5.4385599,12.491919 c -0.091016,0.06537 -0.2155272,0.04376 -0.2791874,-0.04847 L 4.3100271,11.212877 c -0.063655,-0.09223 -0.041627,-0.219092 0.049392,-0.284462 L 10.307496,6.6565038 c 0.09102,-0.065368 0.215528,-0.043759 0.279188,0.048475 z"
       id="rect4210-1-9"
       inkscape:connector-curvature="0" />
    <path
       style="fill:#666666;fill-rule:evenodd;stroke:none;stroke-width:1;stroke-linecap:butt;stroke-linejoin:miter;stroke-miterlimit:3.5;stroke-dasharray:none;stroke-opacity:1"
       d="m 42.7743,10.887213 0.853718,1.30956 c 0.06244,0.09578 0.03944,0.228611 -0.05158,0.297819 l -5.948076,4.522854 c -0.09102,0.06921 -0.214533,0.04786 -0.277003,-0.04797 l -0.853717,-1.30956 c -0.06244,-0.09578 -0.03944,-0.228611 0.05158,-0.29782 l 5.948077,-4.522853 c 0.09102,-0.06921 0.214587,-0.04777 0.277002,0.04797 z"
       id="rect4210-1-9-0"
       inkscape:connector-curvature="0" />
    <path
       style="fill:#666666;fill-rule:evenodd;stroke:none;stroke-width:1;stroke-linecap:butt;stroke-linejoin:miter;stroke-miterlimit:3.5;stroke-dasharray:none;stroke-opacity:1"
       d="m 43.785976,11.868577 -0.957868,1.148104 c -0.07179,0.08605 -0.199909,0.09883 -0.287291,0.02866 l -5.70994,-4.5853614 c -0.08737,-0.070159 -0.09993,-0.1959105 -0.02813,-0.2819639 l 0.957868,-1.1481034 c 0.07179,-0.086046 0.199916,-0.098843 0.287297,-0.028671 l 5.709941,4.5853622 c 0.08737,0.07016 0.09993,0.19591 0.02813,0.281971 z"
       id="rect4210-1-9-4"
       inkscape:connector-curvature="0" />
    <path
       style="fill:#666666;fill-rule:evenodd;stroke:none;stroke-width:1;stroke-linecap:butt;stroke-linejoin:miter;stroke-miterlimit:3.5;stroke-dasharray:none;stroke-opacity:1"
       d="m 10.980413,16.132455 -0.957875,1.148112 c -0.071782,0.08604 -0.1999084,0.09883 -0.2872903,0.02866 L 4.0253071,12.723868 c -0.087366,-0.07016 -0.099927,-0.19591 -0.028132,-0.281963 l 0.9578747,-1.148112 c 0.071788,-0.08605 0.1999087,-0.09884 0.2872906,-0.02866 l 5.709941,4.585361 c 0.08737,0.07016 0.09993,0.195911 0.02813,0.281964 z"
       id="rect4210-1-9-4-0"
       inkscape:connector-curvature="0" />
    <path
       inkscape:connector-curvature="0"
       id="path5264"
       d="M 7.2826261,15.283683 C 5.8384741,14.125097 4.5845561,13.184892 4.3945029,13.118128 3.8511509,12.927254 3.5821134,12.316797 3.7989196,11.766726 3.8431173,11.654589 4.0313611,11.399685 4.2172391,11.200272 4.5951179,10.794877 10.203065,6.7418315 10.405272,6.7279792 c 0.19028,-0.013035 1.06937,1.2847118 0.960154,1.4174175 -0.04764,0.057885 -0.961954,0.7316 -2.0318092,1.4971436 l -1.9451919,1.3918977 5.9370041,0.02041 c 3.265352,0.01123 10.607268,-0.0086 16.315367,-0.04403 L 40.019159,10.94637 38.425506,9.6760467 C 37.548997,8.9773686 36.831853,8.3618765 36.831853,8.3082865 c 0,-0.1655033 0.99339,-1.2892705 1.115854,-1.2623033 0.184099,0.04054 5.836321,4.5942688 5.839021,4.7042258 0.0013,0.05462 -0.0579,0.149379 -0.13165,0.210585 -0.07488,0.06214 -0.11195,0.181038 -0.08396,0.269243 0.05845,0.184167 0.08766,0.16012 -3.468952,2.855656 -1.373949,1.041307 -2.543042,1.893125 -2.597985,1.892929 -0.172588,-6.17e-4 -1.035498,-1.421577 -0.936051,-1.541403 0.04822,-0.0581 0.737446,-0.596932 1.531616,-1.197403 l 1.443944,-1.091764 -2.654913,-0.02068 c -1.460202,-0.01137 -8.639084,0.0084 -15.953071,0.04403 l -13.2981574,0.06471 1.6483865,1.321009 c 0.9066129,0.726555 1.6496799,1.373401 1.6512609,1.437435 0.0029,0.116931 -0.9567782,1.336684 -1.0516627,1.336684 -0.027868,0 -1.1991785,-0.921403 -2.6029122,-2.047564 z"
       style="opacity:1;fill:#000000;fill-opacity:0;stroke:none;stroke-width:1;stroke-miterlimit:3.5;stroke-dasharray:none;stroke-opacity:1" />
    <path
       inkscape:connector-curvature="0"
       id="path5266"
       d="M 7.2826261,15.283683 C 5.8384741,14.125097 4.5845561,13.184892 4.3945029,13.118128 3.8511509,12.927254 3.5821134,12.316797 3.7989196,11.766726 3.8431173,11.654589 4.0313611,11.399685 4.2172391,11.200272 4.5951179,10.794877 10.203065,6.7418315 10.405272,6.7279792 c 0.19028,-0.013035 1.06937,1.2847118 0.960154,1.4174175 -0.04764,0.057885 -0.961954,0.7316 -2.0318092,1.4971436 l -1.9451919,1.3918977 5.9370041,0.02041 c 3.265352,0.01123 10.607268,-0.0086 16.315367,-0.04403 L 40.019159,10.94637 38.425506,9.6760467 C 37.548997,8.9773686 36.831853,8.3618765 36.831853,8.3082865 c 0,-0.1655033 0.99339,-1.2892705 1.115854,-1.2623033 0.184099,0.04054 5.836321,4.5942688 5.839021,4.7042258 0.0013,0.05462 -0.0579,0.149379 -0.13165,0.210585 -0.07488,0.06214 -0.11195,0.181038 -0.08396,0.269243 0.05845,0.184167 0.08766,0.16012 -3.468952,2.855656 -1.373949,1.041307 -2.543042,1.893125 -2.597985,1.892929 -0.172588,-6.17e-4 -1.035498,-1.421577 -0.936051,-1.541403 0.04822,-0.0581 0.737446,-0.596932 1.531616,-1.197403 l 1.443944,-1.091764 -2.654913,-0.02068 c -1.460202,-0.01137 -8.639084,0.0084 -15.953071,0.04403 l -13.2981574,0.06471 1.6483865,1.321009 c 0.9066129,0.726555 1.6496799,1.373401 1.6512609,1.437435 0.0029,0.116931 -0.9567782,1.336684 -1.0516627,1.336684 -0.027868,0 -1.1991785,-0.921403 -2.6029122,-2.047564 z"
       style="opacity:1;fill:#666666;fill-opacity:0;stroke:none;stroke-width:1;stroke-miterlimit:3.5;stroke-dasharray:none;stroke-opacity:1" />
    <path
       inkscape:connector-curvature="0"
       id="path5268"
       d="M 7.2826261,15.283683 C 5.8384741,14.125097 4.5845561,13.184892 4.3945029,13.118128 3.8511509,12.927254 3.5821134,12.316797 3.7989196,11.766726 3.8431173,11.654589 4.0313611,11.399685 4.2172391,11.200272 4.5951179,10.794877 10.203065,6.7418315 10.405272,6.7279792 c 0.19028,-0.013035 1.06937,1.2847118 0.960154,1.4174175 -0.04764,0.057885 -0.961954,0.7316 -2.0318092,1.4971436 l -1.9451919,1.3918977 5.9370041,0.02041 c 3.265352,0.01123 10.607268,-0.0086 16.315367,-0.04403 L 40.019159,10.94637 38.425506,9.6760467 C 37.548997,8.9773686 36.831853,8.3618765 36.831853,8.3082865 c 0,-0.1655033 0.99339,-1.2892705 1.115854,-1.2623033 0.184099,0.04054 5.836321,4.5942688 5.839021,4.7042258 0.0013,0.05462 -0.0579,0.149379 -0.13165,0.210585 -0.07488,0.06214 -0.11195,0.181038 -0.08396,0.269243 0.05845,0.184167 0.08766,0.16012 -3.468952,2.855656 -1.373949,1.041307 -2.543042,1.893125 -2.597985,1.892929 -0.172588,-6.17e-4 -1.035498,-1.421577 -0.936051,-1.541403 0.04822,-0.0581 0.737446,-0.596932 1.531616,-1.197403 l 1.443944,-1.091764 -2.654913,-0.02068 c -1.460202,-0.01137 -8.639084,0.0084 -15.953071,0.04403 l -13.2981574,0.06471 1.6483865,1.321009 c 0.9066129,0.726555 1.6496799,1.373401 1.6512609,1.437435 0.0029,0.116931 -0.9567782,1.336684 -1.0516627,1.336684 -0.027868,0 -1.1991785,-0.921403 -2.6029122,-2.047564 z"
       style="opacity:1;fill:#666666;fill-opacity:0;stroke:none;stroke-width:1;stroke-miterlimit:3.5;stroke-dasharray:none;stroke-opacity:1" />
    <path
       inkscape:connector-curvature="0"
       id="path5270"
       d="M 7.2826261,15.283683 C 5.8384741,14.125097 4.5845561,13.184892 4.3945029,13.118128 3.8511509,12.927254 3.5821134,12.316797 3.7989196,11.766726 3.8431173,11.654589 4.0313611,11.399685 4.2172391,11.200272 4.5951179,10.794877 10.203065,6.7418315 10.405272,6.7279792 c 0.19028,-0.013035 1.06937,1.2847118 0.960154,1.4174175 -0.04764,0.057885 -0.961954,0.7316 -2.0318092,1.4971436 l -1.9451919,1.3918977 5.9370041,0.02041 c 3.265352,0.01123 10.607268,-0.0086 16.315367,-0.04403 L 40.019159,10.94637 38.425506,9.6760467 C 37.548997,8.9773686 36.831853,8.3618765 36.831853,8.3082865 c 0,-0.1655033 0.99339,-1.2892705 1.115854,-1.2623033 0.184099,0.04054 5.836321,4.5942688 5.839021,4.7042258 0.0013,0.05462 -0.0579,0.149379 -0.13165,0.210585 -0.07488,0.06214 -0.11195,0.181038 -0.08396,0.269243 0.05845,0.184167 0.08766,0.16012 -3.468952,2.855656 -1.373949,1.041307 -2.543042,1.893125 -2.597985,1.892929 -0.172588,-6.17e-4 -1.035498,-1.421577 -0.936051,-1.541403 0.04822,-0.0581 0.737446,-0.596932 1.531616,-1.197403 l 1.443944,-1.091764 -2.654913,-0.02068 c -1.460202,-0.01137 -8.639084,0.0084 -15.953071,0.04403 l -13.2981574,0.06471 1.6483865,1.321009 c 0.9066129,0.726555 1.6496799,1.373401 1.6512609,1.437435 0.0029,0.116931 -0.9567782,1.336684 -1.0516627,1.336684 -0.027868,0 -1.1991785,-0.921403 -2.6029122,-2.047564 z"
       style="opacity:1;fill:#666666;fill-opacity:0;stroke:none;stroke-width:1;stroke-miterlimit:3.5;stroke-dasharray:none;stroke-opacity:1" />
    <path
       inkscape:connector-curvature="0"
       id="path5272"
       d="M 7.2826261,15.283683 C 5.8384741,14.125097 4.5845561,13.184892 4.3945029,13.118128 3.8511509,12.927254 3.5821134,12.316797 3.7989196,11.766726 3.8431173,11.654589 4.0313611,11.399685 4.2172391,11.200272 4.5951179,10.794877 10.203065,6.7418315 10.405272,6.7279792 c 0.19028,-0.013035 1.06937,1.2847118 0.960154,1.4174175 -0.04764,0.057885 -0.961954,0.7316 -2.0318092,1.4971436 l -1.9451919,1.3918977 5.9370041,0.02041 c 3.265352,0.01123 10.607268,-0.0086 16.315367,-0.04403 L 40.019159,10.94637 38.425506,9.6760467 C 37.548997,8.9773686 36.831853,8.3618765 36.831853,8.3082865 c 0,-0.1655033 0.99339,-1.2892705 1.115854,-1.2623033 0.184099,0.04054 5.836321,4.5942688 5.839021,4.7042258 0.0013,0.05462 -0.0579,0.149379 -0.13165,0.210585 -0.07488,0.06214 -0.11195,0.181038 -0.08396,0.269243 0.05845,0.184167 0.08766,0.16012 -3.468952,2.855656 -1.373949,1.041307 -2.543042,1.893125 -2.597985,1.892929 -0.172588,-6.17e-4 -1.035498,-1.421577 -0.936051,-1.541403 0.04822,-0.0581 0.737446,-0.596932 1.531616,-1.197403 l 1.443944,-1.091764 -2.654913,-0.02068 c -1.460202,-0.01137 -8.639084,0.0084 -15.953071,0.04403 l -13.2981574,0.06471 1.6483865,1.321009 c 0.9066129,0.726555 1.6496799,1.373401 1.6512609,1.437435 0.0029,0.116931 -0.9567782,1.336684 -1.0516627,1.336684 -0.027868,0 -1.1991785,-0.921403 -2.6029122,-2.047564 z"
       style="opacity:1;fill:#666666;fill-opacity:0;stroke:none;stroke-width:1;stroke-miterlimit:3.5;stroke-dasharray:none;stroke-opacity:1" />
    <path
       inkscape:connector-curvature="0"
       id="path5274"
       d="M 7.2826261,15.283683 C 5.8384741,14.125097 4.5845561,13.184892 4.3945029,13.118128 3.8511509,12.927254 3.5821134,12.316797 3.7989196,11.766726 3.8431173,11.654589 4.0313611,11.399685 4.2172391,11.200272 4.5951179,10.794877 10.203065,6.7418315 10.405272,6.7279792 c 0.19028,-0.013035 1.06937,1.2847118 0.960154,1.4174175 -0.04764,0.057885 -0.961954,0.7316 -2.0318092,1.4971436 l -1.9451919,1.3918977 5.9370041,0.02041 c 3.265352,0.01123 10.607268,-0.0086 16.315367,-0.04403 L 40.019159,10.94637 38.425506,9.6760467 C 37.548997,8.9773686 36.831853,8.3618765 36.831853,8.3082865 c 0,-0.1655033 0.99339,-1.2892705 1.115854,-1.2623033 0.184099,0.04054 5.836321,4.5942688 5.839021,4.7042258 0.0013,0.05462 -0.0579,0.149379 -0.13165,0.210585 -0.07488,0.06214 -0.11195,0.181038 -0.08396,0.269243 0.05845,0.184167 0.08766,0.16012 -3.468952,2.855656 -1.373949,1.041307 -2.543042,1.893125 -2.597985,1.892929 -0.172588,-6.17e-4 -1.035498,-1.421577 -0.936051,-1.541403 0.04822,-0.0581 0.737446,-0.596932 1.531616,-1.197403 l 1.443944,-1.091764 -2.654913,-0.02068 c -1.460202,-0.01137 -8.639084,0.0084 -15.953071,0.04403 l -13.2981574,0.06471 1.6483865,1.321009 c 0.9066129,0.726555 1.6496799,1.373401 1.6512609,1.437435 0.0029,0.116931 -0.9567782,1.336684 -1.0516627,1.336684 -0.027868,0 -1.1991785,-0.921403 -2.6029122,-2.047564 z"
       style="opacity:1;fill:#666666;fill-opacity:0;stroke:none;stroke-width:1;stroke-miterlimit:3.5;stroke-dasharray:none;stroke-opacity:1" />
    <path
       style="fill:#666666;fill-rule:evenodd;stroke:#000000;stroke-width:0;stroke-linecap:butt;stroke-linejoin:miter;stroke-miterlimit:4;stroke-dasharray:none;stroke-opacity:1"
       d="m 17.100978,0.64116735 1.104363,0 c 0.215035,0 0.388151,0.1732092 0.388151,0.38815035 l 0,1.1043637 c 0,0.2150352 -0.17321,0.3881503 -0.388151,0.3881503 l -1.104363,0 c -0.215036,0 -0.388151,-0.1730211 -0.388151,-0.3881503 l 0,-1.1043637 c 0,-0.21503525 0.173209,-0.38815035 0.388151,-0.38815035 z"
       id="rect4286-30"
       inkscape:connector-curvature="0" />
    <path
       style="fill:#666666;fill-rule:evenodd;stroke:#000000;stroke-width:0;stroke-linecap:butt;stroke-linejoin:miter;stroke-miterlimit:4;stroke-dasharray:none;stroke-opacity:1"
       d="m 21.100979,0.64116735 1.104363,0 c 0.215035,0 0.388151,0.1732092 0.388151,0.38815035 l 0,1.1043637 c 0,0.2150352 -0.17321,0.3881503 -0.388151,0.3881503 l -1.104363,0 c -0.215036,0 -0.388151,-0.1730211 -0.388151,-0.3881503 l 0,-1.1043637 c 0,-0.21503525 0.173209,-0.38815035 0.388151,-0.38815035 z"
       id="rect4286-89"
       inkscape:connector-curvature="0" />
    <path
       style="fill:#666666;fill-rule:evenodd;stroke:#000000;stroke-width:0;stroke-linecap:butt;stroke-linejoin:miter;stroke-miterlimit:4;stroke-dasharray:none;stroke-opacity:1"
       d="m 25.10098,0.64116735 1.104363,0 c 0.215035,0 0.388151,0.1732092 0.388151,0.38815035 l 0,1.1043637 c 0,0.2150352 -0.17321,0.3881503 -0.388151,0.3881503 l -1.104363,0 c -0.215036,0 -0.388151,-0.1730211 -0.388151,-0.3881503 l 0,-1.1043637 c 0,-0.21503525 0.173209,-0.38815035 0.388151,-0.38815035 z"
       id="rect4286-85"
       inkscape:connector-curvature="0" />
    <path
       style="fill:#666666;fill-rule:evenodd;stroke:#000000;stroke-width:0;stroke-linecap:butt;stroke-linejoin:miter;stroke-miterlimit:4;stroke-dasharray:none;stroke-opacity:1"
       d="m 29.10098,0.64116735 1.104363,0 c 0.215035,0 0.388151,0.1732092 0.388151,0.38815035 l 0,1.1043637 c 0,0.2150352 -0.17321,0.3881503 -0.388151,0.3881503 l -1.104363,0 c -0.215036,0 -0.388151,-0.1730211 -0.388151,-0.3881503 l 0,-1.1043637 c 0,-0.21503525 0.173209,-0.38815035 0.388151,-0.38815035 z"
       id="rect4286-87"
       inkscape:connector-curvature="0" />
    <path
       style="fill:#666666;fill-rule:evenodd;stroke:#000000;stroke-width:0;stroke-linecap:butt;stroke-linejoin:miter;stroke-miterlimit:4;stroke-dasharray:none;stroke-opacity:1"
       d="m 33.100981,0.64116735 1.104363,0 c 0.215035,0 0.388151,0.1732092 0.388151,0.38815035 l 0,1.1043637 c 0,0.2150352 -0.17321,0.3881503 -0.388151,0.3881503 l -1.104363,0 c -0.215036,0 -0.388151,-0.1730211 -0.388151,-0.3881503 l 0,-1.1043637 c 0,-0.21503525 0.173209,-0.38815035 0.388151,-0.38815035 z"
       id="rect4286-1"
       inkscape:connector-curvature="0" />
    <path
       style="fill:#666666;fill-rule:evenodd;stroke:#000000;stroke-width:0;stroke-linecap:butt;stroke-linejoin:miter;stroke-miterlimit:4;stroke-dasharray:none;stroke-opacity:1"
       d="m 37.100981,0.64116925 1.104363,0 c 0.215035,0 0.388151,0.1732092 0.388151,0.38815035 l 0,1.1043637 c 0,0.2150352 -0.17321,0.3881503 -0.388151,0.3881503 l -1.104363,0 c -0.215036,0 -0.388151,-0.1730211 -0.388151,-0.3881503 l 0,-1.1043637 c 0,-0.21503525 0.173209,-0.38815035 0.388151,-0.38815035 z"
       id="rect4286-60"
       inkscape:connector-curvature="0" />
    <path
       style="fill:#666666;fill-rule:evenodd;stroke:#000000;stroke-width:0;stroke-linecap:butt;stroke-linejoin:miter;stroke-miterlimit:4;stroke-dasharray:none;stroke-opacity:1"
       d="m 41.100982,0.64116925 1.104363,0 c 0.215035,0 0.388151,0.1732092 0.388151,0.38815035 l 0,1.1043637 c 0,0.2150352 -0.17321,0.3881503 -0.388151,0.3881503 l -1.104363,0 c -0.215036,0 -0.388151,-0.1730211 -0.388151,-0.3881503 l 0,-1.1043637 c 0,-0.21503525 0.173209,-0.38815035 0.388151,-0.38815035 z"
       id="rect4286-51"
       inkscape:connector-curvature="0" />
    <path
       style="fill:#666666;fill-rule:evenodd;stroke:#000000;stroke-width:0;stroke-linecap:butt;stroke-linejoin:miter;stroke-miterlimit:4;stroke-dasharray:none;stroke-opacity:1"
       d="m 13.100978,0.64117005 1.104364,0 c 0.215035,0 0.38815,0.173209 0.38815,0.38815005 l 0,1.1043644 c 0,0.215035 -0.173209,0.38815 -0.38815,0.38815 l -1.104364,0 c -0.215035,0 -0.38815,-0.173021 -0.38815,-0.38815 l 0,-1.1043644 c 0,-0.21503505 0.173209,-0.38815005 0.38815,-0.38815005 z"
       id="rect4286-42"
       inkscape:connector-curvature="0" />
    <path
       style="fill:#666666;fill-rule:evenodd;stroke:#000000;stroke-width:0;stroke-linecap:butt;stroke-linejoin:miter;stroke-miterlimit:4;stroke-dasharray:none;stroke-opacity:1"
       d="m 9.1009784,0.64117005 1.1043636,0 c 0.215036,0 0.388151,0.173209 0.388151,0.38815005 l 0,1.1043644 c 0,0.215035 -0.173209,0.38815 -0.388151,0.38815 l -1.1043636,0 c -0.215035,0 -0.38815,-0.173021 -0.38815,-0.38815 l 0,-1.1043644 c 0,-0.21503505 0.173209,-0.38815005 0.38815,-0.38815005 z"
       id="rect4286-645"
       inkscape:connector-curvature="0" />
    <path
       style="fill:#666666;fill-rule:evenodd;stroke:#000000;stroke-width:0;stroke-linecap:butt;stroke-linejoin:miter;stroke-miterlimit:4;stroke-dasharray:none;stroke-opacity:1"
       d="m 5.1009789,0.64117005 1.104364,0 c 0.2150354,0 0.3881504,0.173209 0.3881504,0.38815005 l 0,1.1043644 c 0,0.215035 -0.173209,0.38815 -0.3881504,0.38815 l -1.104364,0 c -0.215035,0 -0.38815,-0.173021 -0.38815,-0.38815 l 0,-1.1043644 c 0,-0.21503505 0.173209,-0.38815005 0.38815,-0.38815005 z"
       id="rect4286-11"
       inkscape:connector-curvature="0" />
    <path
       style="fill:#666666;fill-rule:evenodd;stroke:#000000;stroke-width:0;stroke-linecap:butt;stroke-linejoin:miter;stroke-miterlimit:4;stroke-dasharray:none;stroke-opacity:1"
       d="m 17.254584,21.10975 1.104364,0 c 0.215035,0 0.388151,0.173209 0.388151,0.38815 l 0,1.104364 c 0,0.215036 -0.17321,0.388151 -0.388151,0.388151 l -1.104364,0 c -0.215036,0 -0.388151,-0.173021 -0.388151,-0.388151 l 0,-1.104364 c 0,-0.215035 0.173209,-0.38815 0.388151,-0.38815 z"
       id="rect4286-30-0"
       inkscape:connector-curvature="0" />
    <path
       style="fill:#666666;fill-rule:evenodd;stroke:#000000;stroke-width:0;stroke-linecap:butt;stroke-linejoin:miter;stroke-miterlimit:4;stroke-dasharray:none;stroke-opacity:1"
       d="m 21.254586,21.10975 1.104363,0 c 0.215035,0 0.388151,0.173209 0.388151,0.38815 l 0,1.104364 c 0,0.215036 -0.17321,0.388151 -0.388151,0.388151 l -1.104363,0 c -0.215036,0 -0.388151,-0.173021 -0.388151,-0.388151 l 0,-1.104364 c 0,-0.215035 0.173209,-0.38815 0.388151,-0.38815 z"
       id="rect4286-89-0"
       inkscape:connector-curvature="0" />
    <path
       style="fill:#666666;fill-rule:evenodd;stroke:#000000;stroke-width:0;stroke-linecap:butt;stroke-linejoin:miter;stroke-miterlimit:4;stroke-dasharray:none;stroke-opacity:1"
       d="m 25.254588,21.10975 1.104363,0 c 0.215035,0 0.388151,0.173209 0.388151,0.38815 l 0,1.104364 c 0,0.215036 -0.17321,0.388151 -0.388151,0.388151 l -1.104363,0 c -0.215036,0 -0.388151,-0.173021 -0.388151,-0.388151 l 0,-1.104364 c 0,-0.215035 0.173209,-0.38815 0.388151,-0.38815 z"
       id="rect4286-85-6"
       inkscape:connector-curvature="0" />
    <path
       style="fill:#666666;fill-rule:evenodd;stroke:#000000;stroke-width:0;stroke-linecap:butt;stroke-linejoin:miter;stroke-miterlimit:4;stroke-dasharray:none;stroke-opacity:1"
       d="m 29.254589,21.10975 1.104363,0 c 0.215035,0 0.388151,0.173209 0.388151,0.38815 l 0,1.104364 c 0,0.215036 -0.17321,0.388151 -0.388151,0.388151 l -1.104363,0 c -0.215036,0 -0.388152,-0.173021 -0.388152,-0.388151 l 0,-1.104364 c 0,-0.215035 0.17321,-0.38815 0.388152,-0.38815 z"
       id="rect4286-87-7"
       inkscape:connector-curvature="0" />
    <path
       style="fill:#666666;fill-rule:evenodd;stroke:#000000;stroke-width:0;stroke-linecap:butt;stroke-linejoin:miter;stroke-miterlimit:4;stroke-dasharray:none;stroke-opacity:1"
       d="m 33.25459,21.10975 1.104363,0 c 0.215035,0 0.388152,0.173209 0.388152,0.38815 l 0,1.104364 c 0,0.215036 -0.173211,0.388151 -0.388152,0.388151 l -1.104363,0 c -0.215036,0 -0.388151,-0.173021 -0.388151,-0.388151 l 0,-1.104364 c 0,-0.215035 0.173209,-0.38815 0.388151,-0.38815 z"
       id="rect4286-1-2"
       inkscape:connector-curvature="0" />
    <path
       style="fill:#666666;fill-rule:evenodd;stroke:#000000;stroke-width:0;stroke-linecap:butt;stroke-linejoin:miter;stroke-miterlimit:4;stroke-dasharray:none;stroke-opacity:1"
       d="m 37.254591,21.109752 1.104363,0 c 0.215035,0 0.388151,0.173209 0.388151,0.38815 l 0,1.104364 c 0,0.215035 -0.17321,0.388151 -0.388151,0.388151 l -1.104363,0 c -0.215036,0 -0.388151,-0.173022 -0.388151,-0.388151 l 0,-1.104364 c 0,-0.215035 0.173209,-0.38815 0.388151,-0.38815 z"
       id="rect4286-60-1"
       inkscape:connector-curvature="0" />
    <path
       style="fill:#666666;fill-rule:evenodd;stroke:#000000;stroke-width:0;stroke-linecap:butt;stroke-linejoin:miter;stroke-miterlimit:4;stroke-dasharray:none;stroke-opacity:1"
       d="m 41.254593,21.109752 1.104363,0 c 0.215035,0 0.388151,0.173209 0.388151,0.38815 l 0,1.104364 c 0,0.215035 -0.17321,0.388151 -0.388151,0.388151 l -1.104363,0 c -0.215036,0 -0.388151,-0.173022 -0.388151,-0.388151 l 0,-1.104364 c 0,-0.215035 0.173209,-0.38815 0.388151,-0.38815 z"
       id="rect4286-51-4"
       inkscape:connector-curvature="0" />
    <path
       style="fill:#666666;fill-rule:evenodd;stroke:#000000;stroke-width:0;stroke-linecap:butt;stroke-linejoin:miter;stroke-miterlimit:4;stroke-dasharray:none;stroke-opacity:1"
       d="m 13.254584,21.109753 1.104364,0 c 0.215035,0 0.38815,0.173209 0.38815,0.38815 l 0,1.104364 c 0,0.215035 -0.173209,0.38815 -0.38815,0.38815 l -1.104364,0 c -0.215035,0 -0.38815,-0.173021 -0.38815,-0.38815 l 0,-1.104364 c 0,-0.215035 0.173209,-0.38815 0.38815,-0.38815 z"
       id="rect4286-42-9"
       inkscape:connector-curvature="0" />
    <path
       style="fill:#666666;fill-rule:evenodd;stroke:#000000;stroke-width:0;stroke-linecap:butt;stroke-linejoin:miter;stroke-miterlimit:4;stroke-dasharray:none;stroke-opacity:1"
       d="m 9.2545841,21.109753 1.1043629,0 c 0.215036,0 0.388151,0.173209 0.388151,0.38815 l 0,1.104364 c 0,0.215035 -0.173209,0.38815 -0.388151,0.38815 l -1.1043629,0 c -0.215035,0 -0.38815,-0.173021 -0.38815,-0.38815 l 0,-1.104364 c 0,-0.215035 0.173209,-0.38815 0.38815,-0.38815 z"
       id="rect4286-645-5"
       inkscape:connector-curvature="0" />
    <path
       style="fill:#666666;fill-rule:evenodd;stroke:#000000;stroke-width:0;stroke-linecap:butt;stroke-linejoin:miter;stroke-miterlimit:4;stroke-dasharray:none;stroke-opacity:1"
       d="m 5.2545831,21.109753 1.104365,0 c 0.215035,0 0.38815,0.173209 0.38815,0.38815 l 0,1.104364 c 0,0.215035 -0.173209,0.38815 -0.38815,0.38815 l -1.104365,0 c -0.215035,0 -0.38815,-0.173021 -0.38815,-0.38815 l 0,-1.104364 c 0,-0.215035 0.173209,-0.38815 0.38815,-0.38815 z"
       id="rect4286-11-8"
       inkscape:connector-curvature="0" />
  </g>
</svg>
