<svg xmlns:svg="http://www.w3.org/2000/svg" xmlns="http://www.w3.org/2000/svg" width="64" height="64" viewBox="0 0 64 64" version="1.1"><g transform="translate(-245.15037,-431.78326)"><path d="m308.842 463.791c0 17.493-14.206 31.699-31.699 31.699-17.493 0-31.699-14.206-31.699-31.699 0-17.493 14.206-31.699 31.699-31.699 17.493 0 31.699 14.206 31.699 31.699z" style="fill:none;stroke-width:0.6;stroke:#999"/><path d="m263.04 466.817 0-10.805 2.394 0 2.394 0 0-0.171c0-0.095 0.042-0.363 0.088-0.595 0.441-2.138 2.647-3.344 4.779-2.61 0.543 0.186 0.844 0.382 1.315 0.849 0.351 0.348 0.449 0.478 0.627 0.843 0.245 0.496 0.395 1.035 0.395 1.419l0 0.267 8.412 0 8.412 0 0 3.601 0 3.602 0.592 0 0.593 0 0 3.601 0 3.601-0.592 0-0.592 0 0 3.601 0 3.601-14.407 0-14.406 0 0-10.805zm27.583 6.588 0-2.986-4.81 0-4.81 0 0.014-3.591 0.013-3.591 4.798-0.014 4.798-0.014 0-2.986 0-2.986-13.175 0-13.175 0 0 9.574 0 9.574 13.175 0 13.175 0 0-2.986zm1.185-6.588 0-2.371-4.788 0-4.788 0 0 2.371 0 2.372 4.788 0 4.788 0 0-2.372zm-7.618 0.852c-0.309-0.163-0.468-0.423-0.488-0.796-0.013-0.254 0.002-0.341 0.09-0.504 0.293-0.548 1.016-0.677 1.485-0.264 0.519 0.456 0.405 1.26-0.226 1.584-0.24 0.123-0.606 0.115-0.861-0.018zm-10.376-11.851c-0.087-0.755-0.467-1.38-1.088-1.796-0.906-0.606-2.178-0.468-2.965 0.321-0.401 0.401-0.702 1.053-0.702 1.518l0 0.15 2.389 0 2.39 0-0.021-0.193zm6.436-1.059c-1.066-0.236-1.953-0.921-2.421-1.871-0.283-0.576-0.384-1.009-0.382-1.66 0-0.813 0.16-1.377 0.568-2.013 0.647-1.004 1.751-1.59 3-1.593 1.05 0 1.844 0.315 2.565 1.024 0.419 0.413 0.689 0.834 0.858 1.346 0.711 2.136-0.496 4.324-2.625 4.761-0.421 0.087-1.182 0.088-1.563 0.01zm1.359-1.232c1.065-0.277 1.808-1.231 1.809-2.328 0.004-1.011-0.742-1.99-1.72-2.262-1.535-0.426-3.027 0.702-3.027 2.286 0 1.092 0.709 2.007 1.785 2.306 0.286 0.078 0.843 0.076 1.153 0z" fill="#999"/></g></svg>