<?xml version="1.0" encoding="UTF-8" standalone="no"?>
<svg
   xmlns:dc="http://purl.org/dc/elements/1.1/"
   xmlns:cc="http://creativecommons.org/ns#"
   xmlns:rdf="http://www.w3.org/1999/02/22-rdf-syntax-ns#"
   xmlns:svg="http://www.w3.org/2000/svg"
   xmlns="http://www.w3.org/2000/svg"
   xmlns:sodipodi="http://sodipodi.sourceforge.net/DTD/sodipodi-0.dtd"
   xmlns:inkscape="http://www.inkscape.org/namespaces/inkscape"
   version="1.1"
   width="64"
   height="64"
   viewBox="0 0 64 64"
   id="svg2"
   inkscape:version="0.91 r13725"
   sodipodi:docname="about_promotions.svg">
  <metadata
     id="metadata28">
    <rdf:RDF>
      <cc:Work
         rdf:about="">
        <dc:format>image/svg+xml</dc:format>
        <dc:type
           rdf:resource="http://purl.org/dc/dcmitype/StillImage" />
      </cc:Work>
    </rdf:RDF>
  </metadata>
  <sodipodi:namedview
     pagecolor="#ffffff"
     bordercolor="#666666"
     borderopacity="1"
     objecttolerance="10"
     gridtolerance="10"
     guidetolerance="10"
     inkscape:pageopacity="0"
     inkscape:pageshadow="2"
     inkscape:window-width="1280"
     inkscape:window-height="995"
     id="namedview26"
     showgrid="false"
     inkscape:zoom="3.6875"
     inkscape:cx="32"
     inkscape:cy="32"
     inkscape:window-x="3840"
     inkscape:window-y="328"
     inkscape:window-maximized="1"
     inkscape:current-layer="g12" />
  <defs
     id="defs4">
    <clipPath
       id="clipPath6">
      <path
         d="m0 109 109 0L109 0 0 0 0 109z"
         id="path8" />
    </clipPath>
  </defs>
  <g
     id="g12"
     clip-path="url(#clipPath16)"
     transform="matrix(0.58701809,0,0,-0.58701809,-2.3480724e-4,64)">
    <g
       id="g18"
       transform="matrix(1.4,0,0,1.4,87.609464,35.3086)">
      <path
         style="fill:#373535"
         inkscape:connector-curvature="0"
         id="path20"
         d="m 0,0 c -1.5,-0.8 -10.7,-5.4 -18.6,-6.5 -0.9,-0.1 -1.8,-0.2 -2.8,-0.2 -6.6,0 -13.5,2.9 -19.1,5.2 -1.2,0.5 -2.2,0.9 -3.2,1.3 -2.4,0.9 -3.7,2.2 -3.4,3.5 0.2,1 1.3,1.7 2.1,1.7 0.1,0 0.2,0 0.3,0 1.8,-0.4 8.1,-0.8 12.8,-1.1 1.3,-0.1 2.5,-0.1 3.3,-0.2 3.7,-0.3 8.9,2.1 9.1,2.2 l 0.2,0.1 0,2.7 -0.4,0 c 0,0 -4.2,0.1 -7.5,0.1 -1.9,0 -3.1,0 -3.6,-0.1 -1.5,-0.1 -2.9,1.3 -3.5,3.5 -0.5,1.6 1.6,2.8 2.8,3.4 0.3,0.1 0.6,0.2 0.8,0.3 0.7,0 3.9,-0.1 6.7,-0.1 1.9,0 3.2,0 4,0.1 1.1,0.1 2.3,0.5 3.7,1 1.7,0.6 3.6,1.3 5.3,1.3 0.4,0 0.7,0 1,-0.1 9.1,-1.4 10,-4.8 10,-4.8 L 0,0 Z m 0.7,13.4 c 0,0.2 -0.9,3.9 -10.4,5.6 -0.4,0.1 -0.8,0.1 -1.2,0.1 -1.9,0 -3.9,-0.7 -5.6,-1.4 0,0 0,0 0,0 0.2,0.9 0.3,1.9 0.3,2.9 0,7.9 -6.4,14.3 -14.3,14.3 -7.9,0 -14.3,-6.4 -14.3,-14.3 0,-6 3.8,-11.2 9.1,-13.3 -0.2,0.3 -0.4,0.7 -0.5,1 -4.6,2.2 -7.8,6.8 -7.8,12.2 0,7.5 6.1,13.5 13.5,13.5 7.4,0 13.5,-6.1 13.5,-13.5 0,-1.1 -0.2,-2.2 -0.4,-3.2 -1,-0.3 -1.8,-0.6 -2.6,-0.7 -0.7,0 -1.9,-0.1 -3.6,-0.1 0,0.1 0.1,0.2 0.1,0.4 0.2,3.6 -2.9,4.8 -5.7,5.4 -0.9,0.2 -2.1,0.5 -2.1,1.4 0.1,0.8 0.8,1.2 1.8,1.2 1,0 1.8,-0.4 2.5,-1.1 l 3,1.6 c -1,1.5 -2.5,2.4 -4.1,2.8 l 0,1.6 -3.6,0 0,-1.7 c -2.2,-0.5 -4.1,-1.8 -4.1,-4.4 -0.1,-3.3 3.6,-4.3 5.5,-4.8 l 0,0 c 1.1,-0.2 2.4,-0.7 2.3,-1.8 0,-0.2 -0.1,-0.4 -0.2,-0.5 -1.5,0 -2.5,0 -2.6,0 l -0.1,0 -0.1,0 c 0,0 -0.4,-0.1 -0.8,-0.3 -0.5,0.2 -1,0.6 -1.6,1.3 l -3,-1.9 c 0.5,-0.7 1,-1.3 1.6,-1.7 -0.3,-0.6 -0.5,-1.2 -0.3,-2 0.7,-2.5 2.3,-4 4,-4 0.1,0 0.2,0 0.2,0 0.4,0 1.6,0.1 3.5,0.1 2.7,0 6,0 7.1,-0.1 l 0,-1.5 c -1,-0.4 -5.4,-2.2 -8.5,-2 -0.8,0.1 -2,0.1 -3.3,0.2 -4.4,0.3 -11,0.7 -12.7,1 -0.2,0 -0.3,0.1 -0.5,0.1 -1.3,0 -2.6,-1 -2.9,-2.3 -0.1,-0.8 -0.1,-2.8 3.9,-4.3 1,-0.4 2.1,-0.8 3.2,-1.3 5.7,-2.4 12.7,-5.3 19.4,-5.3 1,0 2,0.1 2.9,0.2 8.7,1.3 19,6.6 19.1,6.7 l 0.2,0.1 0,13.8 z" />
    </g>
    <g
       id="g22"
       transform="matrix(1.4,0,0,1.4,87.609464,35.3086)">
      <path
         inkscape:connector-curvature="0"
         id="path24"
         style="fill:none;stroke:#373535;stroke-width:0.30000001;stroke-linecap:round;stroke-linejoin:round"
         d="m 0,0 c -1.5,-0.8 -10.7,-5.4 -18.6,-6.5 -0.9,-0.1 -1.8,-0.2 -2.8,-0.2 -6.6,0 -13.5,2.9 -19.1,5.2 -1.2,0.5 -2.2,0.9 -3.2,1.3 -2.4,0.9 -3.7,2.2 -3.4,3.5 0.2,1 1.3,1.7 2.1,1.7 0.1,0 0.2,0 0.3,0 1.8,-0.4 8.1,-0.8 12.8,-1.1 1.3,-0.1 2.5,-0.1 3.3,-0.2 3.7,-0.3 8.9,2.1 9.1,2.2 l 0.2,0.1 0,2.7 -0.4,0 c 0,0 -4.2,0.1 -7.5,0.1 -1.9,0 -3.1,0 -3.6,-0.1 -1.5,-0.1 -2.9,1.3 -3.5,3.5 -0.5,1.6 1.6,2.8 2.8,3.4 0.3,0.1 0.6,0.2 0.8,0.3 0.7,0 3.9,-0.1 6.7,-0.1 1.9,0 3.2,0 4,0.1 1.1,0.1 2.3,0.5 3.7,1 1.7,0.6 3.6,1.3 5.3,1.3 0.4,0 0.7,0 1,-0.1 9.1,-1.4 10,-4.8 10,-4.8 L 0,0 Z m 0.7,13.4 c 0,0.2 -0.9,3.9 -10.4,5.6 -0.4,0.1 -0.8,0.1 -1.2,0.1 -1.9,0 -3.9,-0.7 -5.6,-1.4 0,0 0,0 0,0 0.2,0.9 0.3,1.9 0.3,2.9 0,7.9 -6.4,14.3 -14.3,14.3 -7.9,0 -14.3,-6.4 -14.3,-14.3 0,-6 3.8,-11.2 9.1,-13.3 -0.2,0.3 -0.4,0.7 -0.5,1 -4.6,2.2 -7.8,6.8 -7.8,12.2 0,7.5 6.1,13.5 13.5,13.5 7.4,0 13.5,-6.1 13.5,-13.5 0,-1.1 -0.2,-2.2 -0.4,-3.2 -1,-0.3 -1.8,-0.6 -2.6,-0.7 -0.7,0 -1.9,-0.1 -3.6,-0.1 0,0.1 0.1,0.2 0.1,0.4 0.2,3.6 -2.9,4.8 -5.7,5.4 -0.9,0.2 -2.1,0.5 -2.1,1.4 0.1,0.8 0.8,1.2 1.8,1.2 1,0 1.8,-0.4 2.5,-1.1 l 3,1.6 c -1,1.5 -2.5,2.4 -4.1,2.8 l 0,1.6 -3.6,0 0,-1.7 c -2.2,-0.5 -4.1,-1.8 -4.1,-4.4 -0.1,-3.3 3.6,-4.3 5.5,-4.8 l 0,0 c 1.1,-0.2 2.4,-0.7 2.3,-1.8 0,-0.2 -0.1,-0.4 -0.2,-0.5 -1.5,0 -2.5,0 -2.6,0 l -0.1,0 -0.1,0 c 0,0 -0.4,-0.1 -0.8,-0.3 -0.5,0.2 -1,0.6 -1.6,1.3 l -3,-1.9 c 0.5,-0.7 1,-1.3 1.6,-1.7 -0.3,-0.6 -0.5,-1.2 -0.3,-2 0.7,-2.5 2.3,-4 4,-4 0.1,0 0.2,0 0.2,0 0.4,0 1.6,0.1 3.5,0.1 2.7,0 6,0 7.1,-0.1 l 0,-1.5 c -1,-0.4 -5.4,-2.2 -8.5,-2 -0.8,0.1 -2,0.1 -3.3,0.2 -4.4,0.3 -11,0.7 -12.7,1 -0.2,0 -0.3,0.1 -0.5,0.1 -1.3,0 -2.6,-1 -2.9,-2.3 -0.1,-0.8 -0.1,-2.8 3.9,-4.3 1,-0.4 2.1,-0.8 3.2,-1.3 5.7,-2.4 12.7,-5.3 19.4,-5.3 1,0 2,0.1 2.9,0.2 8.7,1.3 19,6.6 19.1,6.7 l 0.2,0.1 0,13.8 z" />
    </g>
  </g>
</svg>
