<?xml version="1.0" encoding="utf-8"?>
<!-- Generator: Adobe Illustrator 18.0.0, SVG Export Plug-In . SVG Version: 6.00 Build 0)  -->
<!DOCTYPE svg PUBLIC "-//W3C//DTD SVG 1.1//EN" "http://www.w3.org/Graphics/SVG/1.1/DTD/svg11.dtd">
<svg version="1.1" id="Warstwa_2" xmlns="http://www.w3.org/2000/svg" xmlns:xlink="http://www.w3.org/1999/xlink" x="0px" y="0px"
	 viewBox="0 0 612 612" enable-background="new 0 0 612 612" xml:space="preserve">
<path d="M478.2,161.5l-99.7,3.7c-0.2,0-0.3,0-0.6,0c-8,0-14.7-6.4-15.1-14.6c-0.3-8.4,6.1-15.4,14.5-15.7l64.9-2.5
	c-81.9-67-202.9-65.9-283.7,7.5C99.3,193.8,74.3,275.9,93.1,354c2,8.1-3,16.3-11.1,18.3c-1.2,0.3-2.3,0.4-3.6,0.4
	c-6.8,0-13-4.6-14.7-11.5c-21.5-88.9,7.2-182.3,74.7-243.7C187.5,72.8,251.1,50,317.3,53.4c53.4,2.7,103.4,22,144,55.3l-2.3-62.1
	c-0.4-8.4,6.1-15.4,14.5-15.7c8.3-0.4,15.3,6.2,15.6,14.6l3.7,99v0.1c0,0.2,0,0.3,0,0.6v1.1C492.8,154.5,486.4,161.1,478.2,161.5
	L478.2,161.5z M475.5,494.1c-46,41.8-104.6,64.4-166.2,64.4c-4.1,0-8.4-0.1-12.6-0.3c-53.1-2.7-102.8-21.9-143.4-54.9l5.4,60.7
	c0.8,8.4-5.4,15.7-13.6,16.5c-0.4,0.1-0.9,0.1-1.4,0.1c-7.7,0-14.3-6-15-13.8l-8.9-99.8c-0.8-8.4,5.4-15.7,13.6-16.5l99.4-9
	c8.4-0.8,15.6,5.3,16.4,13.7c0.8,8.4-5.4,15.7-13.7,16.5l-65.7,5.9c40,33.5,89.6,50.4,139.4,50.4c52.1,0,104.4-18.6,146.1-56.5
	c59.3-53.9,84.5-135.9,65.6-214.1c-2-8.1,3-16.3,11.1-18.3c8-2,16.2,3,18.2,11.1C571.7,339.4,543.1,432.7,475.5,494.1L475.5,494.1z"
	/>
</svg>
