<?xml version="1.0" encoding="UTF-8" standalone="no"?>
<!-- Generator: Adobe Illustrator 18.0.0, SVG Export Plug-In . SVG Version: 6.00 Build 0)  -->

<svg
   xmlns:dc="http://purl.org/dc/elements/1.1/"
   xmlns:cc="http://creativecommons.org/ns#"
   xmlns:rdf="http://www.w3.org/1999/02/22-rdf-syntax-ns#"
   xmlns:svg="http://www.w3.org/2000/svg"
   xmlns="http://www.w3.org/2000/svg"
   xmlns:sodipodi="http://sodipodi.sourceforge.net/DTD/sodipodi-0.dtd"
   xmlns:inkscape="http://www.inkscape.org/namespaces/inkscape"
   version="1.1"
   id="Warstwa_2"
   x="0px"
   y="0px"
   viewBox="0 0 612 612"
   enable-background="new 0 0 612 612"
   xml:space="preserve"
   inkscape:version="0.91 r13725"
   sodipodi:docname="benefits_return.svg"><metadata
     id="metadata4190"><rdf:RDF><cc:Work
         rdf:about=""><dc:format>image/svg+xml</dc:format><dc:type
           rdf:resource="http://purl.org/dc/dcmitype/StillImage" /></cc:Work></rdf:RDF></metadata><defs
     id="defs4188" /><sodipodi:namedview
     pagecolor="#ffffff"
     bordercolor="#666666"
     borderopacity="1"
     objecttolerance="10"
     gridtolerance="10"
     guidetolerance="10"
     inkscape:pageopacity="0"
     inkscape:pageshadow="2"
     inkscape:window-width="1621"
     inkscape:window-height="1078"
     id="namedview4186"
     showgrid="false"
     showguides="true"
     inkscape:guide-bbox="true"
     inkscape:zoom="1"
     inkscape:cx="306"
     inkscape:cy="306"
     inkscape:window-x="86"
     inkscape:window-y="67"
     inkscape:window-maximized="0"
     inkscape:current-layer="Warstwa_2"><sodipodi:guide
       position="268,572"
       orientation="0,1"
       id="guide6111" /><sodipodi:guide
       position="283,40"
       orientation="0,1"
       id="guide6113" /><sodipodi:guide
       position="572,405"
       orientation="1,0"
       id="guide6115" /><sodipodi:guide
       position="40,404"
       orientation="1,0"
       id="guide6117" /></sodipodi:namedview><path
     d="m 472.07544,166.06644 -96.47265,3.58024 c -0.19352,0 -0.29029,0 -0.58058,0 -7.74104,0 -14.22416,-6.19284 -14.6112,-14.12739 -0.2903,-8.1281 5.90253,-14.9015 14.03062,-15.19179 l 62.79914,-2.41908 C 357.99193,73.077244 240.90875,74.141633 162.72428,145.16565 105.44061,197.32088 81.249868,276.76328 99.44129,352.33514 c 1.93527,7.8378 -2.902879,15.77236 -10.740673,17.70763 -1.161156,0.29028 -2.225554,0.38705 -3.483468,0.38705 -6.57988,0 -12.579186,-4.4511 -14.224155,-11.12775 C 50.188956,273.27981 77.959927,182.9032 143.27492,123.49075 190.78553,80.237707 252.32678,58.175747 316.38385,61.465682 368.05527,64.078289 416.43676,82.75354 455.72251,114.97561 l -2.22553,-60.089808 c -0.38708,-8.128087 5.90253,-14.90149 14.03062,-15.191781 8.03132,-0.387051 14.80472,5.999306 15.09502,14.127394 l 3.58022,95.795325 0,0.0968 c 0,0.19355 0,0.2903 0,0.58059 l 0,1.06439 c 0,7.93457 -6.19282,14.32092 -14.1274,14.70797 l 0,0 z m -2.61258,321.8336 c -44.51097,40.44691 -101.21406,62.31534 -160.82005,62.31534 -3.96728,0 -8.12809,-0.0967 -12.19212,-0.29029 -51.38114,-2.6126 -99.47232,-21.19109 -138.75808,-53.12285 l 5.22519,58.73511 c 0.77411,8.1281 -5.22519,15.19178 -13.15976,15.96589 -0.38705,0.0968 -0.87086,0.0968 -1.35468,0.0968 -7.45075,0 -13.8371,-5.80578 -14.51444,-13.35328 l -8.61191,-96.56944 c -0.7741,-8.12808 5.22519,-15.19178 13.15977,-15.96589 l 96.18238,-8.70866 c 8.12809,-0.77412 15.09501,5.12843 15.86912,13.25652 0.7741,8.12809 -5.2252,15.19178 -13.25652,15.9659 l -63.57327,5.70901 c 38.70518,32.41559 86.69961,48.76853 134.88757,48.76853 50.41349,0 101.02053,-17.99791 141.37067,-54.67108 57.38044,-52.15524 81.76471,-131.50085 63.4765,-207.16949 -1.93526,-7.83781 2.90289,-15.77235 10.7407,-17.70761 7.74103,-1.93527 15.67559,2.90288 17.61084,10.74067 20.80405,86.31256 -6.87016,176.5924 -72.28191,236.00486 l 0,0 z"
     id="path4184"
     inkscape:connector-curvature="0" /></svg>