<svg xmlns:svg="http://www.w3.org/2000/svg" xmlns="http://www.w3.org/2000/svg" version="1.1" width="64" height="64" viewBox="0 0 64 64"><defs><clipPath><path d="m0 109 109 0L109 0 0 0 0 109z"/></clipPath><clipPath><path d="m0 109 109 0L109 0 0 0 0 109z"/></clipPath><clipPath><path d="m0 109 109 0L109 0 0 0 0 109z"/></clipPath></defs><g transform="matrix(0.58701809,0,0,-0.58701809,-2.348e-4,64)"><g clip-path="url(#clipPath3041)"><g transform="translate(108.5264,54.5137)"><path d="m0 0c0-29.8-24.2-54-54-54-29.8 0-54 24.2-54 54 0 29.8 24.2 54 54 54C-24.2 54 0 29.8 0 0z" style="fill:none;stroke:#9d8852"/></g><g transform="translate(34.082,38.9893)"><path d="M0 0 0 23 18.5 8.6c0.5-0.4 1.1-0.6 1.6-0.6 0.6 0 1.1 0.2 1.6 0.6L41 23.5 41 0 0 0zM39.8 29.2 20.1 14 0.6 29.2l39.2 0zm3.9 5.3-46.3 0c-1.5 0-2.6-1.2-2.6-2.6l0-34.5c0-1.5 1.2-2.6 2.6-2.6l46.3 0c1.5 0 2.6 1.2 2.6 2.6l0 34.5c0 1.5-1.2 2.6-2.6 2.6" style="fill:none;stroke:#373535"/></g></g></g></svg>