<svg xmlns:svg="http://www.w3.org/2000/svg" xmlns="http://www.w3.org/2000/svg" width="64" height="64" version="1.1" viewBox="0 0 64 64"><style>.s0{fill:#fff;}</style><g transform="matrix(2.2855416,0,0,2.2855416,-0.03433633,2.641168e-4)" fill="#fff"><path d="M20 14C20 13.8 20 12.7 19.2 11.4 18.5 10.1 16.9 8.7 14.5 8.1 12.9 7.7 12.5 7.1 12.2 6.6 12.1 6.4 12 6.2 12 6.1 12 6 12 6 12 6c0.1-1.3 0.4-1.3 0.9-1.7 0.3-0.1 0.6-0.2 0.8-0.3 0.1 0 0.2 0 0.3 0 0 0 0 0 0 0 1.3 0.1 1.4 0.4 1.7 0.9 0.1 0.3 0.2 0.6 0.3 0.8 0 0.1 0 0.2 0 0.3 0 0 0 0 0 0.1l0.6 0h3.4C20 5.8 20 4.6 19.3 3.1 18.6 1.6 16.7-0.1 14 0 13.8 0 12.6 0 11.1 0.7 9.6 1.4 7.9 3.3 8 6 8 6.2 8 7.3 8.8 8.6 9 9 9.3 9.4 9.6 9.8c-0.4 0.4-0.7 0.9-0.9 1.3-0.7 1.5-0.7 2.7-0.7 2.9 0 0.2 0 1.3 0.8 2.6 0.7 1.3 2.3 2.7 4.8 3.3 1.5 0.4 2 1 2.3 1.4 0.1 0.2 0.2 0.4 0.2 0.6 0 0 0 0.1 0 0.1-0.1 1.3-0.4 1.3-0.9 1.7-0.3 0.1-0.6 0.2-0.8 0.3-0.1 0-0.2 0-0.3 0C14 24 14 24 14 24 12.7 23.9 12.6 23.6 12.3 23.1 12.2 22.8 12.1 22.5 12 22.3 12 22.2 12 22.1 12 22 12 22 12 22 12 22v0l-0.7 0H8c0 0.2 0 1.4 0.7 2.9 0.6 1.5 2.5 3.1 5.1 3.1 0.1 0 0.1 0 0.2 0 0.2 0 1.4 0 2.9-0.7 1.5-0.7 3.2-2.6 3.1-5.3 0-0.2 0-1.3-0.8-2.6-0.2-0.4-0.5-0.8-0.9-1.2 0.4-0.4 0.7-0.9 0.9-1.3 0.7-1.5 0.7-2.7 0.7-2.9zm-4.3 1.2c-0.3 0.4-0.4 0.7-1.4 0.8-1.3-0.4-1.7-0.9-2-1.3-0.1-0.2-0.2-0.4-0.2-0.6 0 0 0-0.1 0-0.1 0-0.2 0.1-0.8 0.3-1.2 0.3-0.4 0.4-0.7 1.4-0.8 1.3 0.4 1.7 0.9 2 1.3 0.1 0.2 0.2 0.4 0.2 0.6 0 0 0 0.1 0 0.1 0 0.2-0.1 0.8-0.3 1.2z" fill="#fff"/></g></svg>