<?xml version="1.0" encoding="UTF-8" standalone="no"?>
<!-- Created with Inkscape (http://www.inkscape.org/) -->

<svg
   xmlns:dc="http://purl.org/dc/elements/1.1/"
   xmlns:cc="http://creativecommons.org/ns#"
   xmlns:rdf="http://www.w3.org/1999/02/22-rdf-syntax-ns#"
   xmlns:svg="http://www.w3.org/2000/svg"
   xmlns="http://www.w3.org/2000/svg"
   xmlns:sodipodi="http://sodipodi.sourceforge.net/DTD/sodipodi-0.dtd"
   xmlns:inkscape="http://www.inkscape.org/namespaces/inkscape"
   width="64px"
   height="64px"
   id="svg3081"
   version="1.1"
   inkscape:version="0.48.5 r10040"
   sodipodi:docname="wallet.svg">
  <defs
     id="defs3083">
    <clipPath
       clipPathUnits="userSpaceOnUse"
       id="clipPath16">
      <path
         inkscape:connector-curvature="0"
         d="m 0,82.373 82.373,0 L 82.373,0 0,0 0,82.373 z"
         id="path18" />
    </clipPath>
    <clipPath
       clipPathUnits="userSpaceOnUse"
       id="clipPath32">
      <path
         inkscape:connector-curvature="0"
         d="m 0,82.373 82.373,0 L 82.373,0 0,0 0,82.373 z"
         id="path34" />
    </clipPath>
  </defs>
  <sodipodi:namedview
     id="base"
     pagecolor="#ffffff"
     bordercolor="#666666"
     borderopacity="1.0"
     inkscape:pageopacity="0.0"
     inkscape:pageshadow="2"
     inkscape:zoom="5.5"
     inkscape:cx="32"
     inkscape:cy="32"
     inkscape:current-layer="layer1"
     showgrid="true"
     inkscape:document-units="px"
     inkscape:grid-bbox="true"
     inkscape:window-width="1047"
     inkscape:window-height="826"
     inkscape:window-x="514"
     inkscape:window-y="269"
     inkscape:window-maximized="0" />
  <metadata
     id="metadata3086">
    <rdf:RDF>
      <cc:Work
         rdf:about="">
        <dc:format>image/svg+xml</dc:format>
        <dc:type
           rdf:resource="http://purl.org/dc/dcmitype/StillImage" />
        <dc:title></dc:title>
      </cc:Work>
    </rdf:RDF>
  </metadata>
  <g
     id="layer1"
     inkscape:label="Layer 1"
     inkscape:groupmode="layer">
    <g
       transform="matrix(0.77695361,0,0,-0.77695361,0,64)"
       id="g12">
      <g
         id="g14"
         clip-path="url(#clipPath16)">
        <g
           id="g20"
           transform="translate(51.6104,54.2002)">
          <path
             inkscape:connector-curvature="0"
             d="m 0,0 c 0,-3.173 -2.573,-5.746 -5.746,-5.746 -3.173,0 -5.746,2.573 -5.746,5.746 0,3.174 2.573,5.746 5.746,5.746 C -2.573,5.746 0,3.174 0,0 z"
             style="fill:none;stroke:#373535;stroke-width:0.5;stroke-linecap:butt;stroke-linejoin:miter;stroke-miterlimit:10;stroke-opacity:1;stroke-dasharray:none"
             id="path22" />
        </g>
      </g>
    </g>
    <text
       style="font-size:8.61476231px"
       y="26.439684"
       x="31.227795"
       transform="scale(1.0822636,0.92398931)"
       id="text24">
      <tspan
         style="font-size:7.68587589px;font-variant:normal;font-weight:900;font-stretch:normal;writing-mode:lr-tb;fill:#373535;fill-opacity:1;fill-rule:nonzero;stroke:none;font-family:Solomon Sans Black;-inkscape-font-specification:Solomon-Sans-Black"
         x="31.227795"
         y="26.439684"
         id="tspan26">$</tspan>
    </text>
    <g
       id="g36"
       transform="matrix(0.77695361,0,0,-0.77695361,63.611523,31.999223)">
      <path
         inkscape:connector-curvature="0"
         d="m 0,0 c 0,-22.473 -18.216,-40.688 -40.688,-40.688 -22.469,0 -40.685,18.215 -40.685,40.688 0,22.469 18.216,40.686 40.685,40.686 C -18.216,40.686 0,22.469 0,0 z"
         style="fill:none;stroke:#9d8852;stroke-width:1;stroke-linecap:butt;stroke-linejoin:miter;stroke-miterlimit:10;stroke-opacity:1;stroke-dasharray:none"
         id="path38" />
    </g>
    <g
       id="g40"
       transform="matrix(0.77695361,0,0,-0.77695361,42.795459,27.523427)">
      <path
         inkscape:connector-curvature="0"
         d="m 0,0 -25.698,0 c -2.58,0 -4.672,-2.092 -4.672,-4.673 l 0,-14.016 c 0,-2.581 2.092,-4.671 4.672,-4.671 L 0,-23.36 0,0 z"
         style="fill:none;stroke:#373535;stroke-width:1;stroke-linecap:butt;stroke-linejoin:miter;stroke-miterlimit:10;stroke-opacity:1;stroke-dasharray:none"
         id="path42" />
    </g>
    <g
       id="g44"
       transform="matrix(0.77695361,0,0,-0.77695361,40.894021,32.449934)">
      <path
         inkscape:connector-curvature="0"
         d="m 0,0 -4.45,0 c -2.58,0 -4.673,-2.091 -4.673,-4.673 l 0,-1.78 c 0,-1.453 0.671,-2.745 1.714,-3.601 l -0.009,0 c 0,0 2.306,-2.366 9.885,-0.283 0.028,-0.005 0.057,-0.004 0.087,-0.011 0.021,0.016 0.045,0.035 0.066,0.051 10e-4,0 0.002,0.002 0.003,0.002 l -0.002,0 c 0.708,0.537 1.517,1.377 2.385,2.731 l 0,8.565 C 5.006,1.001 1.668,0 0,0"
         style="fill:#ffffff;fill-opacity:1;fill-rule:nonzero;stroke:none"
         id="path46" />
    </g>
    <g
       id="g48"
       transform="matrix(0.77695361,0,0,-0.77695361,40.894021,32.449934)">
      <path
         inkscape:connector-curvature="0"
         d="m 0,0 -4.45,0 c -2.58,0 -4.673,-2.091 -4.673,-4.673 l 0,-1.78 c 0,-1.453 0.671,-2.745 1.714,-3.601 l -0.009,0 c 0,0 2.306,-2.366 9.885,-0.283 0.028,-0.005 0.057,-0.004 0.087,-0.011 0.021,0.016 0.045,0.035 0.066,0.051 10e-4,0 0.002,0.002 0.003,0.002 l -0.002,0 c 0.708,0.537 1.517,1.377 2.385,2.731 l 0,8.565 C 5.006,1.001 1.668,0 0,0 z"
         style="fill:none;stroke:#373535;stroke-width:1;stroke-linecap:butt;stroke-linejoin:miter;stroke-miterlimit:10;stroke-opacity:1;stroke-dasharray:none"
         id="path50" />
    </g>
    <g
       id="g52"
       transform="matrix(0.77695361,0,0,-0.77695361,29.842944,14.875166)">
      <path
         inkscape:connector-curvature="0"
         d="m 0,0 -2.597,-0.012 0.063,-13.278 -4.648,-0.027 6.199,-10.602 6.084,10.675 -5.039,-0.03 L 0,0 z"
         style="fill:#ffffff;fill-opacity:1;fill-rule:nonzero;stroke:none"
         id="path54" />
    </g>
    <g
       id="g56"
       transform="matrix(0.77695361,0,0,-0.77695361,29.842944,14.875166)">
      <path
         inkscape:connector-curvature="0"
         d="m 0,0 -2.597,-0.012 0.063,-13.278 -4.648,-0.027 6.199,-10.602 6.084,10.675 -5.039,-0.03 L 0,0 z"
         style="fill:none;stroke:#ffffff;stroke-width:2;stroke-linecap:butt;stroke-linejoin:miter;stroke-miterlimit:10;stroke-opacity:1;stroke-dasharray:none"
         id="path58" />
    </g>
    <path
       id="path62"
       style="fill:none;stroke:#373535;stroke-width:0.77695364;stroke-linecap:butt;stroke-linejoin:miter;stroke-miterlimit:10;stroke-opacity:1;stroke-dasharray:none"
       d="m 29.842944,14.576194 -2.017749,0.007 0.04895,10.317944 -3.611281,0.01942 4.816336,8.239593 4.726985,-8.29631 -3.915069,0.02642 -0.04817,-10.314059 z"
       inkscape:connector-curvature="0" />
    <g
       id="g64"
       transform="matrix(0.77695361,0,0,-0.77695361,39.683061,36.771738)">
      <path
         inkscape:connector-curvature="0"
         d="m 0,0 c 0,-1.104 -0.896,-2.002 -2.003,-2.002 -1.104,0 -2.002,0.898 -2.002,2.002 0,1.105 0.898,2.004 2.002,2.004 C -0.896,2.004 0,1.105 0,0 z"
         style="fill:none;stroke:#373535;stroke-width:1;stroke-linecap:butt;stroke-linejoin:miter;stroke-miterlimit:10;stroke-opacity:1;stroke-dasharray:none"
         id="path66" />
    </g>
  </g>
</svg>
