<svg xmlns:svg="http://www.w3.org/2000/svg" xmlns="http://www.w3.org/2000/svg" version="1.1" width="64" height="64" viewBox="0 0 64 64"><defs><clipPath><path d="m0 109 109 0L109 0 0 0 0 109z"/></clipPath></defs><g transform="matrix(0.58701809,0,0,-0.58701809,-2.3480724e-4,64)"><g clip-path="url(#clipPath16)"><g transform="translate(108.5264,54.5137)"><path d="m0 0c0-29.8-24.2-54-54-54-29.8 0-54 24.2-54 54 0 29.8 24.2 54 54 54C-24.2 54 0 29.8 0 0z" style="fill:none;stroke:#9d8852"/></g><g transform="translate(78.1045,40.8086)"><path d="m0 0c-1.5-0.8-10.7-5.4-18.6-6.5-0.9-0.1-1.8-0.2-2.8-0.2-6.6 0-13.5 2.9-19.1 5.2-1.2 0.5-2.2 0.9-3.2 1.3-2.4 0.9-3.7 2.2-3.4 3.5 0.2 1 1.3 1.7 2.1 1.7 0.1 0 0.2 0 0.3 0 1.8-0.4 8.1-0.8 12.8-1.1 1.3-0.1 2.5-0.1 3.3-0.2 3.7-0.3 8.9 2.1 9.1 2.2l0.2 0.1 0 2.7-0.4 0c0 0-4.2 0.1-7.5 0.1-1.9 0-3.1 0-3.6-0.1-1.5-0.1-2.9 1.3-3.5 3.5-0.5 1.6 1.6 2.8 2.8 3.4 0.3 0.1 0.6 0.2 0.8 0.3 0.7 0 3.9-0.1 6.7-0.1 1.9 0 3.2 0 4 0.1 1.1 0.1 2.3 0.5 3.7 1 1.7 0.6 3.6 1.3 5.3 1.3 0.4 0 0.7 0 1-0.1C-0.9 16.7 0 13.3 0 13.3L0 0zm0.7 13.4c0 0.2-0.9 3.9-10.4 5.6-0.4 0.1-0.8 0.1-1.2 0.1-1.9 0-3.9-0.7-5.6-1.4 0 0 0 0 0 0 0.2 0.9 0.3 1.9 0.3 2.9 0 7.9-6.4 14.3-14.3 14.3-7.9 0-14.3-6.4-14.3-14.3 0-6 3.8-11.2 9.1-13.3-0.2 0.3-0.4 0.7-0.5 1-4.6 2.2-7.8 6.8-7.8 12.2 0 7.5 6.1 13.5 13.5 13.5 7.4 0 13.5-6.1 13.5-13.5 0-1.1-0.2-2.2-0.4-3.2-1-0.3-1.8-0.6-2.6-0.7-0.7 0-1.9-0.1-3.6-0.1 0 0.1 0.1 0.2 0.1 0.4 0.2 3.6-2.9 4.8-5.7 5.4-0.9 0.2-2.1 0.5-2.1 1.4 0.1 0.8 0.8 1.2 1.8 1.2 1 0 1.8-0.4 2.5-1.1l3 1.6c-1 1.5-2.5 2.4-4.1 2.8l0 1.6-3.6 0 0-1.7c-2.2-0.5-4.1-1.8-4.1-4.4-0.1-3.3 3.6-4.3 5.5-4.8l0 0c1.1-0.2 2.4-0.7 2.3-1.8 0-0.2-0.1-0.4-0.2-0.5-1.5 0-2.5 0-2.6 0l-0.1 0-0.1 0c0 0-0.4-0.1-0.8-0.3-0.5 0.2-1 0.6-1.6 1.3l-3-1.9c0.5-0.7 1-1.3 1.6-1.7-0.3-0.6-0.5-1.2-0.3-2 0.7-2.5 2.3-4 4-4 0.1 0 0.2 0 0.2 0 0.4 0 1.6 0.1 3.5 0.1 2.7 0 6 0 7.1-0.1l0-1.5c-1-0.4-5.4-2.2-8.5-2-0.8 0.1-2 0.1-3.3 0.2-4.4 0.3-11 0.7-12.7 1-0.2 0-0.3 0.1-0.5 0.1-1.3 0-2.6-1-2.9-2.3-0.1-0.8-0.1-2.8 3.9-4.3 1-0.4 2.1-0.8 3.2-1.3 5.7-2.4 12.7-5.3 19.4-5.3 1 0 2 0.1 2.9 0.2 8.7 1.3 19 6.6 19.1 6.7l0.2 0.1 0 13.8z" fill="#373535"/></g><g transform="translate(78.1045,40.8086)"><path d="m0 0c-1.5-0.8-10.7-5.4-18.6-6.5-0.9-0.1-1.8-0.2-2.8-0.2-6.6 0-13.5 2.9-19.1 5.2-1.2 0.5-2.2 0.9-3.2 1.3-2.4 0.9-3.7 2.2-3.4 3.5 0.2 1 1.3 1.7 2.1 1.7 0.1 0 0.2 0 0.3 0 1.8-0.4 8.1-0.8 12.8-1.1 1.3-0.1 2.5-0.1 3.3-0.2 3.7-0.3 8.9 2.1 9.1 2.2l0.2 0.1 0 2.7-0.4 0c0 0-4.2 0.1-7.5 0.1-1.9 0-3.1 0-3.6-0.1-1.5-0.1-2.9 1.3-3.5 3.5-0.5 1.6 1.6 2.8 2.8 3.4 0.3 0.1 0.6 0.2 0.8 0.3 0.7 0 3.9-0.1 6.7-0.1 1.9 0 3.2 0 4 0.1 1.1 0.1 2.3 0.5 3.7 1 1.7 0.6 3.6 1.3 5.3 1.3 0.4 0 0.7 0 1-0.1C-0.9 16.7 0 13.3 0 13.3L0 0zm0.7 13.4c0 0.2-0.9 3.9-10.4 5.6-0.4 0.1-0.8 0.1-1.2 0.1-1.9 0-3.9-0.7-5.6-1.4 0 0 0 0 0 0 0.2 0.9 0.3 1.9 0.3 2.9 0 7.9-6.4 14.3-14.3 14.3-7.9 0-14.3-6.4-14.3-14.3 0-6 3.8-11.2 9.1-13.3-0.2 0.3-0.4 0.7-0.5 1-4.6 2.2-7.8 6.8-7.8 12.2 0 7.5 6.1 13.5 13.5 13.5 7.4 0 13.5-6.1 13.5-13.5 0-1.1-0.2-2.2-0.4-3.2-1-0.3-1.8-0.6-2.6-0.7-0.7 0-1.9-0.1-3.6-0.1 0 0.1 0.1 0.2 0.1 0.4 0.2 3.6-2.9 4.8-5.7 5.4-0.9 0.2-2.1 0.5-2.1 1.4 0.1 0.8 0.8 1.2 1.8 1.2 1 0 1.8-0.4 2.5-1.1l3 1.6c-1 1.5-2.5 2.4-4.1 2.8l0 1.6-3.6 0 0-1.7c-2.2-0.5-4.1-1.8-4.1-4.4-0.1-3.3 3.6-4.3 5.5-4.8l0 0c1.1-0.2 2.4-0.7 2.3-1.8 0-0.2-0.1-0.4-0.2-0.5-1.5 0-2.5 0-2.6 0l-0.1 0-0.1 0c0 0-0.4-0.1-0.8-0.3-0.5 0.2-1 0.6-1.6 1.3l-3-1.9c0.5-0.7 1-1.3 1.6-1.7-0.3-0.6-0.5-1.2-0.3-2 0.7-2.5 2.3-4 4-4 0.1 0 0.2 0 0.2 0 0.4 0 1.6 0.1 3.5 0.1 2.7 0 6 0 7.1-0.1l0-1.5c-1-0.4-5.4-2.2-8.5-2-0.8 0.1-2 0.1-3.3 0.2-4.4 0.3-11 0.7-12.7 1-0.2 0-0.3 0.1-0.5 0.1-1.3 0-2.6-1-2.9-2.3-0.1-0.8-0.1-2.8 3.9-4.3 1-0.4 2.1-0.8 3.2-1.3 5.7-2.4 12.7-5.3 19.4-5.3 1 0 2 0.1 2.9 0.2 8.7 1.3 19 6.6 19.1 6.7l0.2 0.1 0 13.8z" style="fill:none;stroke-linecap:round;stroke-linejoin:round;stroke-width:0.3;stroke:#373535"/></g></g></g></svg>