<svg xmlns:svg="http://www.w3.org/2000/svg" xmlns="http://www.w3.org/2000/svg" version="1.1" width="64" height="64" viewBox="0 0 64 64"><style>.s0{fill:none;stroke:#373535;}.s1{fill:#373535;}</style><defs><clipPath><path d="m0 109 109 0L109 0 0 0 0 109z"/></clipPath></defs><g transform="matrix(0.58701809,0,0,-0.58701809,-2.3480724e-4,64)"><g clip-path="url(#clipPath16)"><g transform="translate(108.5264,54.5137)"><path d="m0 0c0-29.8-24.2-54-54-54-29.8 0-54 24.2-54 54 0 29.8 24.2 54 54 54C-24.2 54 0 29.8 0 0z" style="fill:none;stroke:#9d8852"/></g><g transform="translate(76.0498,56.4395)"><path d="m0 0-7.6 6.9-2.3 0 0-13.3 9.8 0L0 0z" class="s0"/></g><g transform="translate(70.7432,69.1582)"><path d="m0 0-8.6 0 0-15.6c0-1.9-1.6-3.5-3.5-3.5l-26.2 0 0-7.6c0-1.9 1.6-3.5 3.5-3.5l3.3 0c0 0.1 0 0.1 0 0.2 0 3.6 2.9 6.5 6.5 6.5 3.6 0 6.5-2.9 6.5-6.5 0-0.1 0-0.1 0-0.2l10 0c0 0.1 0 0.1 0 0.2 0 3.6 2.9 6.5 6.5 6.5 3.6 0 6.5-2.9 6.5-6.5 0-0.1 0-0.1 0-0.2l2.8 0c1.9 0 3.5 1.6 3.5 3.5l0 15.1L0 0z" class="s0"/></g><g transform="translate(52.1201,39.2256)"><path d="m0 0c0-3.6-2.9-6.5-6.5-6.5-3.6 0-6.5 2.9-6.5 6.5 0 3.6 2.9 6.5 6.5 6.5C-2.9 6.5 0 3.6 0 0z" class="s0"/></g><g transform="translate(75.1123,39.2256)"><path d="m0 0c0-3.6-2.9-6.5-6.5-6.5-3.6 0-6.5 2.9-6.5 6.5 0 3.6 2.9 6.5 6.5 6.5C-2.9 6.5 0 3.6 0 0z" class="s0"/></g><g transform="translate(62.0977,53.542)"><path d="m0 0c0-1.9-1.6-3.5-3.5-3.5l-27.8 0c-1.9 0-3.5 1.6-3.5 3.5l0 19.5c0 1.9 1.6 3.5 3.5 3.5l27.8 0c1.9 0 3.5-1.6 3.5-3.5L0 0z" class="s0"/></g><g transform="translate(62.0977,53.542)"><path d="m0 0c0-1.9-1.6-3.5-3.5-3.5l-27.8 0c-1.9 0-3.5 1.6-3.5 3.5l0 19.5c0 1.9 1.6 3.5 3.5 3.5l27.8 0c1.9 0 3.5-1.6 3.5-3.5L0 0z" class="s0"/></g><g transform="translate(36.5625,67.0273)"><path d="m0 0 0-1.5-3.5 0 0-2.2 2.9 0 0-1.5-2.9 0 0-3.3-2 0 0 8.6L0 0z" fill="#373535"/></g><g transform="translate(39.5791,63.0068)"><path d="m0 0 0.8 0c0.3 0 0.5 0 0.7 0.1 0.2 0.1 0.3 0.2 0.5 0.3 0.1 0.1 0.2 0.3 0.3 0.4 0.1 0.2 0.1 0.3 0.1 0.5 0 0.4-0.1 0.7-0.4 0.9C1.7 2.4 1.3 2.5 0.8 2.5L0 2.5 0 0zm0-1.4 0-3.2-2 0 0 8.6 2.8 0C1.4 4 1.9 4 2.4 3.8 2.8 3.7 3.2 3.5 3.4 3.3 3.7 3.1 3.9 2.8 4.1 2.5 4.2 2.2 4.2 1.8 4.2 1.5 4.2 1.2 4.2 0.9 4.1 0.7 4.1 0.5 3.9 0.2 3.8 0 3.6-0.2 3.5-0.4 3.3-0.5 3-0.7 2.8-0.8 2.5-1 2.7-1 2.8-1.1 2.9-1.2 3-1.3 3.1-1.4 3.2-1.6l1.8-3-1.8 0c-0.3 0-0.6 0.1-0.7 0.4L1.1-1.7c-0.1 0.1-0.1 0.2-0.2 0.2-0.1 0-0.2 0.1-0.4 0.1l-0.5 0z" fill="#373535"/></g><g transform="translate(50.9092,67.0273)"><path d="m0 0 0-1.5-3.5 0 0-2 2.7 0 0-1.5-2.7 0 0-2 3.5 0 0-1.5-5.5 0 0 8.6L0 0z" fill="#373535"/></g><g transform="translate(57.543,67.0273)"><path d="m0 0 0-1.5-3.5 0 0-2 2.7 0 0-1.5-2.7 0 0-2 3.5 0 0-1.5-5.5 0 0 8.6L0 0z" fill="#373535"/></g></g></g></svg>