<svg xmlns:svg="http://www.w3.org/2000/svg" xmlns="http://www.w3.org/2000/svg" version="1.1" width="64" height="64" viewBox="0 0 64 64"><style>.s0{fill:none;stroke:#373535;}</style><defs><clipPath><path d="m0 66 66 0L66 0 0 0 0 66z"/></clipPath></defs><g transform="matrix(0.96980277,0,0,-0.96980277,-1.9396055e-4,64.000097)"><g clip-path="url(#clipPath16)"><g transform="translate(65.4932,32.9971)"><g transform="matrix(0.60529415,0,0,0.60529415,0.19715256,4.7137824e-6)"><path d="m0 0c0-29.8-24.2-54-54-54-29.8 0-54 24.2-54 54 0 29.8 24.2 54 54 54C-24.2 54 0 29.8 0 0z" style="fill:none;stroke:#9d8852"/></g></g><g transform="translate(35.7383,39.8164)"><path d="M0 0C-0.4 0-0.8 0.3-0.8 0.8-0.8 1.2-0.4 1.5 0 1.5 0.4 1.5 0.8 1.2 0.8 0.8 0.8 0.3 0.4 0 0 0zm-11.6 0c-0.4 0-0.8 0.3-0.8 0.8 0 0.4 0.3 0.8 0.8 0.8 0.4 0 0.8-0.3 0.8-0.8C-10.8 0.3-11.1 0-11.6 0zm5.8 8.8c2.6 0 4.8-2.5 5.3-5.9l-10.5 0c0.5 3.3 2.6 5.9 5.2 5.9zm9.3-5.9-3.1 0c-0.5 3.8-3 6.8-6.1 6.8-3.1 0-5.6-2.9-6.1-6.8l-4.1 0-3.7-22.2 26.7 0-3.5 22.2z" class="s0"/></g><g transform="translate(51.6563,24.3779)"><path d="m0 0c0-5.5-4.4-9.9-9.9-9.9-5.5 0-9.9 4.5-9.9 9.9 0 5.5 4.4 9.9 9.9 9.9C-4.4 9.9 0 5.5 0 0" fill="#fff"/></g><g transform="translate(41.6016,32.6309)"><path d="m0 0c-4.6 0-8.3-3.7-8.3-8.3 0-4.6 3.7-8.3 8.3-8.3 4.6 0 8.3 3.7 8.3 8.3C8.3-3.7 4.6 0 0 0z" class="s0"/></g><g transform="translate(38.2207,25.1035)"><path d="M0 0C0.7-0.6 1.5-1.1 2.4-1.8 3.9-0.2 5.3 1.5 6.7 3.1 7.1 2.8 7.4 2.5 7.8 2.2 6.2 0 4.7-2.2 2.8-4.8 1.4-3.3 0.2-2.1-1-0.9-0.7-0.6-0.3-0.3 0 0" fill="#373535"/></g></g></g></svg>