<svg xmlns:svg="http://www.w3.org/2000/svg" xmlns="http://www.w3.org/2000/svg" viewBox="0 0 64 64" version="1.1" height="64" width="64"><style>.s0{fill:#fff;}</style><path d="m14.7 17.3 0 9.3-4 0c-2.9 0-5.3 2.4-5.3 5.3l0 26.7C5.3 61.6 7.7 64 10.7 64l42.7 0c2.9 0 5.3-2.4 5.3-5.3l0-26.7c0-2.9-2.4-5.3-5.3-5.3l-4 0 0-9.3C49.3 7.8 41.6 0 32 0 22.4 0 14.7 7.8 14.7 17.3Zm6.7 9.3 0-9.3c0-5.9 4.8-10.7 10.7-10.7 5.9 0 10.7 4.8 10.7 10.7l0 9.3-21.3 0zm5.3 14.7c0-2.9 2.4-5.3 5.3-5.3 2.9 0 5.3 2.4 5.3 5.3 0 1.9-1 3.5-2.4 4.5 0 0 0.5 3.1 1.1 6.9 0 1.1-0.9 2-2 2l-4 0c-1.1 0-2-0.9-2-2l1.1-6.9c-1.5-0.9-2.4-2.6-2.4-4.5z" fill="#fff"/></svg>