<svg xmlns:svg="http://www.w3.org/2000/svg" xmlns="http://www.w3.org/2000/svg" viewBox="0 0 64 64" version="1.1" height="64" width="64"><style>.s0{fill:#fff;}</style><style>.s0{fill:#fff;}</style><path d="M57.9 23.6 57.9 13.2 48 10 41.9 1.6 32 4.8 22.1 1.6 16 10 6.1 13.2 6.1 23.6 0 32l6.1 8.4 0 10.4 9.9 3.2 6.1 8.4 9.9-3.2 9.9 3.2 6.1-8.4 9.9-3.2 0-10.4 6.1-8.4-6.1-8.4zm-37 5.4c-1.1-1.1-1.7-2.4-1.7-4.1l0-1.5c0-1.6 0.6-3 1.7-4.1 1.1-1.1 2.6-1.6 4.6-1.6 2 0 3.5 0.5 4.5 1.6 1.1 1.1 1.6 2.4 1.6 4.1l0 1.5c0 1.6-0.5 3-1.5 4.1-1.1 1.1-2.6 1.6-4.5 1.6-2 0-3.5-0.5-4.6-1.6zm5.6 14.7-3-1.5 13.5-21.6 3 1.5-13.5 21.6zm18.2-3.2c0 1.7-0.5 3-1.6 4.1-1.1 1.1-2.6 1.6-4.5 1.6-2 0-3.5-0.5-4.6-1.6-1.1-1.1-1.6-2.4-1.6-4.1l0-1.5c0-1.6 0.6-3 1.6-4.1 1.1-1.1 2.6-1.6 4.6-1.6 2 0 3.5 0.5 4.5 1.6 1.1 1.1 1.6 2.4 1.6 4.1l0 1.5zM26.9 26.5c0.3-0.4 0.5-0.9 0.5-1.6l0-1.4c0-0.6-0.1-1.2-0.5-1.6C26.6 21.5 26.1 21.3 25.4 21.3c-0.6 0-1.2 0.2-1.5 0.6-0.4 0.4-0.6 1-0.6 1.6l0 1.4c0 0.6 0.2 1.2 0.6 1.6 0.4 0.4 0.9 0.6 1.5 0.6 0.6 0 1.1-0.2 1.5-0.6zM38.6 36.8c-0.7 0-1.2 0.2-1.5 0.6-0.4 0.4-0.6 1-0.6 1.6l0 1.4c0 0.6 0.2 1.1 0.6 1.6 0.4 0.4 0.9 0.7 1.5 0.7 0.8 0 1.3-0.2 1.6-0.6 0.3-0.4 0.4-0.9 0.4-1.6l0-1.4c0-0.6-0.2-1.1-0.5-1.6-0.4-0.4-0.8-0.6-1.5-0.6z" fill="#fff"/></svg>