<svg xmlns:svg="http://www.w3.org/2000/svg" xmlns="http://www.w3.org/2000/svg" width="64" height="64" version="1.1" viewBox="0 0 64 64"><path d="m63.3 50.4c-2.6-6-12.6-11.4-21-13.8-0.9-0.4-1.6-1.3-1.6-2.3 0-0.6 0.2-1.1 0.6-1.6 3.1-3.2 6.2-8.3 6.2-14.8 0-8.5-5-16.8-15.5-16.8-10.4 0-15.5 8.3-15.5 16.8 0 6.5 3.1 11.6 6.2 14.8 0.4 0.4 0.6 1 0.6 1.6 0 1-0.6 1.9-1.6 2.3C13.3 39 3.3 44.4 0.7 50.4 0.3 51.5 0 52.7 0 53.9 0 58.2 3.2 61.8 7.3 62.5H56.7c4.2-0.7 7.3-4.3 7.3-8.6 0-1.2-0.3-2.4-0.7-3.5z" fill="#fff"/></svg>