<?xml version="1.0" encoding="UTF-8" standalone="no"?>
<!-- Generator: Adobe Illustrator 19.1.0, SVG Export Plug-In . SVG Version: 6.00 Build 0)  -->

<svg
   xmlns:dc="http://purl.org/dc/elements/1.1/"
   xmlns:cc="http://creativecommons.org/ns#"
   xmlns:rdf="http://www.w3.org/1999/02/22-rdf-syntax-ns#"
   xmlns:svg="http://www.w3.org/2000/svg"
   xmlns="http://www.w3.org/2000/svg"
   xmlns:sodipodi="http://sodipodi.sourceforge.net/DTD/sodipodi-0.dtd"
   xmlns:inkscape="http://www.inkscape.org/namespaces/inkscape"
   version="1.1"
   id="Capa_1"
   x="0px"
   y="0px"
   viewBox="0 0 611.99999 611.99999"
   xml:space="preserve"
   inkscape:version="0.91 r13725"
   sodipodi:docname="benefits_financing.svg"
   width="612"
   height="612"><metadata
     id="metadata4326"><rdf:RDF><cc:Work
         rdf:about=""><dc:format>image/svg+xml</dc:format><dc:type
           rdf:resource="http://purl.org/dc/dcmitype/StillImage" /><dc:title></dc:title></cc:Work></rdf:RDF></metadata><defs
     id="defs4324" /><sodipodi:namedview
     pagecolor="#ffffff"
     bordercolor="#666666"
     borderopacity="1"
     objecttolerance="10"
     gridtolerance="10"
     guidetolerance="10"
     inkscape:pageopacity="0"
     inkscape:pageshadow="2"
     inkscape:window-width="1920"
     inkscape:window-height="1150"
     id="namedview4322"
     showgrid="false"
     inkscape:zoom="1"
     inkscape:cx="240.5975"
     inkscape:cy="240.5975"
     inkscape:window-x="0"
     inkscape:window-y="0"
     inkscape:window-maximized="1"
     inkscape:current-layer="Capa_1" /><g
     id="g4280"
     transform="translate(63.207819,67.597171)"><g
       id="g4282"><path
         d="m 180.116,308.298 78.5,23.8 c -0.1,0.5 -0.3,1.1 -0.5,1.6 -2.1,5.7 -6.4,8.9 -13.4,10 -25.8,4.1 -68.6,1.5 -69,1.5 -6.6,-0.4 -12.3,4.6 -12.7,11.2 -0.4,6.6 4.6,12.3 11.2,12.7 1.9,0.1 45.8,2.8 74.3,-1.8 28.3,-4.5 36.4,-29.4 34.9,-45.1 -0.5,-4.9 -3.8,-9 -8.5,-10.4 l -87.9,-26.6 c -43.4,-13.1 -91,11.1 -93,12.1 -0.2,0.1 -0.5,0.2 -0.7,0.4 l -87.5,52.9 c -5.7,3.4 -7.5,10.8 -4.1,16.5 2.3,3.7 6.2,5.8 10.3,5.8 2.1,0 4.2,-0.6 6.2,-1.7 l 87.1,-52.5 c 3.8,-2 42.1,-20.3 74.8,-10.4 z"
         id="path4284"
         inkscape:connector-curvature="0" /><path
         d="m 479.716,288.198 c -6.9,-12.6 -28.4,-32.7 -61,-18.3 -30.8,13.7 -95.9,45 -96.6,45.3 -6,2.9 -8.5,10 -5.6,16 2.9,6 10.1,8.5 16,5.6 0.7,-0.3 65.4,-31.5 95.9,-45 8.7,-3.9 16,-3.9 22.3,0 0.2,0.1 0.3,0.2 0.5,0.3 l -163.1,119.5 c -11.6,8.5 -26.3,12 -40.4,9.8 l -145.5,-23.2 c -3.4,-0.5 -6.9,0.4 -9.6,2.6 l -36.8,30.7 c -5.1,4.2 -5.8,11.8 -1.5,16.9 2.4,2.8 5.8,4.3 9.2,4.3 2.7,0 5.4,-0.9 7.7,-2.8 l 32.6,-27.2 140.2,22.4 c 20.4,3.3 41.7,-1.9 58.4,-14.1 l 174,-127.4 c 4.7,-3.6 6.2,-10.1 3.3,-15.4 z"
         id="path4286"
         inkscape:connector-curvature="0" /><path
         d="m 257.416,274.398 c 18.7,0 36.2,-7.3 49.5,-20.5 27.3,-27.3 27.3,-71.6 0,-98.9 -13.2,-13.2 -30.8,-20.5 -49.5,-20.5 -18.7,0 -36.2,7.3 -49.5,20.5 -27.3,27.3 -27.3,71.6 0,98.9 13.3,13.2 30.8,20.5 49.5,20.5 z m -32.5,-102.4 c 8.7,-8.7 20.2,-13.5 32.5,-13.5 12.3,0 23.8,4.8 32.5,13.5 17.9,17.9 17.9,47.1 0,65 -8.7,8.7 -20.2,13.5 -32.5,13.5 -12.3,0 -23.8,-4.8 -32.5,-13.5 -17.9,-17.9 -17.9,-47.1 0,-65 z"
         id="path4288"
         inkscape:connector-curvature="0" /><path
         d="m 339.516,137.698 c 14.6,0 28.3,-5.7 38.6,-16 21.3,-21.3 21.3,-55.9 0,-77.2 -10.3,-10.3 -24,-16 -38.6,-16 -14.6,0 -28.3,5.7 -38.6,16 -21.3,21.3 -21.3,55.9 0,77.2 10.3,10.4 24.1,16 38.6,16 z m -21.6,-76.2 c 5.8,-5.8 13.5,-9 21.7,-9 8.2,0 15.9,3.2 21.7,9 11.9,11.9 11.9,31.4 0,43.3 -5.8,5.8 -13.5,9 -21.7,9 -8.2,0 -15.9,-3.2 -21.7,-9 -11.9,-12 -11.9,-31.4 0,-43.3 z"
         id="path4290"
         inkscape:connector-curvature="0" /></g></g><g
     id="g4292"
     transform="translate(0,130.80499)" /><g
     id="g4294"
     transform="translate(0,130.80499)" /><g
     id="g4296"
     transform="translate(0,130.80499)" /><g
     id="g4298"
     transform="translate(0,130.80499)" /><g
     id="g4300"
     transform="translate(0,130.80499)" /><g
     id="g4302"
     transform="translate(0,130.80499)" /><g
     id="g4304"
     transform="translate(0,130.80499)" /><g
     id="g4306"
     transform="translate(0,130.80499)" /><g
     id="g4308"
     transform="translate(0,130.80499)" /><g
     id="g4310"
     transform="translate(0,130.80499)" /><g
     id="g4312"
     transform="translate(0,130.80499)" /><g
     id="g4314"
     transform="translate(0,130.80499)" /><g
     id="g4316"
     transform="translate(0,130.80499)" /><g
     id="g4318"
     transform="translate(0,130.80499)" /><g
     id="g4320"
     transform="translate(0,130.80499)" /></svg>