<?xml version="1.0" encoding="UTF-8" standalone="no"?>
<!-- Generator: Adobe Illustrator 18.0.0, SVG Export Plug-In . SVG Version: 6.00 Build 0)  -->

<svg
   xmlns:dc="http://purl.org/dc/elements/1.1/"
   xmlns:cc="http://creativecommons.org/ns#"
   xmlns:rdf="http://www.w3.org/1999/02/22-rdf-syntax-ns#"
   xmlns:svg="http://www.w3.org/2000/svg"
   xmlns="http://www.w3.org/2000/svg"
   xmlns:sodipodi="http://sodipodi.sourceforge.net/DTD/sodipodi-0.dtd"
   xmlns:inkscape="http://www.inkscape.org/namespaces/inkscape"
   version="1.1"
   id="Warstwa_2"
   x="0px"
   y="0px"
   viewBox="0 0 611.99998 612.00001"
   enable-background="new 0 0 841.9 595.3"
   xml:space="preserve"
   inkscape:version="0.91 r13725"
   sodipodi:docname="benefits_tips.svg"
   width="612"
   height="612"><metadata
     id="metadata4190"><rdf:RDF><cc:Work
         rdf:about=""><dc:format>image/svg+xml</dc:format><dc:type
           rdf:resource="http://purl.org/dc/dcmitype/StillImage" /><dc:title></dc:title></cc:Work></rdf:RDF></metadata><defs
     id="defs4188" /><sodipodi:namedview
     pagecolor="#ffffff"
     bordercolor="#666666"
     borderopacity="1"
     objecttolerance="10"
     gridtolerance="10"
     guidetolerance="10"
     inkscape:pageopacity="0"
     inkscape:pageshadow="2"
     inkscape:window-width="1392"
     inkscape:window-height="921"
     id="namedview4186"
     showgrid="false"
     inkscape:zoom="1"
     inkscape:cx="330.38315"
     inkscape:cy="297.64999"
     inkscape:window-x="33"
     inkscape:window-y="0"
     inkscape:window-maximized="0"
     inkscape:current-layer="Warstwa_2" /><path
     d="m 535.76927,402.11788 -0.45294,70.84209 c 0,3.80484 -2.08359,7.15668 -5.25427,9.24029 -3.08011,1.99301 -6.25078,2.53654 -10.50857,0.27176 l -75.6434,-40.13177 c -8.42496,1.08707 -16.94051,1.63064 -25.45606,1.63064 -41.12828,0 -79.90118,-12.50156 -109.16206,-35.05869 -15.40046,-11.86743 -27.26787,-25.81841 -35.14929,-41.12828 -21.74182,8.60613 -45.74842,13.13568 -70.29855,13.13568 l 0,0 c -8.51555,0 -17.03108,-0.54354 -25.36546,-1.63064 l -75.55283,42.39655 c -2.80831,1.44947 -6.613114,1.993 -10.599129,-0.0906 -3.351867,-1.72123 -5.344845,-5.43544 -5.344845,-9.24029 L 86.5289,339.06659 C 61.616396,316.69062 47.937164,287.97331 47.937164,257.89715 c 0,-33.42807 16.578142,-64.59135 46.744925,-87.8732 29.260861,-22.64774 68.033781,-35.05869 109.162041,-35.05869 33.60923,0 65.67844,8.24375 92.58395,23.91599 22.91949,13.31687 40.8565,31.61624 51.6368,52.27097 21.56066,-8.60616 45.56725,-13.1357 70.47975,-13.1357 41.12827,0 79.90118,12.50156 109.16205,35.05869 30.16678,23.28186 46.74492,54.44514 46.74492,87.8732 -0.0906,30.16677 -13.76983,58.79351 -38.68233,81.16947 l 0,0 z M 203.84413,156.61648 c -74.10336,0 -134.436911,45.47665 -134.436911,101.37123 0,25.09369 12.320369,49.10029 34.696321,67.85261 2.35534,1.9024 3.71421,4.80131 3.89541,7.79082 0,0.18119 0,0.45296 0,0.63414 l 0.36237,59.69942 61.05826,-34.33396 c 2.26476,-1.81183 5.25428,-2.71774 8.33439,-2.26478 8.60612,1.26827 17.39344,1.90241 26.09016,1.90241 0,0 0,0 0,0 21.83242,0 43.21188,-3.98601 62.41716,-11.68623 -2.35537,-8.60612 -3.62364,-17.57465 -3.62364,-26.63373 0,-33.42806 16.57815,-64.59134 46.74493,-87.8732 6.06959,-4.71072 12.50153,-8.87789 19.29585,-12.68273 -20.29236,-37.9576 -69.93619,-63.776 -124.8343,-63.776 l 0,0 z m 214.6099,63.05129 c -25.909,0 -50.09676,5.52604 -70.57033,15.12868 -0.36236,0.18117 -0.81532,0.45296 -1.17769,0.54353 0,0 -0.0906,0 -0.0906,0 -37.50466,18.02761 -62.50773,49.64384 -62.50773,85.60843 0,9.87441 1.90241,19.47705 5.43544,28.53614 0.0906,0.1812 0.18118,0.36236 0.27178,0.63413 16.66874,41.76242 68.03377,72.20099 128.7297,72.20099 8.78732,0 17.57465,-0.63416 26.09017,-1.90243 2.98951,-0.45295 5.88842,0.36236 8.06262,2.08359 l 61.23945,32.52216 0.36238,-57.79702 c 0,-0.1812 0,-0.36237 0,-0.54354 0.18116,-3.08011 1.54003,-5.88841 3.8954,-7.79082 22.37596,-18.66174 34.69633,-42.75891 34.69633,-67.8526 0,-55.89461 -60.33357,-101.37124 -134.43695,-101.37124 l 0,0 z m 63.14187,86.78609 -126.19314,0 c -5.88842,0 -10.78033,-4.8013 -10.78033,-10.78032 0,-5.97898 4.80133,-10.78033 10.78033,-10.78033 l 126.19314,0 c 5.88841,0 10.78032,4.80135 10.78032,10.78033 0,5.88841 -4.8013,10.78032 -10.78032,10.78032 l 0,0 z m 0,48.9191 -126.19314,0 c -5.88842,0 -10.78033,-4.80131 -10.78033,-10.78033 0,-5.97898 4.80133,-10.7803 10.78033,-10.7803 l 126.19314,0 c 5.88841,0 10.78032,4.80132 10.78032,10.7803 0,5.97902 -4.8013,10.78033 -10.78032,10.78033 l 0,0 z m 54.17337,46.74492 -0.45294,70.84209 c 0,3.80484 -2.08359,7.15668 -5.25427,9.24029 -3.08011,1.99301 -6.25078,2.53654 -10.50857,0.27176 l -75.6434,-40.13177 c -8.42496,1.08707 -16.94051,1.63064 -25.45606,1.63064 -41.12828,0 -79.90118,-12.50156 -109.16206,-35.05869 -15.40046,-11.86743 -27.26787,-25.81841 -35.14929,-41.12828 -21.74182,8.60613 -45.74842,13.13568 -70.29855,13.13568 l 0,0 c -8.51555,0 -17.03108,-0.54354 -25.36546,-1.63064 l -75.55283,42.39655 c -2.80831,1.44947 -6.613114,1.993 -10.599129,-0.0906 -3.351867,-1.72123 -5.344845,-5.43544 -5.344845,-9.24029 L 86.5289,339.06659 C 61.616396,316.69062 47.937164,287.97331 47.937164,257.89715 c 0,-33.42807 16.578142,-64.59135 46.744925,-87.8732 29.260861,-22.64774 68.033781,-35.05869 109.162041,-35.05869 33.60923,0 65.67844,8.24375 92.58395,23.91599 22.91949,13.31687 40.8565,31.61624 51.6368,52.27097 21.56066,-8.60616 45.56725,-13.1357 70.47975,-13.1357 41.12827,0 79.90118,12.50156 109.16205,35.05869 30.16678,23.28186 46.74492,54.44514 46.74492,87.8732 -0.0906,30.16677 -13.76983,58.79351 -38.68233,81.16947 l 0,0 z M 203.84413,156.61648 c -74.10336,0 -134.436911,45.47665 -134.436911,101.37123 0,25.09369 12.320369,49.10029 34.696321,67.85261 2.35534,1.9024 3.71421,4.80131 3.89541,7.79082 0,0.18119 0,0.45296 0,0.63414 l 0.36237,59.69942 61.05826,-34.33396 c 2.26476,-1.81183 5.25428,-2.71774 8.33439,-2.26478 8.60612,1.26827 17.39344,1.90241 26.09016,1.90241 0,0 0,0 0,0 21.83242,0 43.21188,-3.98601 62.41716,-11.68623 -2.35537,-8.60612 -3.62364,-17.57465 -3.62364,-26.63373 0,-33.42806 16.57815,-64.59134 46.74493,-87.8732 6.06959,-4.71072 12.50153,-8.87789 19.29585,-12.68273 -20.29236,-37.9576 -69.93619,-63.776 -124.8343,-63.776 l 0,0 z m 214.6099,63.05129 c -73.19746,0 -134.43693,44.38955 -134.43693,101.37124 0,9.87439 1.90241,19.47705 5.43547,28.53613 0.0906,0.18118 0.18119,0.36237 0.27176,0.63415 16.66874,41.7624 68.03378,72.20095 128.7297,72.20095 8.78732,0 17.57464,-0.63414 26.0902,-1.90241 2.98947,-0.45293 5.88841,0.36237 8.06259,2.08361 l 61.23946,32.52212 0.36236,-57.79699 c 0,-0.18119 0,-0.36237 0,-0.54356 0.18117,-3.08008 1.54005,-5.88842 3.89541,-7.79082 22.37597,-18.66172 34.69632,-42.75892 34.69632,-67.85259 0.0906,-55.9852 -61.14889,-101.46183 -134.34634,-101.46183 l 0,0 z m 63.14187,86.78609 -126.19314,0 c -5.88842,0 -10.78033,-4.8013 -10.78033,-10.78032 0,-5.97898 4.80133,-10.78033 10.78033,-10.78033 l 126.19314,0 c 5.88841,0 10.78032,4.80135 10.78032,10.78033 0,5.88841 -4.8013,10.78032 -10.78032,10.78032 l 0,0 z m 0,48.9191 -126.19314,0 c -5.88842,0 -10.78033,-4.80131 -10.78033,-10.78033 0,-5.97898 4.80133,-10.7803 10.78033,-10.7803 l 126.19314,0 c 5.88841,0 10.78032,4.80132 10.78032,10.7803 0,5.97902 -4.8013,10.78033 -10.78032,10.78033 l 0,0 z"
     id="path4184"
     inkscape:connector-curvature="0" /></svg>