<svg xmlns:svg="http://www.w3.org/2000/svg" xmlns="http://www.w3.org/2000/svg" version="1.1" width="64" height="64" viewBox="0 0 64 64"><style>.s0{fill:#373535;}</style><style>.s0{fill:#373535;}</style><defs><clipPath><path d="m0 66 66 0L66 0 0 0 0 66z"/></clipPath><clipPath><path d="m0 66 66 0L66 0 0 0 0 66z"/></clipPath><clipPath><path d="m0 66 66 0L66 0 0 0 0 66z"/></clipPath><clipPath><path d="m0 66 66 0L66 0 0 0 0 66z"/></clipPath><clipPath><path d="m0 66 66 0L66 0 0 0 0 66z"/></clipPath><clipPath><path d="m0 66 66 0L66 0 0 0 0 66z"/></clipPath></defs><g transform="matrix(0.96980277,0,0,-0.96980277,-1.9396055e-4,64.000097)"><g clip-path="url(#clipPath4157)"><g transform="translate(38.1113,29.2363)"><path d="M0 0C-0.3 0-0.6 0.3-0.6 0.6-0.6 0.9-0.3 1.2 0 1.2 0.3 1.2 0.6 0.9 0.6 0.6 0.6 0.3 0.3 0 0 0zm-9.3 0c-0.3 0-0.6 0.3-0.6 0.6 0 0.3 0.3 0.6 0.6 0.6 0.3 0 0.6-0.3 0.6-0.6C-8.7 0.3-8.9 0-9.3 0zm4.6 7.1c2.1 0 3.9-2 4.2-4.7l-8.4 0c0.4 2.7 2.1 4.7 4.2 4.7zm7.5-4.7-2.5 0c-0.4 3.1-2.4 5.4-4.9 5.4-2.5 0-4.5-2.4-4.9-5.4l-3.3 0-2.9-17.9 21.4 0-2.8 17.9z" style="fill:none;stroke-width:0.8;stroke:#373535"/></g><g transform="translate(33.7002,46.7236)"><path d="m0 0 0 4.9-1.5 0 0-4.9-2.7 0 3.5-6.2L2.9 0 0 0z" fill="#373535"/></g><g transform="translate(27.3174,36.1299)"><path d="M0 0-3.7 6.1-5.1 3.6-11.5 7.2-12.3 5.9-5.8 2.3-7.2-0.1 0 0z" fill="#373535"/></g><g transform="translate(50.7773,42.8994)"><path d="M0 0-0.7 1.3-7-2.2-8.3 0.1-12-6-4.8-6.1-6.3-3.5 0 0z" fill="#373535"/></g><g transform="matrix(0.60529636,0,0,0.60529636,65.674855,32.988752)"><path d="m0 0c0-29.8-24.2-54-54-54-29.8 0-54 24.2-54 54 0 29.8 24.2 54 54 54C-24.2 54 0 29.8 0 0z" style="fill:none;stroke:#9d8852"/></g></g></g></svg>
