<?xml version="1.0" encoding="UTF-8" standalone="no"?>
<!-- Created with Inkscape (http://www.inkscape.org/) -->

<svg
   xmlns:dc="http://purl.org/dc/elements/1.1/"
   xmlns:cc="http://creativecommons.org/ns#"
   xmlns:rdf="http://www.w3.org/1999/02/22-rdf-syntax-ns#"
   xmlns:svg="http://www.w3.org/2000/svg"
   xmlns="http://www.w3.org/2000/svg"
   xmlns:sodipodi="http://sodipodi.sourceforge.net/DTD/sodipodi-0.dtd"
   xmlns:inkscape="http://www.inkscape.org/namespaces/inkscape"
   width="64px"
   height="64px"
   id="svg3081"
   version="1.1"
   inkscape:version="0.48.5 r10040"
   sodipodi:docname="wallet.svg">
  <defs
     id="defs3083">
    <clipPath
       clipPathUnits="userSpaceOnUse"
       id="clipPath16">
      <path
         inkscape:connector-curvature="0"
         d="m 0,82.373 82.373,0 L 82.373,0 0,0 0,82.373 z"
         id="path18" />
    </clipPath>
    <clipPath
       clipPathUnits="userSpaceOnUse"
       id="clipPath32">
      <path
         inkscape:connector-curvature="0"
         d="m 0,82.373 82.373,0 L 82.373,0 0,0 0,82.373 z"
         id="path34" />
    </clipPath>
    <clipPath
       clipPathUnits="userSpaceOnUse"
       id="clipPath16-9">
      <path
         inkscape:connector-curvature="0"
         d="m 0,81.528 81.528,0 L 81.528,0 0,0 0,81.528 z"
         id="path18-6" />
    </clipPath>
  </defs>
  <sodipodi:namedview
     id="base"
     pagecolor="#ffffff"
     bordercolor="#666666"
     borderopacity="1.0"
     inkscape:pageopacity="0.0"
     inkscape:pageshadow="2"
     inkscape:zoom="5.5"
     inkscape:cx="32"
     inkscape:cy="32"
     inkscape:current-layer="layer1"
     showgrid="true"
     inkscape:document-units="px"
     inkscape:grid-bbox="true"
     inkscape:window-width="1047"
     inkscape:window-height="826"
     inkscape:window-x="514"
     inkscape:window-y="269"
     inkscape:window-maximized="0" />
  <metadata
     id="metadata3086">
    <rdf:RDF>
      <cc:Work
         rdf:about="">
        <dc:format>image/svg+xml</dc:format>
        <dc:type
           rdf:resource="http://purl.org/dc/dcmitype/StillImage" />
        <dc:title></dc:title>
      </cc:Work>
    </rdf:RDF>
  </metadata>
  <g
     id="layer1"
     inkscape:label="Layer 1"
     inkscape:groupmode="layer">
    <g
       transform="matrix(0.78500927,0,0,-0.78500927,-2.355e-4,64)"
       id="g12">
      <g
         id="g14"
         clip-path="url(#clipPath16-9)">
        <g
           id="g20"
           transform="translate(81.0283,40.7637)">
          <path
             inkscape:connector-curvature="0"
             d="m 0,0 c 0,-22.237 -18.026,-40.264 -40.263,-40.264 -22.238,0 -40.265,18.027 -40.265,40.264 0,22.237 18.027,40.265 40.265,40.265 C -18.026,40.265 0,22.237 0,0 z"
             style="fill:none;stroke:#9d8852;stroke-width:1;stroke-linecap:butt;stroke-linejoin:miter;stroke-miterlimit:10;stroke-opacity:1;stroke-dasharray:none"
             id="path22" />
        </g>
        <g
           id="g24"
           transform="translate(20.7598,29.4824)">
          <path
             inkscape:connector-curvature="0"
             d="m 0,0 0,23.833 c 0,0 -0.43,1.95 2.807,1.95 l 34.749,0 c 0,0 1.942,0.434 1.942,-2.6 l 0,-22.967 L 0,0 z"
             style="fill:none;stroke:#373535;stroke-width:0.75;stroke-linecap:butt;stroke-linejoin:miter;stroke-miterlimit:10;stroke-opacity:1;stroke-dasharray:none"
             id="path26" />
        </g>
        <path
           inkscape:connector-curvature="0"
           d="m 58.101,31.524 -35.396,0 0,21.367 35.396,0 0,-21.367 z"
           style="fill:none;stroke:#373535;stroke-width:0.75;stroke-linecap:butt;stroke-linejoin:miter;stroke-miterlimit:10;stroke-opacity:1;stroke-dasharray:none"
           id="path28" />
        <g
           id="g30"
           transform="translate(20.7598,29.583)">
          <path
             inkscape:connector-curvature="0"
             d="m 0,0 -8.416,-4.748 0,-2.593 55.252,0 0,2.807 -7.338,4.75 L 0,0 z"
             style="fill:none;stroke:#373535;stroke-width:0.75;stroke-linecap:butt;stroke-linejoin:miter;stroke-miterlimit:10;stroke-opacity:1;stroke-dasharray:none"
             id="path32" />
        </g>
        <g
           id="g34"
           transform="translate(36.7881,24.1143)">
          <path
             inkscape:connector-curvature="0"
             d="m 0,0 0,-1.11 7.295,0 0,1.051 L 0,0 z"
             style="fill:#373535;fill-opacity:1;fill-rule:nonzero;stroke:none"
             id="path36" />
        </g>
        <path
           inkscape:connector-curvature="0"
           d="m 24.618,28.142 -2.98,0 0,0.555 2.98,0 0,-0.555 z"
           style="fill:none;stroke:#373535;stroke-width:0.25;stroke-linecap:butt;stroke-linejoin:miter;stroke-miterlimit:10;stroke-opacity:1;stroke-dasharray:none"
           id="path38" />
        <path
           inkscape:connector-curvature="0"
           d="m 28.292,28.142 -2.98,0 0,0.555 2.98,0 0,-0.555 z"
           style="fill:none;stroke:#373535;stroke-width:0.25;stroke-linecap:butt;stroke-linejoin:miter;stroke-miterlimit:10;stroke-opacity:1;stroke-dasharray:none"
           id="path40" />
        <path
           inkscape:connector-curvature="0"
           d="m 31.965,28.142 -2.98,0 0,0.555 2.98,0 0,-0.555 z"
           style="fill:none;stroke:#373535;stroke-width:0.25;stroke-linecap:butt;stroke-linejoin:miter;stroke-miterlimit:10;stroke-opacity:1;stroke-dasharray:none"
           id="path42" />
        <path
           inkscape:connector-curvature="0"
           d="m 35.64,28.142 -2.98,0 0,0.555 2.98,0 0,-0.555 z"
           style="fill:none;stroke:#373535;stroke-width:0.25;stroke-linecap:butt;stroke-linejoin:miter;stroke-miterlimit:10;stroke-opacity:1;stroke-dasharray:none"
           id="path44" />
        <path
           inkscape:connector-curvature="0"
           d="m 39.313,28.142 -2.981,0 0,0.555 2.981,0 0,-0.555 z"
           style="fill:none;stroke:#373535;stroke-width:0.25;stroke-linecap:butt;stroke-linejoin:miter;stroke-miterlimit:10;stroke-opacity:1;stroke-dasharray:none"
           id="path46" />
        <path
           inkscape:connector-curvature="0"
           d="m 42.985,28.142 -2.981,0 0,0.555 2.981,0 0,-0.555 z"
           style="fill:none;stroke:#373535;stroke-width:0.25;stroke-linecap:butt;stroke-linejoin:miter;stroke-miterlimit:10;stroke-opacity:1;stroke-dasharray:none"
           id="path48" />
        <path
           inkscape:connector-curvature="0"
           d="m 46.659,28.142 -2.981,0 0,0.555 2.981,0 0,-0.555 z"
           style="fill:none;stroke:#373535;stroke-width:0.25;stroke-linecap:butt;stroke-linejoin:miter;stroke-miterlimit:10;stroke-opacity:1;stroke-dasharray:none"
           id="path50" />
        <path
           inkscape:connector-curvature="0"
           d="m 50.68,28.142 -2.98,0 0,0.555 2.98,0 0,-0.555 z"
           style="fill:none;stroke:#373535;stroke-width:0.25;stroke-linecap:butt;stroke-linejoin:miter;stroke-miterlimit:10;stroke-opacity:1;stroke-dasharray:none"
           id="path52" />
        <path
           inkscape:connector-curvature="0"
           d="m 54.49,28.142 -2.979,0 0,0.555 2.979,0 0,-0.555 z"
           style="fill:none;stroke:#373535;stroke-width:0.25;stroke-linecap:butt;stroke-linejoin:miter;stroke-miterlimit:10;stroke-opacity:1;stroke-dasharray:none"
           id="path54" />
        <path
           inkscape:connector-curvature="0"
           d="m 58.164,28.142 -2.979,0 0,0.555 2.979,0 0,-0.555 z"
           style="fill:none;stroke:#373535;stroke-width:0.25;stroke-linecap:butt;stroke-linejoin:miter;stroke-miterlimit:10;stroke-opacity:1;stroke-dasharray:none"
           id="path56" />
        <path
           inkscape:connector-curvature="0"
           d="m 23.095,27.24 -2.981,0 0,0.555 2.981,0 0,-0.555 z"
           style="fill:none;stroke:#373535;stroke-width:0.25;stroke-linecap:butt;stroke-linejoin:miter;stroke-miterlimit:10;stroke-opacity:1;stroke-dasharray:none"
           id="path58" />
        <path
           inkscape:connector-curvature="0"
           d="m 26.906,27.24 -2.981,0 0,0.555 2.981,0 0,-0.555 z"
           style="fill:none;stroke:#373535;stroke-width:0.25;stroke-linecap:butt;stroke-linejoin:miter;stroke-miterlimit:10;stroke-opacity:1;stroke-dasharray:none"
           id="path60" />
        <path
           inkscape:connector-curvature="0"
           d="m 30.718,27.24 -2.979,0 0,0.555 2.979,0 0,-0.555 z"
           style="fill:none;stroke:#373535;stroke-width:0.25;stroke-linecap:butt;stroke-linejoin:miter;stroke-miterlimit:10;stroke-opacity:1;stroke-dasharray:none"
           id="path62" />
        <path
           inkscape:connector-curvature="0"
           d="m 34.531,27.24 -2.981,0 0,0.555 2.981,0 0,-0.555 z"
           style="fill:none;stroke:#373535;stroke-width:0.25;stroke-linecap:butt;stroke-linejoin:miter;stroke-miterlimit:10;stroke-opacity:1;stroke-dasharray:none"
           id="path64" />
        <path
           inkscape:connector-curvature="0"
           d="m 38.343,27.24 -2.98,0 0,0.555 2.98,0 0,-0.555 z"
           style="fill:none;stroke:#373535;stroke-width:0.25;stroke-linecap:butt;stroke-linejoin:miter;stroke-miterlimit:10;stroke-opacity:1;stroke-dasharray:none"
           id="path66" />
        <path
           inkscape:connector-curvature="0"
           d="m 42.154,27.24 -2.979,0 0,0.555 2.979,0 0,-0.555 z"
           style="fill:none;stroke:#373535;stroke-width:0.25;stroke-linecap:butt;stroke-linejoin:miter;stroke-miterlimit:10;stroke-opacity:1;stroke-dasharray:none"
           id="path68" />
        <path
           inkscape:connector-curvature="0"
           d="m 45.97,27.24 -2.984,0 0,0.555 2.984,0 0,-0.555 z"
           style="fill:none;stroke:#373535;stroke-width:0.25;stroke-linecap:butt;stroke-linejoin:miter;stroke-miterlimit:10;stroke-opacity:1;stroke-dasharray:none"
           id="path70" />
        <path
           inkscape:connector-curvature="0"
           d="m 49.78,27.24 -2.98,0 0,0.555 2.98,0 0,-0.555 z"
           style="fill:none;stroke:#373535;stroke-width:0.25;stroke-linecap:butt;stroke-linejoin:miter;stroke-miterlimit:10;stroke-opacity:1;stroke-dasharray:none"
           id="path72" />
        <path
           inkscape:connector-curvature="0"
           d="m 53.593,27.24 -2.98,0 0,0.555 2.98,0 0,-0.555 z"
           style="fill:none;stroke:#373535;stroke-width:0.25;stroke-linecap:butt;stroke-linejoin:miter;stroke-miterlimit:10;stroke-opacity:1;stroke-dasharray:none"
           id="path74" />
        <path
           inkscape:connector-curvature="0"
           d="m 57.405,27.24 -2.981,0 0,0.555 2.981,0 0,-0.555 z"
           style="fill:none;stroke:#373535;stroke-width:0.25;stroke-linecap:butt;stroke-linejoin:miter;stroke-miterlimit:10;stroke-opacity:1;stroke-dasharray:none"
           id="path76" />
        <path
           inkscape:connector-curvature="0"
           d="m 61.218,27.24 -2.979,0 0,0.555 2.979,0 0,-0.555 z"
           style="fill:none;stroke:#373535;stroke-width:0.25;stroke-linecap:butt;stroke-linejoin:miter;stroke-miterlimit:10;stroke-opacity:1;stroke-dasharray:none"
           id="path78" />
        <path
           inkscape:connector-curvature="0"
           d="m 21.777,26.269 -2.98,0 0,0.556 2.98,0 0,-0.556 z"
           style="fill:none;stroke:#373535;stroke-width:0.25;stroke-linecap:butt;stroke-linejoin:miter;stroke-miterlimit:10;stroke-opacity:1;stroke-dasharray:none"
           id="path80" />
        <path
           inkscape:connector-curvature="0"
           d="m 25.796,26.269 -2.98,0 0,0.556 2.98,0 0,-0.556 z"
           style="fill:none;stroke:#373535;stroke-width:0.25;stroke-linecap:butt;stroke-linejoin:miter;stroke-miterlimit:10;stroke-opacity:1;stroke-dasharray:none"
           id="path82" />
        <path
           inkscape:connector-curvature="0"
           d="m 29.817,26.269 -2.981,0 0,0.556 2.981,0 0,-0.556 z"
           style="fill:none;stroke:#373535;stroke-width:0.25;stroke-linecap:butt;stroke-linejoin:miter;stroke-miterlimit:10;stroke-opacity:1;stroke-dasharray:none"
           id="path84" />
        <path
           inkscape:connector-curvature="0"
           d="m 33.837,26.269 -2.98,0 0,0.556 2.98,0 0,-0.556 z"
           style="fill:none;stroke:#373535;stroke-width:0.25;stroke-linecap:butt;stroke-linejoin:miter;stroke-miterlimit:10;stroke-opacity:1;stroke-dasharray:none"
           id="path86" />
        <path
           inkscape:connector-curvature="0"
           d="m 37.857,26.269 -2.98,0 0,0.556 2.98,0 0,-0.556 z"
           style="fill:none;stroke:#373535;stroke-width:0.25;stroke-linecap:butt;stroke-linejoin:miter;stroke-miterlimit:10;stroke-opacity:1;stroke-dasharray:none"
           id="path88" />
        <path
           inkscape:connector-curvature="0"
           d="m 41.877,26.269 -2.98,0 0,0.556 2.98,0 0,-0.556 z"
           style="fill:none;stroke:#373535;stroke-width:0.25;stroke-linecap:butt;stroke-linejoin:miter;stroke-miterlimit:10;stroke-opacity:1;stroke-dasharray:none"
           id="path90" />
        <path
           inkscape:connector-curvature="0"
           d="m 45.897,26.269 -2.98,0 0,0.556 2.98,0 0,-0.556 z"
           style="fill:none;stroke:#373535;stroke-width:0.25;stroke-linecap:butt;stroke-linejoin:miter;stroke-miterlimit:10;stroke-opacity:1;stroke-dasharray:none"
           id="path92" />
        <path
           inkscape:connector-curvature="0"
           d="m 49.917,26.269 -2.98,0 0,0.556 2.98,0 0,-0.556 z"
           style="fill:none;stroke:#373535;stroke-width:0.25;stroke-linecap:butt;stroke-linejoin:miter;stroke-miterlimit:10;stroke-opacity:1;stroke-dasharray:none"
           id="path94" />
        <path
           inkscape:connector-curvature="0"
           d="m 53.938,26.269 -2.98,0 0,0.556 2.98,0 0,-0.556 z"
           style="fill:none;stroke:#373535;stroke-width:0.25;stroke-linecap:butt;stroke-linejoin:miter;stroke-miterlimit:10;stroke-opacity:1;stroke-dasharray:none"
           id="path96" />
        <path
           inkscape:connector-curvature="0"
           d="m 57.957,26.269 -2.981,0 0,0.556 2.981,0 0,-0.556 z"
           style="fill:none;stroke:#373535;stroke-width:0.25;stroke-linecap:butt;stroke-linejoin:miter;stroke-miterlimit:10;stroke-opacity:1;stroke-dasharray:none"
           id="path98" />
        <path
           inkscape:connector-curvature="0"
           d="m 61.978,26.269 -2.979,0 0,0.556 2.979,0 0,-0.556 z"
           style="fill:none;stroke:#373535;stroke-width:0.25;stroke-linecap:butt;stroke-linejoin:miter;stroke-miterlimit:10;stroke-opacity:1;stroke-dasharray:none"
           id="path100" />
        <g
           id="g102"
           transform="translate(12.3437,24.5039)">
          <path
             inkscape:connector-curvature="0"
             d="M 0,0 55.252,0"
             style="fill:none;stroke:#373535;stroke-width:0.75;stroke-linecap:butt;stroke-linejoin:miter;stroke-miterlimit:10;stroke-opacity:1;stroke-dasharray:none"
             id="path104" />
        </g>
      </g>
    </g>
  </g>
</svg>
