<svg xmlns:svg="http://www.w3.org/2000/svg" xmlns="http://www.w3.org/2000/svg" version="1.1" width="64" height="64" viewBox="0 0 64 64"><style>.s0{fill:none;stroke:#373535;}</style><defs><clipPath><path d="m0 109 109 0L109 0 0 0 0 109z"/></clipPath><clipPath><path d="m0 109 109 0L109 0 0 0 0 109z"/></clipPath></defs><g transform="matrix(0.58701648,0,0,-0.58701648,0,64)"><g clip-path="url(#clipPath16)"><g transform="translate(53.5161,81.9893)"><path d="m0 0c-0.7 0-1.2-0.3-1.5-0.7-0.4-0.7-0.1-1.6-0.1-1.6l0.3 0.1c0 0-0.3 0.8 0.1 1.3 0.2 0.3 0.6 0.5 1.2 0.5 0.5 0 0.9-0.1 1.1-0.4 0.3-0.4 0.3-1 0.3-1.2C1.4-2 1.1-2.3 0.9-2.5 0.6-2.7 0.3-3 0.2-3.3 0-3.8 0.1-5 0.1-5.2l0.3 0c0 0.4 0 1.4 0.1 1.8 0.1 0.2 0.3 0.4 0.6 0.7 0.3 0.3 0.6 0.5 0.6 0.8 0.1 0.2 0.1 1-0.3 1.5C1.1-0.1 0.6 0 0 0z" class="s0"/></g><g transform="translate(42.4351,68.4355)"><path d="m0 0c0 0-0.2 1.8 0.2 2.3 0.4 0.5 1.6 0.8 2.4 1.1 0.8 0.3 4.5 1.8 5.4 2.5 0.9 0.8 2.1 2.5 3.8 2.5 1.7 0 2.8-2.1 4-2.7 1.3-0.7 5.3-2.4 6.4-2.7C23.3 2.8 24.2 2.2 23.9 0L13.1 4.5c0 0-1.1 0.6-2.5 0C9.3 3.9 0 0 0 0z" class="s0"/></g><g transform="translate(81.9507,58.334)"><path d="m0 0-14.7 13.7-5 0c-1.1-3-4.7-7.1-8.7-7.1-4 0-7.2 4.1-8.2 7.1l-5.5 0-14.2-13 7.3-10.5 7.3 3.9-0.8-24.7 29.1 0-0.8 26.1 6.3-5.6L0 0z" fill="#fff"/></g><g transform="translate(81.9507,58.334)"><path d="m0 0-14.7 13.7-5 0c-1.1-3-4.7-7.1-8.7-7.1-4 0-7.2 4.1-8.2 7.1l-5.5 0-14.2-13 7.3-10.5 7.3 3.9-0.8-24.7 29.1 0-0.8 26.1 6.3-5.6L0 0z" class="s0"/></g><g transform="translate(83.5547,29.8125)"><path d="M0 0C-0.3 1.2-0.3 2.5-1.5 3.3-2.2 3.9-2.8 4.1-3.6 4.3-5.7 4.9-7.8 3.1-10 3.2c-2.1 0.1-4.4 1.4-5.7 2.9-1.4 1.7-2 4.3-2.6 6.3-0.5 1.5-1.2 4.5-2.8 5.1l0 0c-3.1-1-5.5-8.8-2.6-10.8 0.1-0.4 1.6-6.8 0.5-9.5l1.8 0c0 0-0.8 6.4 0.9 9 0 0 0.1 0 0.1 0 1.1-0.2 2.2-1 3.1-1.6 1.5-1 3.7-2.7 4.7-4.2 0.6-0.8 0.7-2.2 1.8-2.7C-10-2.6 1.5-2.9 1.8-2.1 2-1.4 0.2-0.9 0 0z" class="s0"/></g></g></g><g transform="matrix(0.58701648,0,0,-0.58701648,0,64)"><g clip-path="url(#clipPath44)"><g transform="translate(108.5259,54.5137)"><path d="m0 0c0-29.8-24.2-54-54-54-29.8 0-54 24.2-54 54 0 29.8 24.2 54 54 54C-24.2 54 0 29.8 0 0z" style="fill:none;stroke:#9d8852"/></g></g></g></svg>