<svg xmlns:svg="http://www.w3.org/2000/svg" xmlns="http://www.w3.org/2000/svg" width="64" height="64" version="1.1" viewBox="0 0 64 64"><style>.s0{fill:#fff;}</style><g transform="matrix(1.3913195,0,0,1.3913195,1.739222e-4,1.7256743e-4)" fill="#fff"><path d="m39.3 6.7c-9-9-23.5-9-32.5 0-9 9-9 23.5 0 32.5 9 9 23.5 9 32.5 0 9-9 9-23.5 0-32.5zM26 33c0 1.7-1.3 3-3 3-1.7 0-3-1.3-3-3V21c0-1.7 1.3-3 3-3 1.7 0 3 1.3 3 3V33zM22.9 15.9c-1.7 0-2.9-1.2-2.8-2.7 0-1.6 1.1-2.8 2.9-2.8 1.8 0 2.9 1.2 2.9 2.8 0 1.5-1.2 2.7-3 2.7z" fill="#fff"/></g></svg>